<svg width="24" height="40" viewBox="0 0 24 40" fill="none" xmlns="http://www.w3.org/2000/svg">
<path d="M2.12382 0.16481C3.13762 -0.273691 4.3152 0.193002 4.7537 1.2068L5.40507 2.71364C7.2949 4.7335 9.46447 8.23219 11.282 12.4334V12.4353C13.3 11.5888 15.6286 12.5223 16.4998 14.5359L23.3719 30.4207C24.2489 32.4481 23.3162 34.8023 21.2889 35.6795L14.1141 38.784C12.0865 39.6611 9.73145 38.7285 8.85429 36.7009L1.98222 20.8162C1.11113 18.8027 2.02486 16.4663 4.02323 15.575V15.574C2.31105 11.6164 1.26621 7.85771 1.00175 5.1277L0.164832 3.19118C-0.273496 2.17759 0.192479 1.00095 1.20585 0.562271L2.12382 0.16481Z" fill="#FFF875"/>
</svg>
