<svg width="55" height="40" viewBox="0 0 55 40" fill="none" xmlns="http://www.w3.org/2000/svg">
<path d="M33.1238 0.16481C34.1376 -0.273691 35.3152 0.193002 35.7537 1.2068L36.4051 2.71364C38.2949 4.7335 40.4645 8.23219 42.282 12.4334V12.4353C44.3 11.5888 46.6286 12.5223 47.4998 14.5359L54.3719 30.4207C55.2489 32.4481 54.3162 34.8023 52.2889 35.6795L45.1141 38.784C43.0865 39.6611 40.7314 38.7285 39.8543 36.7009L32.9822 20.8162C32.1111 18.8027 33.0249 16.4663 35.0232 15.575V15.574C33.311 11.6164 32.2662 7.85771 32.0017 5.1277L31.1648 3.19118C30.7265 2.17759 31.1925 1.00095 32.2058 0.562271L33.1238 0.16481Z" fill="#FFF875"/>
<path d="M2.12382 0.16481C3.13762 -0.273691 4.3152 0.193002 4.7537 1.2068L5.40507 2.71364C7.2949 4.7335 9.46447 8.23219 11.282 12.4334V12.4353C13.3 11.5888 15.6286 12.5223 16.4998 14.5359L23.3719 30.4207C24.2489 32.4481 23.3162 34.8023 21.2889 35.6795L14.1141 38.784C12.0865 39.6611 9.73145 38.7285 8.85429 36.7009L1.98222 20.8162C1.11113 18.8027 2.02486 16.4663 4.02323 15.575V15.574C2.31105 11.6164 1.26621 7.85771 1.00175 5.1277L0.164832 3.19118C-0.273496 2.17759 0.192479 1.00095 1.20585 0.562271L2.12382 0.16481Z" fill="#FFF875"/>
</svg>
