<svg width="147" height="191" viewBox="0 0 147 191" fill="none" xmlns="http://www.w3.org/2000/svg">
<path d="M0 48C0 34.1929 11.1929 23 25 23H97.3889C111.196 23 122.389 34.1929 122.389 48V165.383C122.389 179.19 111.196 190.383 97.3889 190.383H25C11.1929 190.383 0 179.19 0 165.383V48Z" fill="#FFF875"/>
<path d="M24 25C24 11.1929 35.1929 0 49 0H121.389C135.196 0 146.389 11.1929 146.389 25V142.383C146.389 156.19 135.196 167.383 121.389 167.383H49C35.1929 167.383 24 156.19 24 142.383V25Z" fill="#FF3641"/>
</svg>
