<svg width="1009" height="146" viewBox="0 0 1009 146" fill="none" xmlns="http://www.w3.org/2000/svg">
<mask id="mask0_23_125" style="mask-type:alpha" maskUnits="userSpaceOnUse" x="7" y="0" width="1002" height="146">
<path d="M7 81.4C7 71 8.6 61.8 11.8 53.8C15.1333 45.8 19.6 39.133 25.2 33.8C30.9333 28.3333 37.6 24.2 45.2 21.4C52.9333 18.6 61.2667 17.2 70.2 17.2C79.1333 17.2 87.4 18.6 95 21.4C102.733 24.2 109.467 28.3333 115.2 33.8C120.933 39.133 125.4 45.8 128.6 53.8C131.933 61.8 133.6 71 133.6 81.4C133.6 91.8 132 101.067 128.8 109.2C125.6 117.2 121.133 123.933 115.4 129.4C109.8 134.733 103.133 138.8 95.4 141.6C87.6667 144.4 79.2667 145.8 70.2 145.8C61.1333 145.8 52.7333 144.4 45 141.6C37.2667 138.667 30.6 134.467 25 129C19.4 123.533 15 116.8 11.8 108.8C8.6 100.8 7 91.667 7 81.4ZM43 81.4C43 93.533 45.4667 102.6 50.4 108.6C55.3333 114.6 61.9333 117.6 70.2 117.6C78.6 117.6 85.2667 114.6 90.2 108.6C95.1333 102.6 97.6 93.533 97.6 81.4C97.6 69.4 95.1333 60.4 90.2 54.4C85.4 48.4 78.8 45.4 70.4 45.4C62.1333 45.4 55.4667 48.4 50.4 54.4C45.4667 60.267 43 69.267 43 81.4ZM151.425 45C151.425 38.2 152.558 32.4 154.825 27.6C157.225 22.6667 160.425 18.6667 164.425 15.6C168.425 12.4 173.092 10.0667 178.425 8.6C183.892 7.1333 189.692 6.39999 195.825 6.39999C205.692 6.39999 212.958 7.73329 217.625 10.4C222.292 12.9333 224.625 17.3333 224.625 23.6C224.625 26.2667 224.025 28.6667 222.825 30.8C221.758 32.933 220.558 34.533 219.225 35.6C216.692 34.933 214.025 34.4 211.225 34C208.558 33.467 205.425 33.2 201.825 33.2C196.092 33.2 191.625 34.2 188.425 36.2C185.225 38.067 183.625 41.4 183.625 46.2V52.6H216.425C217.225 54.067 217.958 55.933 218.625 58.2C219.425 60.333 219.825 62.733 219.825 65.4C219.825 70.067 218.758 73.467 216.625 75.6C214.625 77.6 211.892 78.6 208.425 78.6H185.425V142C184.092 142.4 181.958 142.8 179.025 143.2C176.225 143.6 173.292 143.8 170.225 143.8C167.292 143.8 164.625 143.6 162.225 143.2C159.958 142.8 158.025 142 156.425 140.8C154.825 139.6 153.558 138 152.625 136C151.825 133.867 151.425 131.133 151.425 127.8V45ZM234.433 45C234.433 38.2 235.566 32.4 237.833 27.6C240.233 22.6667 243.433 18.6667 247.433 15.6C251.433 12.4 256.099 10.0667 261.433 8.6C266.899 7.1333 272.699 6.39999 278.833 6.39999C288.699 6.39999 295.966 7.73329 300.633 10.4C305.299 12.9333 307.633 17.3333 307.633 23.6C307.633 26.2667 307.033 28.6667 305.833 30.8C304.766 32.933 303.566 34.533 302.233 35.6C299.699 34.933 297.033 34.4 294.233 34C291.566 33.467 288.433 33.2 284.833 33.2C279.099 33.2 274.633 34.2 271.433 36.2C268.233 38.067 266.633 41.4 266.633 46.2V52.6H299.433C300.233 54.067 300.966 55.933 301.633 58.2C302.433 60.333 302.833 62.733 302.833 65.4C302.833 70.067 301.766 73.467 299.633 75.6C297.633 77.6 294.899 78.6 291.433 78.6H268.433V142C267.099 142.4 264.966 142.8 262.033 143.2C259.233 143.6 256.299 143.8 253.233 143.8C250.299 143.8 247.633 143.6 245.233 143.2C242.966 142.8 241.033 142 239.433 140.8C237.833 139.6 236.566 138 235.633 136C234.833 133.867 234.433 131.133 234.433 127.8V45ZM399.041 113.2C399.041 123.333 395.241 131.267 387.641 137C380.041 142.733 368.841 145.6 354.041 145.6C348.441 145.6 343.241 145.2 338.441 144.4C333.641 143.6 329.507 142.4 326.041 140.8C322.707 139.067 320.041 136.933 318.041 134.4C316.174 131.867 315.241 128.867 315.241 125.4C315.241 122.2 315.907 119.533 317.241 117.4C318.574 115.133 320.174 113.267 322.041 111.8C325.907 113.933 330.307 115.867 335.241 117.6C340.307 119.2 346.107 120 352.641 120C356.774 120 359.907 119.4 362.041 118.2C364.307 117 365.441 115.4 365.441 113.4C365.441 111.533 364.641 110.067 363.041 109C361.441 107.933 358.774 107.067 355.041 106.4L349.041 105.2C337.441 102.933 328.774 99.4 323.041 94.6C317.441 89.667 314.641 82.667 314.641 73.6C314.641 68.667 315.707 64.2 317.841 60.2C319.974 56.2 322.974 52.867 326.841 50.2C330.707 47.533 335.307 45.467 340.641 44C346.107 42.533 352.107 41.8 358.641 41.8C363.574 41.8 368.174 42.2 372.441 43C376.841 43.667 380.641 44.733 383.841 46.2C387.041 47.667 389.574 49.6 391.441 52C393.307 54.267 394.241 57 394.241 60.2C394.241 63.267 393.641 65.933 392.441 68.2C391.374 70.333 389.974 72.133 388.241 73.6C387.174 72.933 385.574 72.267 383.441 71.6C381.307 70.8 378.974 70.133 376.441 69.6C373.907 68.933 371.307 68.4 368.641 68C366.107 67.6 363.774 67.4 361.641 67.4C357.241 67.4 353.841 67.933 351.441 69C349.041 69.933 347.841 71.467 347.841 73.6C347.841 75.067 348.507 76.267 349.841 77.2C351.174 78.133 353.707 79 357.441 79.8L363.641 81.2C376.441 84.133 385.507 88.2 390.841 93.4C396.307 98.467 399.041 105.067 399.041 113.2ZM414.678 18C414.678 12.9333 416.345 8.6667 419.678 5.2C423.145 1.7333 427.678 0 433.278 0C438.878 0 443.345 1.7333 446.678 5.2C450.145 8.6667 451.878 12.9333 451.878 18C451.878 23.0667 450.145 27.3333 446.678 30.8C443.345 34.267 438.878 36 433.278 36C427.678 36 423.145 34.267 419.678 30.8C416.345 27.3333 414.678 23.0667 414.678 18ZM450.278 142C448.811 142.267 446.611 142.6 443.678 143C440.878 143.533 438.011 143.8 435.078 143.8C432.145 143.8 429.478 143.6 427.078 143.2C424.811 142.8 422.878 142 421.278 140.8C419.678 139.6 418.411 138 417.478 136C416.678 133.867 416.278 131.133 416.278 127.8V46.4C417.745 46.133 419.878 45.8 422.678 45.4C425.611 44.867 428.545 44.6 431.478 44.6C434.411 44.6 437.011 44.8 439.278 45.2C441.678 45.6 443.678 46.4 445.278 47.6C446.878 48.8 448.078 50.467 448.878 52.6C449.811 54.6 450.278 57.267 450.278 60.6V142ZM467.723 93.6C467.723 84.8 469.057 77.2 471.723 70.8C474.39 64.267 478.057 58.867 482.723 54.6C487.523 50.333 493.057 47.2 499.323 45.2C505.723 43.067 512.59 42 519.923 42C522.59 42 525.19 42.267 527.723 42.8C530.257 43.2 532.323 43.733 533.923 44.4V12C535.257 11.6 537.39 11.2 540.323 10.8C543.257 10.2667 546.257 10 549.323 10C552.257 10 554.857 10.2 557.123 10.6C559.523 11 561.523 11.8 563.123 13C564.723 14.2 565.923 15.8667 566.723 18C567.523 20 567.923 22.6667 567.923 26V120.8C567.923 127.067 564.99 132.067 559.123 135.8C555.257 138.333 550.257 140.533 544.123 142.4C537.99 144.4 530.923 145.4 522.923 145.4C514.257 145.4 506.457 144.2 499.523 141.8C492.723 139.4 486.923 135.933 482.123 131.4C477.457 126.867 473.857 121.467 471.323 115.2C468.923 108.8 467.723 101.6 467.723 93.6ZM524.523 68.6C517.323 68.6 511.79 70.667 507.923 74.8C504.057 78.933 502.123 85.2 502.123 93.6C502.123 101.867 503.923 108.133 507.523 112.4C511.123 116.533 516.323 118.6 523.123 118.6C525.523 118.6 527.657 118.267 529.523 117.6C531.523 116.8 533.057 115.933 534.123 115V71C531.457 69.4 528.257 68.6 524.523 68.6ZM640.511 145.4C632.644 145.4 625.311 144.333 618.511 142.2C611.844 139.933 605.978 136.6 600.911 132.2C595.978 127.8 592.044 122.267 589.111 115.6C586.311 108.933 584.911 101.133 584.911 92.2C584.911 83.4 586.311 75.867 589.111 69.6C592.044 63.2 595.844 58 600.511 54C605.178 49.867 610.511 46.867 616.511 45C622.511 43 628.644 42 634.911 42C641.978 42 648.378 43.067 654.111 45.2C659.978 47.333 664.978 50.267 669.111 54C673.378 57.733 676.644 62.2 678.911 67.4C681.311 72.6 682.511 78.267 682.511 84.4C682.511 88.933 681.244 92.4 678.711 94.8C676.178 97.2 672.644 98.733 668.111 99.4L618.711 106.8C620.178 111.2 623.178 114.533 627.711 116.8C632.244 118.933 637.444 120 643.311 120C648.778 120 653.911 119.333 658.711 118C663.644 116.533 667.644 114.867 670.711 113C672.844 114.333 674.644 116.2 676.111 118.6C677.578 121 678.311 123.533 678.311 126.2C678.311 132.2 675.511 136.667 669.911 139.6C665.644 141.867 660.844 143.4 655.511 144.2C650.178 145 645.178 145.4 640.511 145.4ZM634.911 66.8C631.711 66.8 628.911 67.333 626.511 68.4C624.244 69.467 622.378 70.867 620.911 72.6C619.444 74.2 618.311 76.067 617.511 78.2C616.844 80.2 616.444 82.267 616.311 84.4L650.511 78.8C650.111 76.133 648.644 73.467 646.111 70.8C643.578 68.133 639.844 66.8 634.911 66.8ZM786.677 21C787.61 22.4667 788.41 24.4667 789.077 27C789.877 29.4 790.277 31.9333 790.277 34.6C790.277 39.8 789.143 43.533 786.877 45.8C784.743 47.933 781.81 49 778.077 49H736.077V71.6H779.877C780.943 73.067 781.81 75 782.477 77.4C783.277 79.8 783.677 82.333 783.677 85C783.677 90.067 782.543 93.733 780.277 96C778.143 98.133 775.21 99.2 771.477 99.2H736.477V141.4C735.01 141.8 732.677 142.2 729.477 142.6C726.41 143 723.343 143.2 720.277 143.2C717.21 143.2 714.477 142.933 712.077 142.4C709.81 142 707.877 141.2 706.277 140C704.677 138.8 703.477 137.133 702.677 135C701.877 132.867 701.477 130.067 701.477 126.6V39.6C701.477 33.867 703.143 29.3333 706.477 26C709.81 22.6667 714.343 21 720.077 21H786.677ZM853.127 77.2C858.727 77.2 862.993 75.933 865.927 73.4C868.993 70.733 870.527 66.733 870.527 61.4C870.527 56.333 868.927 52.467 865.727 49.8C862.66 47 858.127 45.6 852.127 45.6C849.993 45.6 848.193 45.667 846.727 45.8C845.393 45.8 843.993 45.933 842.527 46.2V77.2H853.127ZM842.727 141.4C841.26 141.8 838.927 142.2 835.727 142.6C832.66 143 829.593 143.2 826.527 143.2C823.46 143.2 820.727 142.933 818.327 142.4C816.06 142 814.127 141.2 812.527 140C810.927 138.8 809.727 137.133 808.927 135C808.127 132.867 807.727 130.067 807.727 126.6V32.4C807.727 29.6 808.46 27.4667 809.927 26C811.527 24.4 813.66 23.1333 816.327 22.2C820.86 20.6 825.993 19.4667 831.727 18.8C837.593 18 843.46 17.6 849.327 17.6C867.727 17.6 881.793 21.5333 891.527 29.4C901.26 37.267 906.127 47.933 906.127 61.4C906.127 67.933 905.06 73.867 902.927 79.2C900.927 84.4 897.86 88.933 893.727 92.8C889.727 96.533 884.593 99.467 878.327 101.6C872.193 103.6 865.06 104.6 856.927 104.6H842.727V141.4ZM942.538 142.8C936.804 142.8 932.271 141.133 928.938 137.8C925.604 134.467 923.938 129.933 923.938 124.2V20.8C925.404 20.5333 927.738 20.2 930.938 19.8C934.138 19.2667 937.204 19 940.138 19C943.204 19 945.871 19.2667 948.138 19.8C950.538 20.2 952.538 21 954.138 22.2C955.738 23.4 956.938 25.0667 957.738 27.2C958.538 29.3333 958.938 32.1333 958.938 35.6V114.6H1004.74C1005.67 116.067 1006.54 118.067 1007.34 120.6C1008.14 123 1008.54 125.533 1008.54 128.2C1008.54 133.533 1007.4 137.333 1005.14 139.6C1002.87 141.733 999.871 142.8 996.138 142.8H942.538Z" fill="white"/>
</mask>
<g mask="url(#mask0_23_125)">
<path d="M1014 66.2H0V166.2H1014V66.2Z" fill="#2962FF"/>
</g>
<mask id="mask1_23_125" style="mask-type:alpha" maskUnits="userSpaceOnUse" x="0" y="0" width="1002" height="146">
<path d="M0 81.5999C0 71.1999 1.6 61.9999 4.8 53.9999C8.1333 45.9999 12.6 39.3329 18.2 33.9999C23.9333 28.5332 30.6 24.3999 38.2 21.5999C45.9333 18.7999 54.2667 17.3999 63.2 17.3999C72.1333 17.3999 80.4 18.7999 88 21.5999C95.733 24.3999 102.467 28.5332 108.2 33.9999C113.933 39.3329 118.4 45.9999 121.6 53.9999C124.933 61.9999 126.6 71.1999 126.6 81.5999C126.6 91.9999 125 101.267 121.8 109.4C118.6 117.4 114.133 124.133 108.4 129.6C102.8 134.933 96.133 139 88.4 141.8C80.6667 144.6 72.2667 146 63.2 146C54.1333 146 45.7333 144.6 38 141.8C30.2667 138.867 23.6 134.667 18 129.2C12.4 123.733 8 117 4.8 109C1.6 101 0 91.8669 0 81.5999ZM36 81.5999C36 93.7329 38.4667 102.8 43.4 108.8C48.3333 114.8 54.9333 117.8 63.2 117.8C71.6 117.8 78.2667 114.8 83.2 108.8C88.133 102.8 90.6 93.7329 90.6 81.5999C90.6 69.5999 88.133 60.5999 83.2 54.5999C78.4 48.5999 71.8 45.5999 63.4 45.5999C55.1333 45.5999 48.4667 48.5999 43.4 54.5999C38.4667 60.4669 36 69.4669 36 81.5999ZM144.425 45.2C144.425 38.4 145.558 32.5999 147.825 27.7999C150.225 22.8666 153.425 18.8666 157.425 15.7999C161.425 12.5999 166.092 10.2666 171.425 8.79995C176.892 7.33325 182.692 6.59995 188.825 6.59995C198.692 6.59995 205.958 7.93325 210.625 10.5999C215.292 13.1332 217.625 17.5332 217.625 23.7999C217.625 26.4666 217.025 28.8666 215.825 30.9999C214.758 33.1329 213.558 34.7329 212.225 35.7999C209.692 35.1329 207.025 34.6 204.225 34.2C201.558 33.667 198.425 33.3999 194.825 33.3999C189.092 33.3999 184.625 34.3999 181.425 36.3999C178.225 38.2669 176.625 41.5999 176.625 46.3999V52.7999H209.425C210.225 54.2669 210.958 56.1329 211.625 58.3999C212.425 60.5329 212.825 62.9329 212.825 65.5999C212.825 70.2669 211.758 73.6669 209.625 75.7999C207.625 77.7999 204.892 78.7999 201.425 78.7999H178.425V142.2C177.092 142.6 174.958 143 172.025 143.4C169.225 143.8 166.292 144 163.225 144C160.292 144 157.625 143.8 155.225 143.4C152.958 143 151.025 142.2 149.425 141C147.825 139.8 146.558 138.2 145.625 136.2C144.825 134.067 144.425 131.333 144.425 128V45.2ZM227.433 45.2C227.433 38.4 228.566 32.5999 230.833 27.7999C233.233 22.8666 236.433 18.8666 240.433 15.7999C244.433 12.5999 249.099 10.2666 254.433 8.79995C259.899 7.33325 265.699 6.59995 271.833 6.59995C281.699 6.59995 288.966 7.93325 293.633 10.5999C298.299 13.1332 300.633 17.5332 300.633 23.7999C300.633 26.4666 300.033 28.8666 298.833 30.9999C297.766 33.1329 296.566 34.7329 295.233 35.7999C292.699 35.1329 290.033 34.6 287.233 34.2C284.566 33.667 281.433 33.3999 277.833 33.3999C272.099 33.3999 267.633 34.3999 264.433 36.3999C261.233 38.2669 259.633 41.5999 259.633 46.3999V52.7999H292.433C293.233 54.2669 293.966 56.1329 294.633 58.3999C295.433 60.5329 295.833 62.9329 295.833 65.5999C295.833 70.2669 294.766 73.6669 292.633 75.7999C290.633 77.7999 287.899 78.7999 284.433 78.7999H261.433V142.2C260.099 142.6 257.966 143 255.033 143.4C252.233 143.8 249.299 144 246.233 144C243.299 144 240.633 143.8 238.233 143.4C235.966 143 234.033 142.2 232.433 141C230.833 139.8 229.566 138.2 228.633 136.2C227.833 134.067 227.433 131.333 227.433 128V45.2ZM392.041 113.4C392.041 123.533 388.241 131.467 380.641 137.2C373.041 142.933 361.841 145.8 347.041 145.8C341.441 145.8 336.241 145.4 331.441 144.6C326.641 143.8 322.507 142.6 319.041 141C315.707 139.267 313.041 137.133 311.041 134.6C309.174 132.067 308.241 129.067 308.241 125.6C308.241 122.4 308.907 119.733 310.241 117.6C311.574 115.333 313.174 113.467 315.041 112C318.907 114.133 323.307 116.067 328.241 117.8C333.307 119.4 339.107 120.2 345.641 120.2C349.774 120.2 352.907 119.6 355.041 118.4C357.307 117.2 358.441 115.6 358.441 113.6C358.441 111.733 357.641 110.267 356.041 109.2C354.441 108.133 351.774 107.267 348.041 106.6L342.041 105.4C330.441 103.133 321.774 99.5999 316.041 94.7999C310.441 89.8669 307.641 82.8669 307.641 73.7999C307.641 68.8669 308.707 64.3999 310.841 60.3999C312.974 56.3999 315.974 53.0669 319.841 50.3999C323.707 47.7329 328.307 45.667 333.641 44.2C339.107 42.733 345.107 41.9999 351.641 41.9999C356.574 41.9999 361.174 42.4 365.441 43.2C369.841 43.867 373.641 44.9329 376.841 46.3999C380.041 47.8669 382.574 49.8 384.441 52.2C386.307 54.467 387.241 57.1999 387.241 60.3999C387.241 63.4669 386.641 66.1329 385.441 68.3999C384.374 70.5329 382.974 72.3329 381.241 73.7999C380.174 73.1329 378.574 72.4669 376.441 71.7999C374.307 70.9999 371.974 70.3329 369.441 69.7999C366.907 69.1329 364.307 68.6 361.641 68.2C359.107 67.8 356.774 67.5999 354.641 67.5999C350.241 67.5999 346.841 68.133 344.441 69.2C342.041 70.133 340.841 71.6669 340.841 73.7999C340.841 75.2669 341.507 76.4669 342.841 77.3999C344.174 78.3329 346.707 79.2 350.441 80L356.641 81.3999C369.441 84.3329 378.507 88.3999 383.841 93.5999C389.307 98.6669 392.041 105.267 392.041 113.4ZM407.678 18.2C407.678 13.1333 409.345 8.86665 412.678 5.39995C416.145 1.93325 420.678 0.199951 426.278 0.199951C431.878 0.199951 436.345 1.93325 439.678 5.39995C443.145 8.86665 444.878 13.1333 444.878 18.2C444.878 23.2667 443.145 27.5332 439.678 30.9999C436.345 34.4669 431.878 36.2 426.278 36.2C420.678 36.2 416.145 34.4669 412.678 30.9999C409.345 27.5332 407.678 23.2667 407.678 18.2ZM443.278 142.2C441.811 142.467 439.611 142.8 436.678 143.2C433.878 143.733 431.011 144 428.078 144C425.145 144 422.478 143.8 420.078 143.4C417.811 143 415.878 142.2 414.278 141C412.678 139.8 411.411 138.2 410.478 136.2C409.678 134.067 409.278 131.333 409.278 128V46.5999C410.745 46.3329 412.878 45.9999 415.678 45.5999C418.611 45.0669 421.545 44.7999 424.478 44.7999C427.411 44.7999 430.011 44.9999 432.278 45.3999C434.678 45.7999 436.678 46.5999 438.278 47.7999C439.878 48.9999 441.078 50.6669 441.878 52.7999C442.811 54.7999 443.278 57.4669 443.278 60.7999V142.2ZM460.723 93.7999C460.723 84.9999 462.057 77.4 464.723 71C467.39 64.467 471.057 59.0669 475.723 54.7999C480.523 50.5329 486.057 47.3999 492.323 45.3999C498.723 43.2669 505.59 42.2 512.923 42.2C515.59 42.2 518.19 42.4669 520.723 42.9999C523.257 43.3999 525.323 43.9329 526.923 44.5999V12.2C528.257 11.8 530.39 11.3999 533.323 10.9999C536.257 10.4666 539.257 10.2 542.323 10.2C545.257 10.2 547.857 10.3999 550.123 10.7999C552.523 11.1999 554.523 12 556.123 13.2C557.723 14.4 558.923 16.0667 559.723 18.2C560.523 20.2 560.923 22.8667 560.923 26.2V121C560.923 127.267 557.99 132.267 552.123 136C548.257 138.533 543.257 140.733 537.123 142.6C530.99 144.6 523.923 145.6 515.923 145.6C507.257 145.6 499.457 144.4 492.523 142C485.723 139.6 479.923 136.133 475.123 131.6C470.457 127.067 466.857 121.667 464.323 115.4C461.923 109 460.723 101.8 460.723 93.7999ZM517.523 68.7999C510.323 68.7999 504.79 70.867 500.923 75C497.057 79.133 495.123 85.3999 495.123 93.7999C495.123 102.067 496.923 108.333 500.523 112.6C504.123 116.733 509.323 118.8 516.123 118.8C518.523 118.8 520.657 118.467 522.523 117.8C524.523 117 526.057 116.133 527.123 115.2V71.2C524.457 69.6 521.257 68.7999 517.523 68.7999ZM633.511 145.6C625.644 145.6 618.311 144.533 611.511 142.4C604.844 140.133 598.978 136.8 593.911 132.4C588.978 128 585.044 122.467 582.111 115.8C579.311 109.133 577.911 101.333 577.911 92.3999C577.911 83.5999 579.311 76.0669 582.111 69.7999C585.044 63.3999 588.844 58.2 593.511 54.2C598.178 50.067 603.511 47.067 609.511 45.2C615.511 43.2 621.644 42.2 627.911 42.2C634.978 42.2 641.378 43.2669 647.111 45.3999C652.978 47.5329 657.978 50.467 662.111 54.2C666.378 57.933 669.644 62.3999 671.911 67.5999C674.311 72.7999 675.511 78.4669 675.511 84.5999C675.511 89.1329 674.244 92.6 671.711 95C669.178 97.4 665.644 98.9329 661.111 99.5999L611.711 107C613.178 111.4 616.178 114.733 620.711 117C625.244 119.133 630.444 120.2 636.311 120.2C641.778 120.2 646.911 119.533 651.711 118.2C656.644 116.733 660.644 115.067 663.711 113.2C665.844 114.533 667.644 116.4 669.111 118.8C670.578 121.2 671.311 123.733 671.311 126.4C671.311 132.4 668.511 136.867 662.911 139.8C658.644 142.067 653.844 143.6 648.511 144.4C643.178 145.2 638.178 145.6 633.511 145.6ZM627.911 67C624.711 67 621.911 67.5329 619.511 68.5999C617.244 69.6669 615.378 71.0669 613.911 72.7999C612.444 74.3999 611.311 76.2669 610.511 78.3999C609.844 80.3999 609.444 82.4669 609.311 84.5999L643.511 79C643.111 76.333 641.644 73.667 639.111 71C636.578 68.333 632.844 67 627.911 67ZM779.677 21.2C780.61 22.6667 781.41 24.6667 782.077 27.2C782.877 29.6 783.277 32.1332 783.277 34.7999C783.277 39.9999 782.143 43.7329 779.877 45.9999C777.743 48.1329 774.81 49.2 771.077 49.2H729.077V71.7999H772.877C773.943 73.2669 774.81 75.1999 775.477 77.5999C776.277 79.9999 776.677 82.533 776.677 85.2C776.677 90.267 775.543 93.933 773.277 96.2C771.143 98.333 768.21 99.3999 764.477 99.3999H729.477V141.6C728.01 142 725.677 142.4 722.477 142.8C719.41 143.2 716.343 143.4 713.277 143.4C710.21 143.4 707.477 143.133 705.077 142.6C702.81 142.2 700.877 141.4 699.277 140.2C697.677 139 696.477 137.333 695.677 135.2C694.877 133.067 694.477 130.267 694.477 126.8V39.7999C694.477 34.0669 696.143 29.5333 699.477 26.2C702.81 22.8667 707.343 21.2 713.077 21.2H779.677ZM846.127 77.3999C851.727 77.3999 855.993 76.1329 858.927 73.5999C861.993 70.9329 863.527 66.9329 863.527 61.5999C863.527 56.5329 861.927 52.6669 858.727 49.9999C855.66 47.1999 851.127 45.7999 845.127 45.7999C842.993 45.7999 841.193 45.8669 839.727 45.9999C838.393 45.9999 836.993 46.1329 835.527 46.3999V77.3999H846.127ZM835.727 141.6C834.26 142 831.927 142.4 828.727 142.8C825.66 143.2 822.593 143.4 819.527 143.4C816.46 143.4 813.727 143.133 811.327 142.6C809.06 142.2 807.127 141.4 805.527 140.2C803.927 139 802.727 137.333 801.927 135.2C801.127 133.067 800.727 130.267 800.727 126.8V32.5999C800.727 29.7999 801.46 27.6667 802.927 26.2C804.527 24.6 806.66 23.3332 809.327 22.3999C813.86 20.7999 818.993 19.6666 824.727 18.9999C830.593 18.1999 836.46 17.7999 842.327 17.7999C860.727 17.7999 874.793 21.7332 884.527 29.5999C894.26 37.4669 899.127 48.1329 899.127 61.5999C899.127 68.1329 898.06 74.0669 895.927 79.3999C893.927 84.5999 890.86 89.133 886.727 93C882.727 96.733 877.593 99.6669 871.327 101.8C865.193 103.8 858.06 104.8 849.927 104.8H835.727V141.6ZM935.538 143C929.804 143 925.271 141.333 921.938 138C918.604 134.667 916.938 130.133 916.938 124.4V20.9999C918.404 20.7332 920.738 20.3999 923.938 19.9999C927.138 19.4666 930.204 19.2 933.138 19.2C936.204 19.2 938.871 19.4666 941.138 19.9999C943.538 20.3999 945.538 21.1999 947.138 22.3999C948.738 23.5999 949.938 25.2666 950.738 27.3999C951.538 29.5332 951.938 32.3332 951.938 35.7999V114.8H997.74C998.67 116.267 999.54 118.267 1000.34 120.8C1001.14 123.2 1001.54 125.733 1001.54 128.4C1001.54 133.733 1000.4 137.533 998.14 139.8C995.87 141.933 992.87 143 989.14 143H935.538Z" fill="white"/>
</mask>
<g mask="url(#mask1_23_125)">
<g filter="url(#filter0_d_23_125)">
<path d="M1001 -34.6001H-1C-4.31371 -34.6001 -7 -31.9138 -7 -28.6001V59.3999C-7 62.7136 -4.31371 65.3999 -1 65.3999H1001C1004.31 65.3999 1007 62.7136 1007 59.3999V-28.6001C1007 -31.9138 1004.31 -34.6001 1001 -34.6001Z" fill="#2962FF"/>
</g>
</g>
<defs>
<filter id="filter0_d_23_125" x="-7" y="-34.6001" width="1022" height="108" filterUnits="userSpaceOnUse" color-interpolation-filters="sRGB">
<feFlood flood-opacity="0" result="BackgroundImageFix"/>
<feColorMatrix in="SourceAlpha" type="matrix" values="0 0 0 0 0 0 0 0 0 0 0 0 0 0 0 0 0 0 127 0" result="hardAlpha"/>
<feOffset dx="4" dy="4"/>
<feGaussianBlur stdDeviation="2"/>
<feComposite in2="hardAlpha" operator="out"/>
<feColorMatrix type="matrix" values="0 0 0 0 0.117647 0 0 0 0 0.117647 0 0 0 0 0.117647 0 0 0 0.5 0"/>
<feBlend mode="normal" in2="BackgroundImageFix" result="effect1_dropShadow_23_125"/>
<feBlend mode="normal" in="SourceGraphic" in2="effect1_dropShadow_23_125" result="shape"/>
</filter>
</defs>
</svg>
