<svg width="294" height="54" viewBox="0 0 294 54" fill="none" xmlns="http://www.w3.org/2000/svg">
<path d="M54.5625 30.2275L54.9287 28.2256C55.9867 22.2848 58.1676 17.9066 61.4717 15.0908C64.7757 12.2751 68.6413 10.8672 73.0684 10.8672C77.4954 10.8672 80.8727 12.2751 83.2002 15.0908C85.5277 17.9066 86.1624 22.2848 85.1045 28.2256L84.7383 30.2275C83.7129 36.1683 81.54 40.5465 78.2197 43.3623C74.8994 46.1781 71.0257 47.5859 66.5986 47.5859C62.1715 47.5859 58.8024 46.1781 56.4912 43.3623C54.18 40.5465 53.5371 36.1683 54.5625 30.2275ZM62.7656 32.1074C62.1797 35.4928 62.3343 37.9505 63.2295 39.4805C64.141 40.9941 65.6058 41.751 67.624 41.751C69.6585 41.751 71.3919 40.9941 72.8242 39.4805C74.2728 37.9505 75.2982 35.4928 75.9004 32.1074L76.9014 26.3945C77.5036 23.0091 77.349 20.5677 76.4375 19.0703C75.526 17.5566 74.0531 16.7998 72.0186 16.7998C70.0003 16.7998 68.2669 17.5566 66.8184 19.0703C65.3861 20.5677 64.377 23.0091 63.791 26.3945L62.7656 32.1074ZM87.3018 47L92.0381 20.0957C92.6077 16.8405 93.9912 14.391 96.1885 12.7471C98.3857 11.0869 101.071 10.2568 104.245 10.2568C104.912 10.2568 105.523 10.2975 106.076 10.3789C106.646 10.444 107.207 10.5417 107.761 10.6719L106.442 16.458C106.149 16.3929 105.832 16.3359 105.49 16.2871C105.148 16.2383 104.766 16.2139 104.343 16.2139C103.122 16.2139 102.113 16.5964 101.315 17.3613C100.534 18.11 99.9971 19.3145 99.7041 20.9746L98.9961 25.0273V25.3691L95.1875 47H87.3018ZM86.9355 29.1289L87.9609 23.3916H93.4297H94.0645H103.83L102.829 29.1289H86.9355ZM103.342 47L108.078 20.0957C108.648 16.8405 110.031 14.391 112.229 12.7471C114.426 11.0869 117.111 10.2568 120.285 10.2568C120.952 10.2568 121.563 10.2975 122.116 10.3789C122.686 10.444 123.247 10.5417 123.801 10.6719L122.482 16.458C122.189 16.3929 121.872 16.3359 121.53 16.2871C121.188 16.2383 120.806 16.2139 120.383 16.2139C119.162 16.2139 118.153 16.5964 117.355 17.3613C116.574 18.11 116.037 19.3145 115.744 20.9746L115.036 25.0273V25.3691L111.228 47H103.342ZM102.976 29.1289L104.001 23.3916H109.47H110.104H119.87L118.869 29.1289H102.976ZM118.405 39.4072L125.656 39.4805L125.559 39.9199C125.363 41.0267 125.591 41.8079 126.242 42.2637C126.893 42.7194 127.837 42.9473 129.074 42.9473C130.295 42.9473 131.231 42.7438 131.882 42.3369C132.549 41.93 132.948 41.3604 133.078 40.6279C133.225 39.8955 132.964 39.334 132.297 38.9434C131.63 38.5527 130.205 38.1377 128.024 37.6982C125.095 37.1286 123.052 36.2253 121.896 34.9883C120.757 33.735 120.358 32.0993 120.7 30.0811C121.091 27.7048 122.36 25.8737 124.509 24.5879C126.657 23.3021 129.424 22.6592 132.81 22.6592C136.13 22.6592 138.636 23.3265 140.329 24.6611C142.022 25.9958 142.648 27.8757 142.209 30.3008L142.136 30.7402H134.909L134.982 30.252C135.145 29.3079 134.958 28.6162 134.421 28.1768C133.884 27.721 133.005 27.4932 131.784 27.4932C130.694 27.4932 129.864 27.6722 129.294 28.0303C128.741 28.3721 128.399 28.8766 128.269 29.5439C128.155 30.1299 128.439 30.6263 129.123 31.0332C129.823 31.4401 131.247 31.8551 133.396 32.2783C136.423 32.8317 138.547 33.6943 139.768 34.8662C141.005 36.0218 141.436 37.625 141.062 39.6758C140.638 42.3125 139.336 44.2982 137.155 45.6328C134.974 46.9674 132.053 47.6348 128.391 47.6348C124.777 47.6348 122.1 46.9593 120.358 45.6084C118.633 44.2412 117.966 42.3044 118.356 39.7979L118.405 39.4072ZM143.796 47L147.946 23.3916H156.027L151.853 47H143.796ZM148.825 15.75C149.021 14.5944 149.574 13.626 150.485 12.8447C151.413 12.0472 152.609 11.6484 154.074 11.6484C155.539 11.6484 156.589 12.0391 157.224 12.8203C157.858 13.6016 158.07 14.5781 157.858 15.75C157.663 16.9056 157.093 17.8903 156.149 18.7041C155.222 19.5016 154.034 19.9004 152.585 19.9004C151.136 19.9004 150.095 19.5016 149.46 18.7041C148.825 17.8903 148.614 16.9056 148.825 15.75ZM157.639 35.5742L157.785 34.793C158.387 31.3099 159.82 28.4616 162.082 26.248C164.344 24.0182 166.981 22.9033 169.992 22.9033C171.685 22.9033 173.076 23.1882 174.167 23.7578C175.274 24.3112 176.071 25.0436 176.56 25.9551L179.245 10.7695H187.058L180.686 47H173.044L173.532 43.8506H173.483C172.67 44.876 171.579 45.7386 170.212 46.4385C168.861 47.1383 167.339 47.4883 165.646 47.4883C162.521 47.4883 160.251 46.3734 158.835 44.1436C157.419 41.8975 157.02 39.041 157.639 35.5742ZM165.695 35.6475C165.37 37.4867 165.484 38.9922 166.037 40.1641C166.607 41.3197 167.681 41.8975 169.26 41.8975C170.334 41.8975 171.294 41.5964 172.141 40.9941C173.003 40.3919 173.679 39.6839 174.167 38.8701L175.485 31.4238C175.29 30.61 174.875 29.9183 174.24 29.3486C173.605 28.779 172.735 28.4941 171.628 28.4941C170.049 28.4941 168.771 29.0801 167.795 30.252C166.818 31.4076 166.167 32.9131 165.842 34.7686L165.695 35.6475ZM186.35 35.5254L186.496 34.7441C187.131 31.082 188.799 28.1605 191.501 25.9795C194.203 23.7822 197.45 22.6836 201.242 22.6836C204.986 22.6836 207.704 23.7334 209.396 25.833C211.089 27.9163 211.61 30.7809 210.959 34.4268L210.642 36.7949H190.817L191.354 32.5469H203.464L203.513 32.2295C203.741 31.0902 203.586 30.138 203.049 29.373C202.528 28.6081 201.576 28.2256 200.192 28.2256C198.679 28.2256 197.434 28.779 196.457 29.8857C195.48 30.9762 194.813 32.3597 194.455 34.0361L194.235 35.6963C193.894 37.682 194.048 39.2363 194.699 40.3594C195.35 41.4661 196.49 42.0195 198.117 42.0195C199.289 42.0195 200.323 41.7591 201.218 41.2383C202.129 40.7174 202.886 40.0664 203.488 39.2852L209.445 41.6045C208.355 43.46 206.792 44.9329 204.758 46.0234C202.723 47.0977 200.209 47.6348 197.214 47.6348C193.112 47.6348 190.109 46.5443 188.205 44.3633C186.317 42.1823 185.699 39.2363 186.35 35.5254ZM212.546 47L218.82 11.4531H240.744L239.621 17.8984H225.9L224.362 26.6387H236.301L235.251 32.6445H223.288L220.773 47H212.546ZM237.888 47L244.162 11.4531H258.64C262.432 11.4531 265.142 12.5355 266.77 14.7002C268.413 16.8486 268.918 19.7458 268.283 23.3916C267.648 27.0374 266.143 29.9427 263.767 32.1074C261.407 34.2721 258.273 35.3545 254.367 35.3545H248.215L246.115 47H237.888ZM249.24 29.6172H253.83C255.767 29.6172 257.207 29.0475 258.151 27.9082C259.095 26.7526 259.722 25.2878 260.031 23.5137C260.34 21.7559 260.21 20.3154 259.641 19.1924C259.087 18.0531 257.85 17.4834 255.93 17.4834H251.315L249.24 29.6172ZM267.673 47L273.947 11.4531H282.175L277.023 40.5547H291.11L289.963 47H267.673Z" fill="#2962FF"/>
<mask id="mask0_10_2" style="mask-type:alpha" maskUnits="userSpaceOnUse" x="0" y="13" width="54" height="33">
<path d="M30.5 13H53.2405L47.4171 46H0L30.5 13Z" fill="#D9D9D9"/>
</mask>
<g mask="url(#mask0_10_2)">
<rect x="-46" y="14" width="107" height="7" fill="#2962FF"/>
<rect x="-46" y="38" width="107" height="7" fill="#2962FF"/>
<rect x="-46" y="26" width="107" height="7" fill="#2962FF"/>
</g>
</svg>
