<svg width="351" height="222" viewBox="0 0 351 222" fill="none" xmlns="http://www.w3.org/2000/svg">
<rect width="351" height="222" fill="url(#paint0_linear_106_412)"/>
<path d="M142.17 159.42C142.567 159.187 143.162 158.965 143.955 158.755C144.772 158.545 145.588 158.44 146.405 158.44C147.572 158.44 148.598 158.615 149.485 158.965C150.395 159.292 150.978 159.817 151.235 160.54C151.655 161.753 152.11 163.165 152.6 164.775C153.09 166.385 153.58 168.053 154.07 169.78C154.56 171.483 155.038 173.175 155.505 174.855C155.972 176.512 156.38 177.982 156.73 179.265C156.45 179.592 156.03 179.848 155.47 180.035C154.91 180.245 154.245 180.35 153.475 180.35C152.915 180.35 152.437 180.303 152.04 180.21C151.667 180.117 151.352 179.977 151.095 179.79C150.862 179.603 150.663 179.358 150.5 179.055C150.36 178.752 150.232 178.402 150.115 178.005L149.485 175.59H143.15C142.963 176.29 142.777 177.013 142.59 177.76C142.403 178.507 142.217 179.23 142.03 179.93C141.703 180.047 141.353 180.14 140.98 180.21C140.63 180.303 140.198 180.35 139.685 180.35C138.495 180.35 137.608 180.152 137.025 179.755C136.465 179.335 136.185 178.763 136.185 178.04C136.185 177.713 136.232 177.387 136.325 177.06C136.418 176.733 136.523 176.348 136.64 175.905C136.803 175.275 137.025 174.493 137.305 173.56C137.608 172.627 137.935 171.623 138.285 170.55C138.635 169.453 139.008 168.333 139.405 167.19C139.802 166.047 140.175 164.973 140.525 163.97C140.875 162.943 141.19 162.033 141.47 161.24C141.773 160.447 142.007 159.84 142.17 159.42ZM146.37 163.935C146.043 164.915 145.67 166.012 145.25 167.225C144.853 168.415 144.492 169.628 144.165 170.865H148.505C148.178 169.605 147.84 168.38 147.49 167.19C147.163 165.977 146.86 164.892 146.58 163.935H146.37ZM169.923 169.22C169.923 168.497 169.713 167.972 169.293 167.645C168.897 167.295 168.348 167.12 167.648 167.12C167.182 167.12 166.715 167.178 166.248 167.295C165.805 167.412 165.42 167.587 165.093 167.82V179.965C164.86 180.035 164.487 180.105 163.973 180.175C163.483 180.245 162.97 180.28 162.433 180.28C161.92 180.28 161.453 180.245 161.033 180.175C160.637 180.105 160.298 179.965 160.018 179.755C159.738 179.545 159.517 179.265 159.353 178.915C159.213 178.542 159.143 178.063 159.143 177.48V166.98C159.143 166.35 159.272 165.837 159.528 165.44C159.808 165.043 160.182 164.682 160.648 164.355C161.442 163.795 162.433 163.34 163.623 162.99C164.837 162.64 166.178 162.465 167.648 162.465C170.285 162.465 172.315 163.048 173.738 164.215C175.162 165.358 175.873 166.957 175.873 169.01V179.965C175.64 180.035 175.267 180.105 174.753 180.175C174.263 180.245 173.75 180.28 173.213 180.28C172.7 180.28 172.233 180.245 171.813 180.175C171.417 180.105 171.078 179.965 170.798 179.755C170.518 179.545 170.297 179.265 170.133 178.915C169.993 178.542 169.923 178.063 169.923 177.48V169.22ZM185.499 174.155C185.499 174.762 185.685 175.193 186.059 175.45C186.455 175.707 187.004 175.835 187.704 175.835C188.054 175.835 188.415 175.812 188.789 175.765C189.162 175.695 189.489 175.613 189.769 175.52C189.979 175.777 190.154 176.068 190.294 176.395C190.457 176.698 190.539 177.072 190.539 177.515C190.539 178.402 190.2 179.125 189.524 179.685C188.87 180.245 187.704 180.525 186.024 180.525C183.97 180.525 182.384 180.058 181.264 179.125C180.167 178.192 179.619 176.675 179.619 174.575V159.595C179.875 159.525 180.237 159.455 180.704 159.385C181.194 159.292 181.707 159.245 182.244 159.245C183.27 159.245 184.064 159.432 184.624 159.805C185.207 160.155 185.499 160.913 185.499 162.08V164.32H190.084C190.224 164.577 190.352 164.903 190.469 165.3C190.609 165.673 190.679 166.093 190.679 166.56C190.679 167.377 190.492 167.972 190.119 168.345C189.769 168.695 189.29 168.87 188.684 168.87H185.499V174.155ZM193.422 158.265C193.422 157.378 193.714 156.632 194.297 156.025C194.904 155.418 195.697 155.115 196.677 155.115C197.657 155.115 198.439 155.418 199.022 156.025C199.629 156.632 199.932 157.378 199.932 158.265C199.932 159.152 199.629 159.898 199.022 160.505C198.439 161.112 197.657 161.415 196.677 161.415C195.697 161.415 194.904 161.112 194.297 160.505C193.714 159.898 193.422 159.152 193.422 158.265ZM199.652 179.965C199.396 180.012 199.011 180.07 198.497 180.14C198.007 180.233 197.506 180.28 196.992 180.28C196.479 180.28 196.012 180.245 195.592 180.175C195.196 180.105 194.857 179.965 194.577 179.755C194.297 179.545 194.076 179.265 193.912 178.915C193.772 178.542 193.702 178.063 193.702 177.48V163.235C193.959 163.188 194.332 163.13 194.822 163.06C195.336 162.967 195.849 162.92 196.362 162.92C196.876 162.92 197.331 162.955 197.727 163.025C198.147 163.095 198.497 163.235 198.777 163.445C199.057 163.655 199.267 163.947 199.407 164.32C199.571 164.67 199.652 165.137 199.652 165.72V179.965Z" fill="white"/>
<path d="M226.355 161.647C226.46 161.933 226.523 162.304 226.543 162.762C226.591 163.203 226.566 163.651 226.467 164.107C226.275 164.996 225.943 165.593 225.472 165.897C225.028 166.183 224.487 166.257 223.848 166.118L216.664 164.565L215.828 168.43L223.32 170.051C223.448 170.341 223.525 170.704 223.55 171.139C223.598 171.579 223.573 172.027 223.474 172.483C223.287 173.35 222.957 173.935 222.485 174.239C222.042 174.525 221.5 174.599 220.862 174.461L214.875 173.166L213.314 180.384C213.048 180.398 212.635 180.38 212.072 180.33C211.533 180.285 211.001 180.206 210.477 180.093C209.952 179.979 209.494 179.832 209.104 179.652C208.731 179.5 208.43 179.292 208.2 179.027C207.971 178.763 207.827 178.433 207.77 178.039C207.712 177.644 207.747 177.151 207.875 176.558L211.094 161.677C211.306 160.696 211.759 159.982 212.452 159.536C213.146 159.089 213.983 158.971 214.963 159.183L226.355 161.647ZM235.642 173.718C236.599 173.926 237.376 173.867 237.972 173.542C238.595 173.199 239.005 172.572 239.202 171.66C239.39 170.793 239.259 170.072 238.81 169.498C238.389 168.906 237.666 168.498 236.64 168.276C236.275 168.197 235.964 168.142 235.709 168.111C235.481 168.062 235.236 168.033 234.975 168.024L233.829 173.326L235.642 173.718ZM231.488 184.315C231.222 184.329 230.808 184.311 230.246 184.261C229.707 184.216 229.175 184.137 228.65 184.023C228.126 183.91 227.668 183.763 227.277 183.583C226.904 183.431 226.603 183.222 226.374 182.958C226.145 182.694 226.001 182.364 225.943 181.97C225.885 181.575 225.92 181.081 226.049 180.488L229.534 164.376C229.637 163.897 229.842 163.559 230.147 163.363C230.479 163.148 230.891 163.011 231.382 162.95C232.217 162.844 233.136 162.84 234.142 162.938C235.175 163.018 236.193 163.167 237.197 163.384C240.344 164.064 242.604 165.257 243.978 166.963C245.352 168.669 245.79 170.673 245.292 172.977C245.05 174.094 244.648 175.07 244.086 175.903C243.551 176.718 242.859 177.38 242.009 177.889C241.187 178.379 240.2 178.691 239.049 178.824C237.926 178.939 236.669 178.847 235.278 178.546L232.849 178.02L231.488 184.315ZM248.508 188.247C247.527 188.035 246.814 187.582 246.367 186.888C245.92 186.195 245.803 185.358 246.015 184.377L249.84 166.691C250.101 166.7 250.512 166.729 251.074 166.779C251.641 166.806 252.176 166.874 252.678 166.983C253.202 167.096 253.648 167.24 254.016 167.415C254.412 167.573 254.724 167.783 254.954 168.048C255.183 168.312 255.327 168.642 255.385 169.036C255.442 169.431 255.407 169.925 255.279 170.517L252.356 184.03L260.19 185.724C260.296 186.01 260.37 186.384 260.413 186.847C260.461 187.287 260.436 187.735 260.337 188.191C260.14 189.103 259.805 189.711 259.334 190.015C258.867 190.296 258.315 190.368 257.676 190.23L248.508 188.247Z" fill="white"/>
<path d="M186.5 149C159.798 149 138 127.218 138 100.463C137.927 73.6401 159.798 52 186.784 52C213.27 52 235 73.8552 235 100.537C235 127.218 213.27 148.927 186.5 149ZM208.582 142.825C209.007 142.61 209.291 142.542 209.506 142.4C213.837 139.704 217.743 136.509 221.009 132.606C226.978 125.582 230.453 117.424 231.236 108.201C231.803 101.817 231.734 95.3588 230.028 89.116C222.358 60.5931 190.406 47.0372 164.555 61.3013C164.271 61.4429 164.056 61.5846 163.631 61.7997C163.914 60.4514 164.198 59.3183 164.481 58.0382C163.983 58.2533 163.773 58.3215 163.489 58.4632C155.961 63.1479 149.997 69.3173 146.091 77.3386C140.909 87.9829 140.195 99.1937 142.61 110.478C148.931 139.641 181.807 154.403 208.01 140.066C208.367 139.851 208.792 139.641 209.359 139.358C209.081 140.627 208.865 141.619 208.582 142.825Z" fill="#3B2050"/>
<path d="M208.1 142.273C208.382 141.08 208.597 140.1 208.879 138.834C208.314 139.114 207.89 139.327 207.535 139.535C181.42 153.705 148.724 139.042 142.356 110.281C139.881 99.0563 140.656 87.972 145.825 77.5153C149.718 69.5898 155.662 63.5522 163.165 58.853C163.379 58.7129 163.662 58.6403 164.154 58.4328C163.871 59.7658 163.589 60.8188 163.306 62.1518C163.73 61.9391 164.013 61.7991 164.227 61.659C189.986 47.556 221.834 60.9588 229.479 89.1598C231.179 95.4048 231.247 101.717 230.682 108.03C229.903 117.148 226.507 125.219 220.49 132.164C217.235 136.023 213.342 139.182 209.026 141.848C208.806 141.993 208.523 142.066 208.1 142.273Z" fill="white"/>
<path d="M176.557 74.2131C176.914 75.4197 177.197 76.4113 177.407 77.2664C179.822 76.2749 182.022 75.1364 184.369 74.4282C188.632 73.1533 192.821 73.4366 196.869 75.2781C197.719 75.6348 197.935 76.128 197.793 77.0513C196.942 81.1697 196.585 85.2094 197.651 89.3278C197.725 89.5429 197.793 89.8262 197.866 90.0361C197.866 90.1095 198.008 90.1777 198.15 90.461C200.281 87.3394 202.555 84.4277 205.605 82.0144C208.02 87.266 208.02 92.6592 207.311 98.3358C208.802 97.9108 210.152 97.4859 211.716 97.0609C211.149 102.029 209.301 106.216 206.393 110.187C207.317 110.402 208.099 110.544 209.018 110.686C207.17 114.447 204.613 117.495 201.137 120.124C201.704 117.427 201.562 115.156 199.221 113.524C199.436 114.306 199.646 115.087 199.788 115.937C199.861 116.577 199.861 117.212 199.788 117.784C199.363 120.056 197.73 120.979 195.525 120.339C195.1 120.197 194.674 120.056 194.102 119.772C194.743 121.336 195.808 121.971 197.084 122.542C197.084 122.684 197.084 122.758 197.158 122.899C195.1 123.539 193.11 124.321 190.978 124.814C189.13 125.239 187.146 125.239 185.224 125.454C183.376 125.669 181.959 124.956 180.751 123.607C180.326 123.182 179.901 122.758 179.402 122.333C179.329 122.406 179.187 122.406 179.119 122.474C179.26 123.182 179.402 123.823 179.544 124.604C179.329 124.604 179.119 124.604 178.903 124.531C176.704 123.891 174.572 123.041 172.798 121.551C172.514 121.336 172.089 121.052 172.015 120.701C171.59 119.279 171.233 117.789 170.808 116.441C172.866 117.863 174.997 119.353 177.271 120.911C177.628 119.846 177.838 119.064 178.121 118.214C179.754 119.206 181.177 120.129 182.668 120.911C183.235 121.194 184.017 121.336 184.657 121.194C187.141 120.769 189.487 119.846 191.619 118.073C191.262 117.789 190.91 117.574 190.343 117.149C191.908 116.367 193.257 115.659 194.317 114.096C192.469 114.379 192.259 113.172 191.692 112.107C190.768 110.261 189.136 109.337 187.078 109.269C184.594 109.196 182.106 109.269 179.549 109.269C180.258 110.051 181.114 110.833 181.891 111.682C182.741 112.674 183.807 113.031 185.088 112.889C186.862 112.748 188.569 113.172 189.986 114.311C187.996 116.651 186.154 116.724 182.174 114.594C181.534 114.951 180.898 115.234 180.258 115.586C180.184 115.371 180.116 115.302 180.116 115.302C180.967 113.529 180.967 113.529 179.549 112.107C178.699 111.258 177.916 110.334 177.134 109.484C176.068 109.699 175.003 109.983 173.937 109.983C172.871 110.056 171.805 109.841 170.598 109.768C172.162 111.473 173.722 113.031 175.286 114.662C175.213 114.804 175.071 114.946 175.003 115.087C174.436 114.731 173.869 114.447 173.228 114.096C172.519 114.237 172.094 115.659 171.096 114.662C170.388 113.954 170.456 113.241 171.17 112.323C170.603 111.682 169.962 111.116 169.322 110.334C169.18 110.833 169.107 111.042 168.965 111.326H168.75C163.636 104.086 162.145 96.2792 165.059 87.5545C165.768 88.3362 166.408 88.9763 167.19 89.7528C167.689 86.4161 168.54 83.5096 170.172 80.8812C171.726 78.1846 173.858 75.9863 176.557 74.2131ZM184.442 103.378C183.592 101.746 182.736 100.256 182.027 98.766C181.67 97.9843 181.177 97.8426 180.463 98.0577C177.979 98.6978 176.058 100.256 174.073 101.819C174 101.893 173.858 102.034 173.858 102.176C173.858 103.241 173.716 104.306 173.932 105.298C174.005 105.723 174.924 105.938 175.423 106.289C175.78 106.504 176.063 106.788 176.415 106.856C176.914 106.998 177.481 107.213 177.979 107.071C180.394 106.357 182.379 104.936 184.442 103.378ZM179.964 94.8627C179.68 94.2226 179.182 93.4409 178.83 92.591C178.546 91.951 178.189 91.8093 177.622 92.0926C176.557 92.6592 175.491 93.1576 174.283 93.7242L173.858 90.3194C173.716 90.3194 173.575 90.3194 173.501 90.3928C171.868 91.6677 170.802 93.3727 170.661 95.3611C170.587 96.2845 171.228 97.6328 172.01 98.1312C172.651 98.5561 174.068 98.3463 174.85 97.9161C176.557 97.2026 178.189 95.9959 179.964 94.8627ZM169.385 107.066C170.167 106.567 170.734 106.142 171.375 105.717C171.59 105.576 171.8 105.292 171.8 105.077C172.441 102.307 170.808 100.534 169.101 98.6191C167.962 101.463 168.319 104.227 169.385 107.066Z" fill="#3B2050"/>
<path d="M180.888 135.165C180.746 133.035 180.604 131.194 180.389 129.132C179.182 130.48 178.189 131.545 177.124 132.678L176.908 132.463C177.334 130.407 177.832 128.277 178.331 126.147C185.434 127.92 192.249 127.138 198.78 123.665C199.704 125.722 200.696 127.637 201.762 129.982C200.271 129.058 198.99 128.209 197.499 127.285C197.782 129.274 198.066 131.115 198.423 133.177C196.15 131.613 194.16 130.265 192.034 128.775C191.325 130.905 190.611 132.893 189.834 135.16C188.558 133.172 187.419 131.398 186.211 129.41C184.369 131.335 182.736 133.109 180.888 135.165ZM224.705 87.3394C224.846 87.7644 224.988 88.0477 225.13 88.4044C223.781 88.971 222.505 89.4695 221.082 90.0361C220.657 88.9028 220.232 87.7644 219.733 86.4895C219.518 86.0646 219.092 85.498 219.024 84.8579C218.951 83.9346 219.806 83.6512 220.515 83.3679C221.224 83.0846 221.864 82.8013 222.647 82.518C222.788 82.8748 222.93 83.1581 223.145 83.583C222.363 83.9398 221.581 84.1497 220.872 84.5746C220.589 84.7163 220.447 85.2147 220.305 85.498C220.662 85.6396 221.087 85.9229 221.439 85.8547C222.148 85.7131 222.862 85.3563 223.712 85.0048C223.854 85.2881 223.996 85.6449 224.211 85.9964C223.429 86.3531 222.647 86.563 222.011 86.9879C221.728 87.203 221.586 87.628 221.444 87.9795C221.801 88.0529 222.227 88.3362 222.578 88.2628C223.14 87.9795 223.849 87.6227 224.705 87.3394ZM209.438 75.9863C209.081 75.703 208.797 75.4879 208.445 75.2046C209.579 73.7829 210.645 72.4345 211.853 70.9446C211.144 70.378 210.503 69.8114 209.721 69.1713C209.936 68.888 210.146 68.6047 210.43 68.248L213.627 70.8029C212.204 72.508 210.855 74.2131 209.438 75.9863ZM190.474 64.9847C189.624 65.1264 189.267 64.8431 189.482 64.0614L189.697 62.5714C189.913 61.2966 190.831 60.5148 192.039 60.7247C193.315 60.8664 194.029 61.7163 193.955 63.0646C193.882 63.8463 193.74 64.628 193.672 65.5461C193.246 65.4726 192.963 65.4044 192.538 65.331C192.679 64.5493 192.821 63.7676 192.821 63.0593C192.821 62.6344 192.464 62.0678 192.112 61.9261C191.545 61.6428 191.12 62.1412 190.978 62.7078C190.758 63.4266 190.616 64.203 190.474 64.9847ZM223.072 95.0043C223.712 97.3442 225.345 95.7861 226.621 96.211C226.621 96.4261 226.694 96.7776 226.763 97.2026C225.272 97.3442 223.849 97.5593 222.5 97.701C222.358 96.7776 222.284 96.0694 222.216 95.2195C222.431 95.146 222.715 95.146 223.072 95.0043ZM217.176 74.4964C217.391 74.7115 217.533 74.9948 217.817 75.2781L214.619 78.0481C214.052 77.4081 213.485 76.7733 212.845 76.0598C212.987 75.9181 213.27 75.703 213.485 75.4932C215.328 77.1195 215.9 74.8479 217.176 74.4964ZM221.439 80.4562C221.654 80.813 221.796 81.0963 222.006 81.4478C220.73 82.156 219.523 82.8695 218.174 83.5778C217.958 83.221 217.817 82.9377 217.533 82.5862C218.882 81.8727 220.158 81.2379 221.439 80.4562ZM216.677 84.8579C216.32 84.3595 215.969 84.0762 216.037 83.7929C216.11 83.5096 216.462 83.2945 216.677 83.0846C216.893 83.2997 217.318 83.583 217.386 83.7929C217.46 84.0762 217.034 84.3595 216.677 84.8579Z" fill="#3B2050"/>
<path d="M184 103.446C182.079 104.953 180.222 106.318 177.968 106.934C177.503 107.071 176.973 106.864 176.508 106.727C176.175 106.591 175.91 106.383 175.582 106.181C175.116 105.908 174.254 105.635 174.19 105.226C173.989 104.27 174.122 103.244 174.122 102.218C174.122 102.081 174.254 101.945 174.323 101.874C176.111 100.367 177.9 98.866 180.286 98.2493C181.016 98.042 181.413 98.2493 181.746 98.9318C182.408 100.438 183.201 101.874 184 103.446ZM179.82 95.2414C178.164 96.3333 176.64 97.4303 175.048 98.3201C174.254 98.7295 172.995 98.9368 172.397 98.5273C171.667 98.0471 171.069 96.7479 171.138 95.8581C171.27 93.9422 172.265 92.3043 173.788 91.0708C173.857 91 173.989 91 174.122 91L174.519 94.2809C175.646 93.7349 176.64 93.1889 177.635 92.7087C178.164 92.4357 178.497 92.5722 178.762 93.1889C179.095 93.8714 179.492 94.6904 179.82 95.2414ZM169.947 107C168.952 104.265 168.555 101.667 169.682 98.7953C171.275 100.64 172.799 102.42 172.201 105.018C172.132 105.226 171.936 105.499 171.804 105.635C171.275 106.11 170.677 106.454 169.947 107Z" fill="white"/>
<path d="M195.523 66.1441C196.386 66.8502 197.254 66.8502 198.186 66.2853C199.049 65.7885 199.411 64.6588 199.123 63.5971C198.836 62.6766 198.042 62.1118 196.961 62.1118H196.386C196.961 60.9089 197.68 60.9089 199.267 62.1118C199.485 61.8974 199.698 61.7561 199.986 61.4737C198.617 59.6328 196.168 59.4916 195.449 61.1913C194.799 62.6766 194.512 64.2352 194.006 65.7885C194.586 65.9349 195.161 65.8617 195.523 66.1441ZM195.38 64.094C195.886 63.8115 196.317 63.3147 196.823 63.2467C197.542 63.1735 197.973 63.7435 197.904 64.4496C197.829 65.1556 197.398 65.6525 196.754 65.5113C196.248 65.3701 195.816 64.8732 195.385 64.5908V64.094H195.38ZM220.301 103H227V101.87C226.281 101.87 225.557 101.797 224.838 101.797C224.838 101.3 224.838 100.877 224.763 100.526C224.62 99.3233 223.757 98.544 222.532 98.544C221.382 98.544 220.445 99.2501 220.301 100.385C220.227 101.232 220.301 102.08 220.301 103ZM221.957 100.029C222.101 99.8881 222.894 99.8149 222.964 100.029C223.326 100.453 223.469 101.091 223.757 101.797H221.307C221.595 101.091 221.67 100.453 221.957 100.029ZM200.561 67.9119C201.28 68.5499 202.073 68.6911 202.936 68.4087C203.873 68.0531 204.379 67.279 204.448 66.2853C204.448 65.4381 204.086 64.5856 203.224 64.2352C202.43 63.8795 201.637 63.6703 200.705 63.3879C200.13 64.5908 199.555 65.8617 198.974 67.1378C199.555 67.4882 200.13 67.5615 200.561 67.9119ZM201.93 65.1556C202.361 65.1556 203.011 65.7205 203.08 66.1441C203.224 66.7822 202.718 67.415 201.999 67.347C201.493 67.2738 201.062 66.8502 200.556 66.5678V66.0709C201.067 65.7205 201.498 65.1556 201.93 65.1556ZM205.029 67.279C204.166 68.3407 204.166 69.4024 204.954 70.2497C205.748 71.0969 207.116 71.2382 208.053 70.5321C208.991 69.8261 209.278 68.4819 208.703 67.5615C208.053 66.573 206.829 66.0761 205.535 66.7142C205.966 66.9966 206.253 67.279 206.616 67.4202C207.334 67.6347 207.91 67.9851 207.766 68.9788C206.829 68.2675 205.966 67.7707 205.029 67.279ZM205.46 68.4767C206.179 68.9003 206.685 69.256 207.26 69.6064C206.184 70.1085 205.678 69.8208 205.46 68.4767ZM185.512 61.8294C186.306 61.4057 186.806 61.6882 187.168 62.5354H184C184 64.094 184.575 64.9412 185.8 65.1504C186.806 65.3649 187.887 64.7948 188.319 63.8063C188.75 62.7446 188.393 61.5417 187.525 60.9037C186.588 60.2656 185.219 60.48 184.357 61.3273C184.644 61.9706 184.932 62.1118 185.512 61.8294ZM185.219 63.4559H187.163C186.519 64.4444 186.087 64.4444 185.219 63.4559ZM215.833 80.1501C216.339 81.2118 217.42 81.7086 218.57 81.421C219.651 81.1386 220.445 80.1501 220.301 79.0152C220.227 77.8855 219.364 76.965 217.782 76.8918C218.07 77.3886 218.144 77.7391 218.432 77.9535C219.225 78.5915 219.369 78.942 218.863 79.7944C218.214 78.9472 217.639 78.1679 216.989 77.3207C215.69 78.0999 215.327 79.0884 215.833 80.1501ZM217.127 78.806C217.489 79.3028 217.777 79.7945 218.134 80.2233C218.059 80.2965 217.99 80.3645 217.915 80.5057C217.553 80.2913 217.122 80.1501 216.909 79.8677C216.691 79.5852 216.765 79.1616 216.691 78.806H217.127ZM221.526 92.3883C221.6 93.45 222.319 94.2973 223.4 94.5117C224.55 94.7261 225.631 94.1561 226.063 93.2408C226.569 92.1111 226.137 90.9082 224.913 90.1289C224.769 90.3434 224.55 90.6258 224.407 90.835C224.982 91.6143 225.557 92.3203 224.55 93.2408C224.263 92.1111 223.975 91.1906 223.688 90.1289C222.101 90.4794 221.451 91.1854 221.526 92.3883ZM223.182 91.4678C223.326 92.1739 223.469 92.7387 223.613 93.45C222.388 92.8852 222.314 92.3203 223.182 91.4678Z" fill="#3B2050"/>
<defs>
<linearGradient id="paint0_linear_106_412" x1="0" y1="222" x2="351" y2="5" gradientUnits="userSpaceOnUse">
<stop stop-color="#FE0B40"/>
<stop offset="1" stop-color="#2962FF"/>
</linearGradient>
</defs>
</svg>
