<svg width="1022" height="315" viewBox="0 0 1022 315" fill="none" xmlns="http://www.w3.org/2000/svg">
<path d="M159.425 112.8C159.425 106 160.558 100.2 162.825 95.4C165.225 90.4667 168.425 86.4667 172.425 83.4C176.425 80.2 181.092 77.8667 186.425 76.4C191.892 74.9333 197.692 74.2 203.825 74.2C213.692 74.2 220.958 75.5333 225.625 78.2C230.292 80.7333 232.625 85.1333 232.625 91.4C232.625 94.0667 232.025 96.4667 230.825 98.6C229.758 100.733 228.558 102.333 227.225 103.4C224.692 102.733 222.025 102.2 219.225 101.8C216.558 101.267 213.425 101 209.825 101C204.092 101 199.625 102 196.425 104C193.225 105.867 191.625 109.2 191.625 114V120.4H224.425C225.225 121.867 225.958 123.733 226.625 126C227.425 128.133 227.825 130.533 227.825 133.2C227.825 137.867 226.758 141.267 224.625 143.4C222.625 145.4 219.892 146.4 216.425 146.4H193.425V209.8C192.092 210.2 189.958 210.6 187.025 211C184.225 211.4 181.292 211.6 178.225 211.6C175.292 211.6 172.625 211.4 170.225 211C167.958 210.6 166.025 209.8 164.425 208.6C162.825 207.4 161.558 205.8 160.625 203.8C159.825 201.667 159.425 198.933 159.425 195.6V112.8ZM242.433 112.8C242.433 106 243.566 100.2 245.833 95.4C248.233 90.4667 251.433 86.4667 255.433 83.4C259.433 80.2 264.099 77.8667 269.433 76.4C274.899 74.9333 280.699 74.2 286.833 74.2C296.699 74.2 303.966 75.5333 308.633 78.2C313.299 80.7333 315.633 85.1333 315.633 91.4C315.633 94.0667 315.033 96.4667 313.833 98.6C312.766 100.733 311.566 102.333 310.233 103.4C307.699 102.733 305.033 102.2 302.233 101.8C299.566 101.267 296.433 101 292.833 101C287.099 101 282.633 102 279.433 104C276.233 105.867 274.633 109.2 274.633 114V120.4H307.433C308.233 121.867 308.966 123.733 309.633 126C310.433 128.133 310.833 130.533 310.833 133.2C310.833 137.867 309.766 141.267 307.633 143.4C305.633 145.4 302.899 146.4 299.433 146.4H276.433V209.8C275.099 210.2 272.966 210.6 270.033 211C267.233 211.4 264.299 211.6 261.233 211.6C258.299 211.6 255.633 211.4 253.233 211C250.966 210.6 249.033 209.8 247.433 208.6C245.833 207.4 244.566 205.8 243.633 203.8C242.833 201.667 242.433 198.933 242.433 195.6V112.8ZM407.041 181C407.041 191.133 403.241 199.067 395.641 204.8C388.041 210.533 376.841 213.4 362.041 213.4C356.441 213.4 351.241 213 346.441 212.2C341.641 211.4 337.507 210.2 334.041 208.6C330.707 206.867 328.041 204.733 326.041 202.2C324.174 199.667 323.241 196.667 323.241 193.2C323.241 190 323.907 187.333 325.241 185.2C326.574 182.933 328.174 181.067 330.041 179.6C333.907 181.733 338.307 183.667 343.241 185.4C348.307 187 354.107 187.8 360.641 187.8C364.774 187.8 367.907 187.2 370.041 186C372.307 184.8 373.441 183.2 373.441 181.2C373.441 179.333 372.641 177.867 371.041 176.8C369.441 175.733 366.774 174.867 363.041 174.2L357.041 173C345.441 170.733 336.774 167.2 331.041 162.4C325.441 157.467 322.641 150.467 322.641 141.4C322.641 136.467 323.707 132 325.841 128C327.974 124 330.974 120.667 334.841 118C338.707 115.333 343.307 113.267 348.641 111.8C354.107 110.333 360.107 109.6 366.641 109.6C371.574 109.6 376.174 110 380.441 110.8C384.841 111.467 388.641 112.533 391.841 114C395.041 115.467 397.574 117.4 399.441 119.8C401.307 122.067 402.241 124.8 402.241 128C402.241 131.067 401.641 133.733 400.441 136C399.374 138.133 397.974 139.933 396.241 141.4C395.174 140.733 393.574 140.067 391.441 139.4C389.307 138.6 386.974 137.933 384.441 137.4C381.907 136.733 379.307 136.2 376.641 135.8C374.107 135.4 371.774 135.2 369.641 135.2C365.241 135.2 361.841 135.733 359.441 136.8C357.041 137.733 355.841 139.267 355.841 141.4C355.841 142.867 356.507 144.067 357.841 145C359.174 145.933 361.707 146.8 365.441 147.6L371.641 149C384.441 151.933 393.507 156 398.841 161.2C404.307 166.267 407.041 172.867 407.041 181ZM422.678 85.8C422.678 80.7333 424.345 76.4667 427.678 73C431.145 69.5333 435.678 67.8 441.278 67.8C446.878 67.8 451.345 69.5333 454.678 73C458.145 76.4667 459.878 80.7333 459.878 85.8C459.878 90.8667 458.145 95.1333 454.678 98.6C451.345 102.067 446.878 103.8 441.278 103.8C435.678 103.8 431.145 102.067 427.678 98.6C424.345 95.1333 422.678 90.8667 422.678 85.8ZM458.278 209.8C456.811 210.067 454.611 210.4 451.678 210.8C448.878 211.333 446.011 211.6 443.078 211.6C440.145 211.6 437.478 211.4 435.078 211C432.811 210.6 430.878 209.8 429.278 208.6C427.678 207.4 426.411 205.8 425.478 203.8C424.678 201.667 424.278 198.933 424.278 195.6V114.2C425.745 113.933 427.878 113.6 430.678 113.2C433.611 112.667 436.545 112.4 439.478 112.4C442.411 112.4 445.011 112.6 447.278 113C449.678 113.4 451.678 114.2 453.278 115.4C454.878 116.6 456.078 118.267 456.878 120.4C457.811 122.4 458.278 125.067 458.278 128.4V209.8ZM475.723 161.4C475.723 152.6 477.057 145 479.723 138.6C482.39 132.067 486.057 126.667 490.723 122.4C495.523 118.133 501.057 115 507.323 113C513.723 110.867 520.59 109.8 527.923 109.8C530.59 109.8 533.19 110.067 535.723 110.6C538.257 111 540.323 111.533 541.923 112.2V79.8C543.257 79.4 545.39 79 548.323 78.6C551.257 78.0667 554.257 77.8 557.323 77.8C560.257 77.8 562.857 78 565.123 78.4C567.523 78.8 569.523 79.6 571.123 80.8C572.723 82 573.923 83.6667 574.723 85.8C575.523 87.8 575.923 90.4667 575.923 93.8V188.6C575.923 194.867 572.99 199.867 567.123 203.6C563.257 206.133 558.257 208.333 552.123 210.2C545.99 212.2 538.923 213.2 530.923 213.2C522.257 213.2 514.457 212 507.523 209.6C500.723 207.2 494.923 203.733 490.123 199.2C485.457 194.667 481.857 189.267 479.323 183C476.923 176.6 475.723 169.4 475.723 161.4ZM532.523 136.4C525.323 136.4 519.79 138.467 515.923 142.6C512.057 146.733 510.123 153 510.123 161.4C510.123 169.667 511.923 175.933 515.523 180.2C519.123 184.333 524.323 186.4 531.123 186.4C533.523 186.4 535.657 186.067 537.523 185.4C539.523 184.6 541.057 183.733 542.123 182.8V138.8C539.457 137.2 536.257 136.4 532.523 136.4ZM648.511 213.2C640.644 213.2 633.311 212.133 626.511 210C619.844 207.733 613.978 204.4 608.911 200C603.978 195.6 600.044 190.067 597.111 183.4C594.311 176.733 592.911 168.933 592.911 160C592.911 151.2 594.311 143.667 597.111 137.4C600.044 131 603.844 125.8 608.511 121.8C613.178 117.667 618.511 114.667 624.511 112.8C630.511 110.8 636.644 109.8 642.911 109.8C649.978 109.8 656.378 110.867 662.111 113C667.978 115.133 672.978 118.067 677.111 121.8C681.378 125.533 684.644 130 686.911 135.2C689.311 140.4 690.511 146.067 690.511 152.2C690.511 156.733 689.244 160.2 686.711 162.6C684.178 165 680.644 166.533 676.111 167.2L626.711 174.6C628.178 179 631.178 182.333 635.711 184.6C640.244 186.733 645.444 187.8 651.311 187.8C656.778 187.8 661.911 187.133 666.711 185.8C671.644 184.333 675.644 182.667 678.711 180.8C680.844 182.133 682.644 184 684.111 186.4C685.578 188.8 686.311 191.333 686.311 194C686.311 200 683.511 204.467 677.911 207.4C673.644 209.667 668.844 211.2 663.511 212C658.178 212.8 653.178 213.2 648.511 213.2ZM642.911 134.6C639.711 134.6 636.911 135.133 634.511 136.2C632.244 137.267 630.378 138.667 628.911 140.4C627.444 142 626.311 143.867 625.511 146C624.844 148 624.444 150.067 624.311 152.2L658.511 146.6C658.111 143.933 656.644 141.267 654.111 138.6C651.578 135.933 647.844 134.6 642.911 134.6ZM794.677 88.8C795.61 90.2667 796.41 92.2667 797.077 94.8C797.877 97.2 798.277 99.7333 798.277 102.4C798.277 107.6 797.143 111.333 794.877 113.6C792.743 115.733 789.81 116.8 786.077 116.8H744.077V139.4H787.877C788.943 140.867 789.81 142.8 790.477 145.2C791.277 147.6 791.677 150.133 791.677 152.8C791.677 157.867 790.543 161.533 788.277 163.8C786.143 165.933 783.21 167 779.477 167H744.477V209.2C743.01 209.6 740.677 210 737.477 210.4C734.41 210.8 731.343 211 728.277 211C725.21 211 722.477 210.733 720.077 210.2C717.81 209.8 715.877 209 714.277 207.8C712.677 206.6 711.477 204.933 710.677 202.8C709.877 200.667 709.477 197.867 709.477 194.4V107.4C709.477 101.667 711.143 97.1333 714.477 93.8C717.81 90.4667 722.343 88.8 728.077 88.8H794.677ZM861.127 145C866.727 145 870.993 143.733 873.927 141.2C876.993 138.533 878.527 134.533 878.527 129.2C878.527 124.133 876.927 120.267 873.727 117.6C870.66 114.8 866.127 113.4 860.127 113.4C857.993 113.4 856.193 113.467 854.727 113.6C853.393 113.6 851.993 113.733 850.527 114V145H861.127ZM850.727 209.2C849.26 209.6 846.927 210 843.727 210.4C840.66 210.8 837.593 211 834.527 211C831.46 211 828.727 210.733 826.327 210.2C824.06 209.8 822.127 209 820.527 207.8C818.927 206.6 817.727 204.933 816.927 202.8C816.127 200.667 815.727 197.867 815.727 194.4V100.2C815.727 97.4 816.46 95.2667 817.927 93.8C819.527 92.2 821.66 90.9333 824.327 90C828.86 88.4 833.993 87.2667 839.727 86.6C845.593 85.8 851.46 85.4 857.327 85.4C875.727 85.4 889.793 89.3333 899.527 97.2C909.26 105.067 914.127 115.733 914.127 129.2C914.127 135.733 913.06 141.667 910.927 147C908.927 152.2 905.86 156.733 901.727 160.6C897.727 164.333 892.593 167.267 886.327 169.4C880.193 171.4 873.06 172.4 864.927 172.4H850.727V209.2ZM950.538 210.6C944.804 210.6 940.271 208.933 936.938 205.6C933.604 202.267 931.938 197.733 931.938 192V88.6C933.404 88.3333 935.738 88 938.938 87.6C942.138 87.0667 945.204 86.8 948.138 86.8C951.204 86.8 953.871 87.0667 956.138 87.6C958.538 88 960.538 88.8 962.138 90C963.738 91.2 964.938 92.8667 965.738 95C966.538 97.1333 966.938 99.9333 966.938 103.4V182.4H1012.74C1013.67 183.867 1014.54 185.867 1015.34 188.4C1016.14 190.8 1016.54 193.333 1016.54 196C1016.54 201.333 1015.4 205.133 1013.14 207.4C1010.87 209.533 1007.87 210.6 1004.14 210.6H950.538Z" fill="#2962FF"/>
<mask id="mask0_63_369" style="mask-type:alpha" maskUnits="userSpaceOnUse" x="0" y="131" width="150" height="102">
<path d="M0 131L150 164.684V233H0V131Z" fill="#D9D9D9"/>
</mask>
<g mask="url(#mask0_63_369)">
<path d="M7 149.2C7 138.8 8.6 129.6 11.8 121.6C15.1333 113.6 19.6 106.933 25.2 101.6C30.9333 96.1333 37.6 92 45.2 89.2C52.9333 86.4 61.2667 85 70.2 85C79.1333 85 87.4 86.4 95 89.2C102.733 92 109.467 96.1333 115.2 101.6C120.933 106.933 125.4 113.6 128.6 121.6C131.933 129.6 133.6 138.8 133.6 149.2C133.6 159.6 132 168.867 128.8 177C125.6 185 121.133 191.733 115.4 197.2C109.8 202.533 103.133 206.6 95.4 209.4C87.6667 212.2 79.2667 213.6 70.2 213.6C61.1333 213.6 52.7333 212.2 45 209.4C37.2667 206.467 30.6 202.267 25 196.8C19.4 191.333 15 184.6 11.8 176.6C8.6 168.6 7 159.467 7 149.2ZM43 149.2C43 161.333 45.4667 170.4 50.4 176.4C55.3333 182.4 61.9333 185.4 70.2 185.4C78.6 185.4 85.2667 182.4 90.2 176.4C95.1333 170.4 97.6 161.333 97.6 149.2C97.6 137.2 95.1333 128.2 90.2 122.2C85.4 116.2 78.8 113.2 70.4 113.2C62.1333 113.2 55.4667 116.2 50.4 122.2C45.4667 128.067 43 137.067 43 149.2Z" fill="#2962FF"/>
</g>
<mask id="mask1_63_369" style="mask-type:alpha" maskUnits="userSpaceOnUse" x="8" y="57" width="150" height="100">
<path d="M158 157L7.99999 123.977V57L158 57V157Z" fill="#D9D9D9"/>
</mask>
<g mask="url(#mask1_63_369)">
<path d="M15 148.2C15 137.8 16.6 128.6 19.8 120.6C23.1333 112.6 27.6 105.933 33.2 100.6C38.9333 95.1333 45.6 91 53.2 88.2C60.9333 85.4 69.2667 84 78.2 84C87.1333 84 95.4 85.4 103 88.2C110.733 91 117.467 95.1333 123.2 100.6C128.933 105.933 133.4 112.6 136.6 120.6C139.933 128.6 141.6 137.8 141.6 148.2C141.6 158.6 140 167.867 136.8 176C133.6 184 129.133 190.733 123.4 196.2C117.8 201.533 111.133 205.6 103.4 208.4C95.6667 211.2 87.2667 212.6 78.2 212.6C69.1333 212.6 60.7333 211.2 53 208.4C45.2667 205.467 38.6 201.267 33 195.8C27.4 190.333 23 183.6 19.8 175.6C16.6 167.6 15 158.467 15 148.2ZM51 148.2C51 160.333 53.4667 169.4 58.4 175.4C63.3333 181.4 69.9333 184.4 78.2 184.4C86.6 184.4 93.2667 181.4 98.2 175.4C103.133 169.4 105.6 160.333 105.6 148.2C105.6 136.2 103.133 127.2 98.2 121.2C93.4 115.2 86.8 112.2 78.4 112.2C70.1333 112.2 63.4667 115.2 58.4 121.2C53.4667 127.067 51 136.067 51 148.2Z" fill="#2962FF"/>
</g>
</svg>
