<svg width="75" height="75" viewBox="0 0 75 75" fill="none" xmlns="http://www.w3.org/2000/svg">
<g clip-path="url(#clip0_22_77)">
<path d="M37.5 75C58.2107 75 75 58.2107 75 37.5C75 16.7893 58.2107 0 37.5 0C16.7893 0 0 16.7893 0 37.5C0 58.2107 16.7893 75 37.5 75Z" fill="#2962FF"/>
<mask id="mask0_22_77" style="mask-type:alpha" maskUnits="userSpaceOnUse" x="12" y="14" width="48" height="49">
<path d="M12 38.146C12 34.2345 12.6018 30.7743 13.8053 27.7655C15.059 24.7566 16.7389 22.2491 18.8451 20.2434C21.0015 18.1873 23.5089 16.6327 26.3673 15.5796C29.2758 14.5265 32.4101 14 35.7699 14C39.1298 14 42.239 14.5265 45.0974 15.5796C48.0058 16.6327 50.5385 18.1873 52.6947 20.2434C54.8509 22.2491 56.531 24.7566 57.7345 27.7655C58.9881 30.7743 59.6151 34.2345 59.6151 38.146C59.6151 42.0575 59.0133 45.5429 57.8098 48.6018C56.6062 51.6106 54.9262 54.143 52.7699 56.1991C50.6637 58.2049 48.1562 59.7345 45.2478 60.7876C42.3393 61.8407 39.18 62.3673 35.7699 62.3673C32.3599 62.3673 29.2006 61.8407 26.292 60.7876C23.3835 59.6845 20.8761 58.1049 18.7699 56.0487C16.6637 53.9925 15.0089 51.4602 13.8053 48.4513C12.6018 45.4425 12 42.0075 12 38.146ZM25.5398 38.146C25.5398 42.7093 26.4676 46.1195 28.323 48.3761C30.1785 50.6328 32.6608 51.7611 35.7699 51.7611C38.9292 51.7611 41.4366 50.6328 43.292 48.3761C45.1475 46.1195 46.0752 42.7093 46.0752 38.146C46.0752 33.6328 45.1475 30.2478 43.292 27.9912C41.4867 25.7345 39.0044 24.6062 35.8451 24.6062C32.736 24.6062 30.2286 25.7345 28.323 27.9912C26.4676 30.1978 25.5398 33.5827 25.5398 38.146Z" fill="white"/>
</mask>
<g mask="url(#mask0_22_77)">
<path d="M62.3982 32.4292H9.36719V70.0398H62.3982V32.4292Z" fill="white"/>
</g>
<mask id="mask1_22_77" style="mask-type:alpha" maskUnits="userSpaceOnUse" x="15" y="14" width="48" height="49">
<path d="M15.3849 38.146C15.3849 34.2345 15.9867 30.7743 17.1902 27.7655C18.4439 24.7566 20.1238 22.2491 22.23 20.2434C24.3864 18.1873 26.8937 16.6327 29.7522 15.5796C32.6607 14.5265 35.7949 14 39.1548 14C42.5147 14 45.6238 14.5265 48.4822 15.5796C51.3907 16.6327 53.9234 18.1873 56.0796 20.2434C58.2358 22.2491 59.9159 24.7566 61.1194 27.7655C62.373 30.7743 63 34.2345 63 38.146C63 42.0575 62.3982 45.5429 61.1946 48.6018C59.9911 51.6106 58.311 54.143 56.1548 56.1991C54.0486 58.2049 51.5411 59.7345 48.6327 60.7876C45.7241 61.8407 42.5649 62.3673 39.1548 62.3673C35.7448 62.3673 32.5855 61.8407 29.6769 60.7876C26.7684 59.6845 24.261 58.1049 22.1548 56.0487C20.0486 53.9925 18.3937 51.4602 17.1902 48.4513C15.9867 45.4425 15.3849 42.0075 15.3849 38.146ZM28.9247 38.146C28.9247 42.7093 29.8525 46.1195 31.7079 48.3761C33.5634 50.6328 36.0457 51.7611 39.1548 51.7611C42.3141 51.7611 44.8215 50.6328 46.6769 48.3761C48.5323 46.1195 49.4601 42.7093 49.4601 38.146C49.4601 33.6328 48.5323 30.2478 46.6769 27.9912C44.8716 25.7345 42.3893 24.6062 39.23 24.6062C36.1209 24.6062 33.6135 25.7345 31.7079 27.9912C29.8525 30.1978 28.9247 33.5827 28.9247 38.146Z" fill="white"/>
</mask>
<g mask="url(#mask1_22_77)">
<g filter="url(#filter0_d_22_77)">
<path d="M63.5267 -5.55753H15.009C13.7627 -5.55753 12.7523 -4.54719 12.7523 -3.30089V29.7965C12.7523 31.0428 13.7627 32.0531 15.009 32.0531H63.5267C64.773 32.0531 65.7833 31.0428 65.7833 29.7965V-3.30089C65.7833 -4.54719 64.773 -5.55753 63.5267 -5.55753Z" fill="white"/>
</g>
</g>
</g>
<defs>
<filter id="filter0_d_22_77" x="12.7523" y="-5.55753" width="61.031" height="45.6106" filterUnits="userSpaceOnUse" color-interpolation-filters="sRGB">
<feFlood flood-opacity="0" result="BackgroundImageFix"/>
<feColorMatrix in="SourceAlpha" type="matrix" values="0 0 0 0 0 0 0 0 0 0 0 0 0 0 0 0 0 0 127 0" result="hardAlpha"/>
<feOffset dx="4" dy="4"/>
<feGaussianBlur stdDeviation="2"/>
<feComposite in2="hardAlpha" operator="out"/>
<feColorMatrix type="matrix" values="0 0 0 0 0.160784 0 0 0 0 0.384314 0 0 0 0 1 0 0 0 1 0"/>
<feBlend mode="normal" in2="BackgroundImageFix" result="effect1_dropShadow_22_77"/>
<feBlend mode="normal" in="SourceGraphic" in2="effect1_dropShadow_22_77" result="shape"/>
</filter>
<clipPath id="clip0_22_77">
<rect width="75" height="75" fill="white"/>
</clipPath>
</defs>
</svg>
