<svg width="75" height="75" viewBox="0 0 75 75" fill="none" xmlns="http://www.w3.org/2000/svg">
<circle cx="37.5" cy="37.5" r="37.5" fill="#2962FF"/>
<g clip-path="url(#clip0_63_594)">
<mask id="mask0_63_594" style="mask-type:alpha" maskUnits="userSpaceOnUse" x="11" y="31" width="57" height="39">
<path d="M11 31.75L67.0127 44.3815V70H11V31.75Z" fill="#D9D9D9"/>
</mask>
<g mask="url(#mask0_63_594)">
<path d="M13.6139 38.575C13.6139 34.675 14.2114 31.225 15.4063 28.225C16.651 25.225 18.319 22.725 20.4101 20.725C22.551 18.675 25.0405 17.125 27.8785 16.075C30.7662 15.025 33.8781 14.5 37.2139 14.5C40.5498 14.5 43.6367 15.025 46.4747 16.075C49.3623 17.125 51.8769 18.675 54.0177 20.725C56.1585 22.725 57.8266 25.225 59.0215 28.225C60.2661 31.225 60.8886 34.675 60.8886 38.575C60.8886 42.475 60.2911 45.9501 59.0962 49C57.9013 52 56.2332 54.5249 54.0924 56.575C52.0013 58.5749 49.5117 60.1 46.624 61.15C43.7363 62.2 40.5996 62.725 37.2139 62.725C33.8283 62.725 30.6915 62.2 27.8038 61.15C24.916 60.0501 22.4266 58.4751 20.3354 56.425C18.2443 54.3749 16.6013 51.85 15.4063 48.85C14.2114 45.85 13.6139 42.4251 13.6139 38.575ZM27.057 38.575C27.057 43.1249 27.9781 46.525 29.8203 48.775C31.6624 51.025 34.127 52.15 37.2139 52.15C40.3506 52.15 42.8401 51.025 44.6823 48.775C46.5245 46.525 47.4456 43.1249 47.4456 38.575C47.4456 34.075 46.5245 30.7 44.6823 28.45C42.8899 26.2 40.4253 25.075 37.2886 25.075C34.2017 25.075 31.7122 26.2 29.8203 28.45C27.9781 30.65 27.057 34.025 27.057 38.575Z" fill="white"/>
</g>
<mask id="mask1_63_594" style="mask-type:alpha" maskUnits="userSpaceOnUse" x="13" y="4" width="57" height="38">
<path d="M70 41.5L13.9873 29.1163V4H70V41.5Z" fill="#D9D9D9"/>
</mask>
<g mask="url(#mask1_63_594)">
<path d="M16.6013 38.2C16.6013 34.3 17.1987 30.85 18.3937 27.85C19.6384 24.85 21.3063 22.35 23.3975 20.35C25.5384 18.3 28.0278 16.75 30.8658 15.7C33.7536 14.65 36.8654 14.125 40.2013 14.125C43.5371 14.125 46.624 14.65 49.462 15.7C52.3497 16.75 54.8643 18.3 57.0051 20.35C59.1459 22.35 60.8139 24.85 62.0089 27.85C63.2535 30.85 63.8759 34.3 63.8759 38.2C63.8759 42.1 63.2785 45.5751 62.0835 48.625C60.8886 51.625 59.2205 54.1499 57.0797 56.2C54.9886 58.1999 52.499 59.725 49.6114 60.775C46.7236 61.825 43.5869 62.35 40.2013 62.35C36.8156 62.35 33.6789 61.825 30.7911 60.775C27.9034 59.6751 25.4139 58.1001 23.3228 56.05C21.2316 53.9999 19.5886 51.475 18.3937 48.475C17.1987 45.475 16.6013 42.0501 16.6013 38.2ZM30.0443 38.2C30.0443 42.7499 30.9654 46.15 32.8076 48.4C34.6498 50.65 37.1143 51.775 40.2013 51.775C43.338 51.775 45.8274 50.65 47.6696 48.4C49.5117 46.15 50.4329 42.7499 50.4329 38.2C50.4329 33.7 49.5117 30.325 47.6696 28.075C45.8772 25.825 43.4127 24.7 40.2759 24.7C37.189 24.7 34.6996 25.825 32.8076 28.075C30.9654 30.275 30.0443 33.65 30.0443 38.2Z" fill="white"/>
</g>
</g>
<defs>
<clipPath id="clip0_63_594">
<rect width="59" height="66" fill="white" transform="translate(11 4)"/>
</clipPath>
</defs>
</svg>
