<svg width="200" height="40" viewBox="0 0 1011 146" fill="none" xmlns="http://www.w3.org/2000/svg">
<mask id="mask0_22_112" style="mask-type:alpha" maskUnits="userSpaceOnUse" x="0" y="0" width="1002" height="146">
<path d="M0 81.4C0 71 1.6 61.8 4.8 53.8C8.1333 45.8 12.6 39.133 18.2 33.8C23.9333 28.3333 30.6 24.2 38.2 21.4C45.9333 18.6 54.2667 17.2 63.2 17.2C72.1333 17.2 80.4 18.6 88 21.4C95.733 24.2 102.467 28.3333 108.2 33.8C113.933 39.133 118.4 45.8 121.6 53.8C124.933 61.8 126.6 71 126.6 81.4C126.6 91.8 125 101.067 121.8 109.2C118.6 117.2 114.133 123.933 108.4 129.4C102.8 134.733 96.133 138.8 88.4 141.6C80.6667 144.4 72.2667 145.8 63.2 145.8C54.1333 145.8 45.7333 144.4 38 141.6C30.2667 138.667 23.6 134.467 18 129C12.4 123.533 8 116.8 4.8 108.8C1.6 100.8 0 91.667 0 81.4ZM36 81.4C36 93.533 38.4667 102.6 43.4 108.6C48.3333 114.6 54.9333 117.6 63.2 117.6C71.6 117.6 78.2667 114.6 83.2 108.6C88.1333 102.6 90.6 93.533 90.6 81.4C90.6 69.4 88.1333 60.4 83.2 54.4C78.4 48.4 71.8 45.4 63.4 45.4C55.1333 45.4 48.4667 48.4 43.4 54.4C38.4667 60.267 36 69.267 36 81.4ZM144.425 45C144.425 38.2 145.558 32.4 147.825 27.6C150.225 22.6667 153.425 18.6667 157.425 15.6C161.425 12.4 166.092 10.0667 171.425 8.6C176.892 7.1333 182.692 6.39999 188.825 6.39999C198.692 6.39999 205.958 7.73329 210.625 10.4C215.292 12.9333 217.625 17.3333 217.625 23.6C217.625 26.2667 217.025 28.6667 215.825 30.8C214.758 32.933 213.558 34.533 212.225 35.6C209.692 34.933 207.025 34.4 204.225 34C201.558 33.467 198.425 33.2 194.825 33.2C189.092 33.2 184.625 34.2 181.425 36.2C178.225 38.067 176.625 41.4 176.625 46.2V52.6H209.425C210.225 54.067 210.958 55.933 211.625 58.2C212.425 60.333 212.825 62.733 212.825 65.4C212.825 70.067 211.758 73.467 209.625 75.6C207.625 77.6 204.892 78.6 201.425 78.6H178.425V142C177.092 142.4 174.958 142.8 172.025 143.2C169.225 143.6 166.292 143.8 163.225 143.8C160.292 143.8 157.625 143.6 155.225 143.2C152.958 142.8 151.025 142 149.425 140.8C147.825 139.6 146.558 138 145.625 136C144.825 133.867 144.425 131.133 144.425 127.8V45ZM227.433 45C227.433 38.2 228.566 32.4 230.833 27.6C233.233 22.6667 236.433 18.6667 240.433 15.6C244.433 12.4 249.099 10.0667 254.433 8.6C259.899 7.1333 265.699 6.39999 271.833 6.39999C281.699 6.39999 288.966 7.73329 293.633 10.4C298.299 12.9333 300.633 17.3333 300.633 23.6C300.633 26.2667 300.033 28.6667 298.833 30.8C297.766 32.933 296.566 34.533 295.233 35.6C292.699 34.933 290.033 34.4 287.233 34C284.566 33.467 281.433 33.2 277.833 33.2C272.099 33.2 267.633 34.2 264.433 36.2C261.233 38.067 259.633 41.4 259.633 46.2V52.6H292.433C293.233 54.067 293.966 55.933 294.633 58.2C295.433 60.333 295.833 62.733 295.833 65.4C295.833 70.067 294.766 73.467 292.633 75.6C290.633 77.6 287.899 78.6 284.433 78.6H261.433V142C260.099 142.4 257.966 142.8 255.033 143.2C252.233 143.6 249.299 143.8 246.233 143.8C243.299 143.8 240.633 143.6 238.233 143.2C235.966 142.8 234.033 142 232.433 140.8C230.833 139.6 229.566 138 228.633 136C227.833 133.867 227.433 131.133 227.433 127.8V45ZM392.041 113.2C392.041 123.333 388.241 131.267 380.641 137C373.041 142.733 361.841 145.6 347.041 145.6C341.441 145.6 336.241 145.2 331.441 144.4C326.641 143.6 322.507 142.4 319.041 140.8C315.707 139.067 313.041 136.933 311.041 134.4C309.174 131.867 308.241 128.867 308.241 125.4C308.241 122.2 308.907 119.533 310.241 117.4C311.574 115.133 313.174 113.267 315.041 111.8C318.907 113.933 323.307 115.867 328.241 117.6C333.307 119.2 339.107 120 345.641 120C349.774 120 352.907 119.4 355.041 118.2C357.307 117 358.441 115.4 358.441 113.4C358.441 111.533 357.641 110.067 356.041 109C354.441 107.933 351.774 107.067 348.041 106.4L342.041 105.2C330.441 102.933 321.774 99.4 316.041 94.6C310.441 89.667 307.641 82.667 307.641 73.6C307.641 68.667 308.707 64.2 310.841 60.2C312.974 56.2 315.974 52.867 319.841 50.2C323.707 47.533 328.307 45.467 333.641 44C339.107 42.533 345.107 41.8 351.641 41.8C356.574 41.8 361.174 42.2 365.441 43C369.841 43.667 373.641 44.733 376.841 46.2C380.041 47.667 382.574 49.6 384.441 52C386.307 54.267 387.241 57 387.241 60.2C387.241 63.267 386.641 65.933 385.441 68.2C384.374 70.333 382.974 72.133 381.241 73.6C380.174 72.933 378.574 72.267 376.441 71.6C374.307 70.8 371.974 70.133 369.441 69.6C366.907 68.933 364.307 68.4 361.641 68C359.107 67.6 356.774 67.4 354.641 67.4C350.241 67.4 346.841 67.933 344.441 69C342.041 69.933 340.841 71.467 340.841 73.6C340.841 75.067 341.507 76.267 342.841 77.2C344.174 78.133 346.707 79 350.441 79.8L356.641 81.2C369.441 84.133 378.507 88.2 383.841 93.4C389.307 98.467 392.041 105.067 392.041 113.2ZM407.678 18C407.678 12.9333 409.345 8.6667 412.678 5.2C416.145 1.7333 420.678 0 426.278 0C431.878 0 436.345 1.7333 439.678 5.2C443.145 8.6667 444.878 12.9333 444.878 18C444.878 23.0667 443.145 27.3333 439.678 30.8C436.345 34.267 431.878 36 426.278 36C420.678 36 416.145 34.267 412.678 30.8C409.345 27.3333 407.678 23.0667 407.678 18ZM443.278 142C441.811 142.267 439.611 142.6 436.678 143C433.878 143.533 431.011 143.8 428.078 143.8C425.145 143.8 422.478 143.6 420.078 143.2C417.811 142.8 415.878 142 414.278 140.8C412.678 139.6 411.411 138 410.478 136C409.678 133.867 409.278 131.133 409.278 127.8V46.4C410.745 46.133 412.878 45.8 415.678 45.4C418.611 44.867 421.545 44.6 424.478 44.6C427.411 44.6 430.011 44.8 432.278 45.2C434.678 45.6 436.678 46.4 438.278 47.6C439.878 48.8 441.078 50.467 441.878 52.6C442.811 54.6 443.278 57.267 443.278 60.6V142ZM460.723 93.6C460.723 84.8 462.057 77.2 464.723 70.8C467.39 64.267 471.057 58.867 475.723 54.6C480.523 50.333 486.057 47.2 492.323 45.2C498.723 43.067 505.59 42 512.923 42C515.59 42 518.19 42.267 520.723 42.8C523.257 43.2 525.323 43.733 526.923 44.4V12C528.257 11.6 530.39 11.2 533.323 10.8C536.257 10.2667 539.257 10 542.323 10C545.257 10 547.857 10.2 550.123 10.6C552.523 11 554.523 11.8 556.123 13C557.723 14.2 558.923 15.8667 559.723 18C560.523 20 560.923 22.6667 560.923 26V120.8C560.923 127.067 557.99 132.067 552.123 135.8C548.257 138.333 543.257 140.533 537.123 142.4C530.99 144.4 523.923 145.4 515.923 145.4C507.257 145.4 499.457 144.2 492.523 141.8C485.723 139.4 479.923 135.933 475.123 131.4C470.457 126.867 466.857 121.467 464.323 115.2C461.923 108.8 460.723 101.6 460.723 93.6ZM517.523 68.6C510.323 68.6 504.79 70.667 500.923 74.8C497.057 78.933 495.123 85.2 495.123 93.6C495.123 101.867 496.923 108.133 500.523 112.4C504.123 116.533 509.323 118.6 516.123 118.6C518.523 118.6 520.657 118.267 522.523 117.6C524.523 116.8 526.057 115.933 527.123 115V71C524.457 69.4 521.257 68.6 517.523 68.6ZM633.511 145.4C625.644 145.4 618.311 144.333 611.511 142.2C604.844 139.933 598.978 136.6 593.911 132.2C588.978 127.8 585.044 122.267 582.111 115.6C579.311 108.933 577.911 101.133 577.911 92.2C577.911 83.4 579.311 75.867 582.111 69.6C585.044 63.2 588.844 58 593.511 54C598.178 49.867 603.511 46.867 609.511 45C615.511 43 621.644 42 627.911 42C634.978 42 641.378 43.067 647.111 45.2C652.978 47.333 657.978 50.267 662.111 54C666.378 57.733 669.644 62.2 671.911 67.4C674.311 72.6 675.511 78.267 675.511 84.4C675.511 88.933 674.244 92.4 671.711 94.8C669.178 97.2 665.644 98.733 661.111 99.4L611.711 106.8C613.178 111.2 616.178 114.533 620.711 116.8C625.244 118.933 630.444 120 636.311 120C641.778 120 646.911 119.333 651.711 118C656.644 116.533 660.644 114.867 663.711 113C665.844 114.333 667.644 116.2 669.111 118.6C670.578 121 671.311 123.533 671.311 126.2C671.311 132.2 668.511 136.667 662.911 139.6C658.644 141.867 653.844 143.4 648.511 144.2C643.178 145 638.178 145.4 633.511 145.4ZM627.911 66.8C624.711 66.8 621.911 67.333 619.511 68.4C617.244 69.467 615.378 70.867 613.911 72.6C612.444 74.2 611.311 76.067 610.511 78.2C609.844 80.2 609.444 82.267 609.311 84.4L643.511 78.8C643.111 76.133 641.644 73.467 639.111 70.8C636.578 68.133 632.844 66.8 627.911 66.8ZM779.677 21C780.61 22.4667 781.41 24.4667 782.077 27C782.877 29.4 783.277 31.9333 783.277 34.6C783.277 39.8 782.143 43.533 779.877 45.8C777.743 47.933 774.81 49 771.077 49H729.077V71.6H772.877C773.943 73.067 774.81 75 775.477 77.4C776.277 79.8 776.677 82.333 776.677 85C776.677 90.067 775.543 93.733 773.277 96C771.143 98.133 768.21 99.2 764.477 99.2H729.477V141.4C728.01 141.8 725.677 142.2 722.477 142.6C719.41 143 716.343 143.2 713.277 143.2C710.21 143.2 707.477 142.933 705.077 142.4C702.81 142 700.877 141.2 699.277 140C697.677 138.8 696.477 137.133 695.677 135C694.877 132.867 694.477 130.067 694.477 126.6V39.6C694.477 33.867 696.143 29.3333 699.477 26C702.81 22.6667 707.343 21 713.077 21H779.677ZM846.127 77.2C851.727 77.2 855.993 75.933 858.927 73.4C861.993 70.733 863.527 66.733 863.527 61.4C863.527 56.333 861.927 52.467 858.727 49.8C855.66 47 851.127 45.6 845.127 45.6C842.993 45.6 841.193 45.667 839.727 45.8C838.393 45.8 836.993 45.933 835.527 46.2V77.2H846.127ZM835.727 141.4C834.26 141.8 831.927 142.2 828.727 142.6C825.66 143 822.593 143.2 819.527 143.2C816.46 143.2 813.727 142.933 811.327 142.4C809.06 142 807.127 141.2 805.527 140C803.927 138.8 802.727 137.133 801.927 135C801.127 132.867 800.727 130.067 800.727 126.6V32.4C800.727 29.6 801.46 27.4667 802.927 26C804.527 24.4 806.66 23.1333 809.327 22.2C813.86 20.6 818.993 19.4667 824.727 18.8C830.593 18 836.46 17.6 842.327 17.6C860.727 17.6 874.793 21.5333 884.527 29.4C894.26 37.267 899.127 47.933 899.127 61.4C899.127 67.933 898.06 73.867 895.927 79.2C893.927 84.4 890.86 88.933 886.727 92.8C882.727 96.533 877.593 99.467 871.327 101.6C865.193 103.6 858.06 104.6 849.927 104.6H835.727V141.4ZM935.538 142.8C929.804 142.8 925.271 141.133 921.938 137.8C918.604 134.467 916.938 129.933 916.938 124.2V20.8C918.404 20.5333 920.738 20.2 923.938 19.8C927.138 19.2667 930.204 19 933.138 19C936.204 19 938.871 19.2667 941.138 19.8C943.538 20.2 945.538 21 947.138 22.2C948.738 23.4 949.938 25.0667 950.738 27.2C951.538 29.3333 951.938 32.1333 951.938 35.6V114.6H997.74C998.67 116.067 999.54 118.067 1000.34 120.6C1001.14 123 1001.54 125.533 1001.54 128.2C1001.54 133.533 1000.4 137.333 998.14 139.6C995.87 141.733 992.871 142.8 989.138 142.8H935.538Z" fill="white"/>
</mask>
<g mask="url(#mask0_22_112)">
<path d="M1007 66.2H-7V166.2H1007V66.2Z" fill="white"/>
</g>
<mask id="mask1_22_112" style="mask-type:alpha" maskUnits="userSpaceOnUse" x="9" y="0" width="1002" height="146">
<path d="M9 81.4C9 71 10.6 61.8 13.8 53.8C17.1333 45.8 21.6 39.133 27.2 33.8C32.9333 28.3333 39.6 24.2 47.2 21.4C54.9333 18.6 63.2667 17.2 72.2 17.2C81.1333 17.2 89.4 18.6 97 21.4C104.733 24.2 111.467 28.3333 117.2 33.8C122.933 39.133 127.4 45.8 130.6 53.8C133.933 61.8 135.6 71 135.6 81.4C135.6 91.8 134 101.067 130.8 109.2C127.6 117.2 123.133 123.933 117.4 129.4C111.8 134.733 105.133 138.8 97.4 141.6C89.6667 144.4 81.2667 145.8 72.2 145.8C63.1333 145.8 54.7333 144.4 47 141.6C39.2667 138.667 32.6 134.467 27 129C21.4 123.533 17 116.8 13.8 108.8C10.6 100.8 9 91.667 9 81.4ZM45 81.4C45 93.533 47.4667 102.6 52.4 108.6C57.3333 114.6 63.9333 117.6 72.2 117.6C80.6 117.6 87.2667 114.6 92.2 108.6C97.133 102.6 99.6 93.533 99.6 81.4C99.6 69.4 97.133 60.4 92.2 54.4C87.4 48.4 80.8 45.4 72.4 45.4C64.1333 45.4 57.4667 48.4 52.4 54.4C47.4667 60.267 45 69.267 45 81.4ZM153.425 45C153.425 38.2 154.558 32.4 156.825 27.6C159.225 22.6667 162.425 18.6667 166.425 15.6C170.425 12.4 175.092 10.0667 180.425 8.6C185.892 7.1333 191.692 6.39999 197.825 6.39999C207.692 6.39999 214.958 7.73329 219.625 10.4C224.292 12.9333 226.625 17.3333 226.625 23.6C226.625 26.2667 226.025 28.6667 224.825 30.8C223.758 32.933 222.558 34.533 221.225 35.6C218.692 34.933 216.025 34.4 213.225 34C210.558 33.467 207.425 33.2 203.825 33.2C198.092 33.2 193.625 34.2 190.425 36.2C187.225 38.067 185.625 41.4 185.625 46.2V52.6H218.425C219.225 54.067 219.958 55.933 220.625 58.2C221.425 60.333 221.825 62.733 221.825 65.4C221.825 70.067 220.758 73.467 218.625 75.6C216.625 77.6 213.892 78.6 210.425 78.6H187.425V142C186.092 142.4 183.958 142.8 181.025 143.2C178.225 143.6 175.292 143.8 172.225 143.8C169.292 143.8 166.625 143.6 164.225 143.2C161.958 142.8 160.025 142 158.425 140.8C156.825 139.6 155.558 138 154.625 136C153.825 133.867 153.425 131.133 153.425 127.8V45ZM236.433 45C236.433 38.2 237.566 32.4 239.833 27.6C242.233 22.6667 245.433 18.6667 249.433 15.6C253.433 12.4 258.099 10.0667 263.433 8.6C268.899 7.1333 274.699 6.39999 280.833 6.39999C290.699 6.39999 297.966 7.73329 302.633 10.4C307.299 12.9333 309.633 17.3333 309.633 23.6C309.633 26.2667 309.033 28.6667 307.833 30.8C306.766 32.933 305.566 34.533 304.233 35.6C301.699 34.933 299.033 34.4 296.233 34C293.566 33.467 290.433 33.2 286.833 33.2C281.099 33.2 276.633 34.2 273.433 36.2C270.233 38.067 268.633 41.4 268.633 46.2V52.6H301.433C302.233 54.067 302.966 55.933 303.633 58.2C304.433 60.333 304.833 62.733 304.833 65.4C304.833 70.067 303.766 73.467 301.633 75.6C299.633 77.6 296.899 78.6 293.433 78.6H270.433V142C269.099 142.4 266.966 142.8 264.033 143.2C261.233 143.6 258.299 143.8 255.233 143.8C252.299 143.8 249.633 143.6 247.233 143.2C244.966 142.8 243.033 142 241.433 140.8C239.833 139.6 238.566 138 237.633 136C236.833 133.867 236.433 131.133 236.433 127.8V45ZM401.041 113.2C401.041 123.333 397.241 131.267 389.641 137C382.041 142.733 370.841 145.6 356.041 145.6C350.441 145.6 345.241 145.2 340.441 144.4C335.641 143.6 331.507 142.4 328.041 140.8C324.707 139.067 322.041 136.933 320.041 134.4C318.174 131.867 317.241 128.867 317.241 125.4C317.241 122.2 317.907 119.533 319.241 117.4C320.574 115.133 322.174 113.267 324.041 111.8C327.907 113.933 332.307 115.867 337.241 117.6C342.307 119.2 348.107 120 354.641 120C358.774 120 361.907 119.4 364.041 118.2C366.307 117 367.441 115.4 367.441 113.4C367.441 111.533 366.641 110.067 365.041 109C363.441 107.933 360.774 107.067 357.041 106.4L351.041 105.2C339.441 102.933 330.774 99.4 325.041 94.6C319.441 89.667 316.641 82.667 316.641 73.6C316.641 68.667 317.707 64.2 319.841 60.2C321.974 56.2 324.974 52.867 328.841 50.2C332.707 47.533 337.307 45.467 342.641 44C348.107 42.533 354.107 41.8 360.641 41.8C365.574 41.8 370.174 42.2 374.441 43C378.841 43.667 382.641 44.733 385.841 46.2C389.041 47.667 391.574 49.6 393.441 52C395.307 54.267 396.241 57 396.241 60.2C396.241 63.267 395.641 65.933 394.441 68.2C393.374 70.333 391.974 72.133 390.241 73.6C389.174 72.933 387.574 72.267 385.441 71.6C383.307 70.8 380.974 70.133 378.441 69.6C375.907 68.933 373.307 68.4 370.641 68C368.107 67.6 365.774 67.4 363.641 67.4C359.241 67.4 355.841 67.933 353.441 69C351.041 69.933 349.841 71.467 349.841 73.6C349.841 75.067 350.507 76.267 351.841 77.2C353.174 78.133 355.707 79 359.441 79.8L365.641 81.2C378.441 84.133 387.507 88.2 392.841 93.4C398.307 98.467 401.041 105.067 401.041 113.2ZM416.678 18C416.678 12.9333 418.345 8.6667 421.678 5.2C425.145 1.7333 429.678 0 435.278 0C440.878 0 445.345 1.7333 448.678 5.2C452.145 8.6667 453.878 12.9333 453.878 18C453.878 23.0667 452.145 27.3333 448.678 30.8C445.345 34.267 440.878 36 435.278 36C429.678 36 425.145 34.267 421.678 30.8C418.345 27.3333 416.678 23.0667 416.678 18ZM452.278 142C450.811 142.267 448.611 142.6 445.678 143C442.878 143.533 440.011 143.8 437.078 143.8C434.145 143.8 431.478 143.6 429.078 143.2C426.811 142.8 424.878 142 423.278 140.8C421.678 139.6 420.411 138 419.478 136C418.678 133.867 418.278 131.133 418.278 127.8V46.4C419.745 46.133 421.878 45.8 424.678 45.4C427.611 44.867 430.545 44.6 433.478 44.6C436.411 44.6 439.011 44.8 441.278 45.2C443.678 45.6 445.678 46.4 447.278 47.6C448.878 48.8 450.078 50.467 450.878 52.6C451.811 54.6 452.278 57.267 452.278 60.6V142ZM469.723 93.6C469.723 84.8 471.057 77.2 473.723 70.8C476.39 64.267 480.057 58.867 484.723 54.6C489.523 50.333 495.057 47.2 501.323 45.2C507.723 43.067 514.59 42 521.923 42C524.59 42 527.19 42.267 529.723 42.8C532.257 43.2 534.323 43.733 535.923 44.4V12C537.257 11.6 539.39 11.2 542.323 10.8C545.257 10.2667 548.257 10 551.323 10C554.257 10 556.857 10.2 559.123 10.6C561.523 11 563.523 11.8 565.123 13C566.723 14.2 567.923 15.8667 568.723 18C569.523 20 569.923 22.6667 569.923 26V120.8C569.923 127.067 566.99 132.067 561.123 135.8C557.257 138.333 552.257 140.533 546.123 142.4C539.99 144.4 532.923 145.4 524.923 145.4C516.257 145.4 508.457 144.2 501.523 141.8C494.723 139.4 488.923 135.933 484.123 131.4C479.457 126.867 475.857 121.467 473.323 115.2C470.923 108.8 469.723 101.6 469.723 93.6ZM526.523 68.6C519.323 68.6 513.79 70.667 509.923 74.8C506.057 78.933 504.123 85.2 504.123 93.6C504.123 101.867 505.923 108.133 509.523 112.4C513.123 116.533 518.323 118.6 525.123 118.6C527.523 118.6 529.657 118.267 531.523 117.6C533.523 116.8 535.057 115.933 536.123 115V71C533.457 69.4 530.257 68.6 526.523 68.6ZM642.511 145.4C634.644 145.4 627.311 144.333 620.511 142.2C613.844 139.933 607.978 136.6 602.911 132.2C597.978 127.8 594.044 122.267 591.111 115.6C588.311 108.933 586.911 101.133 586.911 92.2C586.911 83.4 588.311 75.867 591.111 69.6C594.044 63.2 597.844 58 602.511 54C607.178 49.867 612.511 46.867 618.511 45C624.511 43 630.644 42 636.911 42C643.978 42 650.378 43.067 656.111 45.2C661.978 47.333 666.978 50.267 671.111 54C675.378 57.733 678.644 62.2 680.911 67.4C683.311 72.6 684.511 78.267 684.511 84.4C684.511 88.933 683.244 92.4 680.711 94.8C678.178 97.2 674.644 98.733 670.111 99.4L620.711 106.8C622.178 111.2 625.178 114.533 629.711 116.8C634.244 118.933 639.444 120 645.311 120C650.778 120 655.911 119.333 660.711 118C665.644 116.533 669.644 114.867 672.711 113C674.844 114.333 676.644 116.2 678.111 118.6C679.578 121 680.311 123.533 680.311 126.2C680.311 132.2 677.511 136.667 671.911 139.6C667.644 141.867 662.844 143.4 657.511 144.2C652.178 145 647.178 145.4 642.511 145.4ZM636.911 66.8C633.711 66.8 630.911 67.333 628.511 68.4C626.244 69.467 624.378 70.867 622.911 72.6C621.444 74.2 620.311 76.067 619.511 78.2C618.844 80.2 618.444 82.267 618.311 84.4L652.511 78.8C652.111 76.133 650.644 73.467 648.111 70.8C645.578 68.133 641.844 66.8 636.911 66.8ZM788.677 21C789.61 22.4667 790.41 24.4667 791.077 27C791.877 29.4 792.277 31.9333 792.277 34.6C792.277 39.8 791.143 43.533 788.877 45.8C786.743 47.933 783.81 49 780.077 49H738.077V71.6H781.877C782.943 73.067 783.81 75 784.477 77.4C785.277 79.8 785.677 82.333 785.677 85C785.677 90.067 784.543 93.733 782.277 96C780.143 98.133 777.21 99.2 773.477 99.2H738.477V141.4C737.01 141.8 734.677 142.2 731.477 142.6C728.41 143 725.343 143.2 722.277 143.2C719.21 143.2 716.477 142.933 714.077 142.4C711.81 142 709.877 141.2 708.277 140C706.677 138.8 705.477 137.133 704.677 135C703.877 132.867 703.477 130.067 703.477 126.6V39.6C703.477 33.867 705.143 29.3333 708.477 26C711.81 22.6667 716.343 21 722.077 21H788.677ZM855.127 77.2C860.727 77.2 864.993 75.933 867.927 73.4C870.993 70.733 872.527 66.733 872.527 61.4C872.527 56.333 870.927 52.467 867.727 49.8C864.66 47 860.127 45.6 854.127 45.6C851.993 45.6 850.193 45.667 848.727 45.8C847.393 45.8 845.993 45.933 844.527 46.2V77.2H855.127ZM844.727 141.4C843.26 141.8 840.927 142.2 837.727 142.6C834.66 143 831.593 143.2 828.527 143.2C825.46 143.2 822.727 142.933 820.327 142.4C818.06 142 816.127 141.2 814.527 140C812.927 138.8 811.727 137.133 810.927 135C810.127 132.867 809.727 130.067 809.727 126.6V32.4C809.727 29.6 810.46 27.4667 811.927 26C813.527 24.4 815.66 23.1333 818.327 22.2C822.86 20.6 827.993 19.4667 833.727 18.8C839.593 18 845.46 17.6 851.327 17.6C869.727 17.6 883.793 21.5333 893.527 29.4C903.26 37.267 908.127 47.933 908.127 61.4C908.127 67.933 907.06 73.867 904.927 79.2C902.927 84.4 899.86 88.933 895.727 92.8C891.727 96.533 886.593 99.467 880.327 101.6C874.193 103.6 867.06 104.6 858.927 104.6H844.727V141.4ZM944.538 142.8C938.804 142.8 934.271 141.133 930.938 137.8C927.604 134.467 925.938 129.933 925.938 124.2V20.8C927.404 20.5333 929.738 20.2 932.938 19.8C936.138 19.2667 939.204 19 942.138 19C945.204 19 947.871 19.2667 950.138 19.8C952.538 20.2 954.538 21 956.138 22.2C957.738 23.4 958.938 25.0667 959.738 27.2C960.538 29.3333 960.938 32.1333 960.938 35.6V114.6H1006.74C1007.67 116.067 1008.54 118.067 1009.34 120.6C1010.14 123 1010.54 125.533 1010.54 128.2C1010.54 133.533 1009.4 137.333 1007.14 139.6C1004.87 141.733 1001.87 142.8 998.14 142.8H944.538Z" fill="white"/>
</mask>
<g mask="url(#mask1_22_112)">
<g filter="url(#filter0_d_22_112)">
<path d="M1010 -34.8H8C4.68629 -34.8 2 -32.1137 2 -28.8V59.2C2 62.5137 4.68629 65.2 8 65.2H1010C1013.31 65.2 1016 62.5137 1016 59.2V-28.8C1016 -32.1137 1013.31 -34.8 1010 -34.8Z" fill="white"/>
</g>
</g>
<defs>
<filter id="filter0_d_22_112" x="-2" y="-34.8" width="1022" height="108" filterUnits="userSpaceOnUse" color-interpolation-filters="sRGB">
<feFlood flood-opacity="0" result="BackgroundImageFix"/>
<feColorMatrix in="SourceAlpha" type="matrix" values="0 0 0 0 0 0 0 0 0 0 0 0 0 0 0 0 0 0 127 0" result="hardAlpha"/>
<feOffset dy="4"/>
<feGaussianBlur stdDeviation="2"/>
<feComposite in2="hardAlpha" operator="out"/>
<feColorMatrix type="matrix" values="0 0 0 0 0.160784 0 0 0 0 0.384314 0 0 0 0 1 0 0 0 1 0"/>
<feBlend mode="normal" in2="BackgroundImageFix" result="effect1_dropShadow_22_112"/>
<feBlend mode="normal" in="SourceGraphic" in2="effect1_dropShadow_22_112" result="shape"/>
</filter>
</defs>
</svg>
