<svg width="351" height="222" viewBox="0 0 351 222" fill="none" xmlns="http://www.w3.org/2000/svg">
<rect width="351" height="222" fill="url(#paint0_linear_106_411)"/>
<path d="M102.216 189.785C101.913 190.042 101.516 190.252 101.026 190.415C100.56 190.555 100.011 190.625 99.3814 190.625C98.5414 190.625 97.8414 190.52 97.2814 190.31C96.7447 190.1 96.3947 189.738 96.2314 189.225C95.578 187.172 95.0414 185.515 94.6214 184.255C94.2014 182.972 93.8747 181.852 93.6414 180.895H93.4664C93.3964 182.272 93.338 183.532 93.2914 184.675C93.268 185.795 93.2447 186.892 93.2214 187.965C93.2214 189.038 93.198 190.123 93.1514 191.22C93.128 192.317 93.0814 193.53 93.0114 194.86C92.708 194.977 92.3114 195.07 91.8214 195.14C91.3314 195.233 90.8414 195.28 90.3514 195.28C89.3247 195.28 88.5197 195.117 87.9364 194.79C87.3764 194.463 87.0964 193.868 87.0964 193.005L88.1114 175.155C88.298 174.852 88.7064 174.525 89.3364 174.175C89.9664 173.825 90.853 173.65 91.9964 173.65C93.233 173.65 94.2014 173.848 94.9014 174.245C95.6014 174.618 96.1147 175.237 96.4414 176.1C96.6514 176.66 96.873 177.302 97.1064 178.025C97.363 178.748 97.608 179.495 97.8414 180.265C98.098 181.035 98.343 181.805 98.5764 182.575C98.8097 183.322 99.0197 183.998 99.2064 184.605H99.3814C99.9414 182.645 100.501 180.755 101.061 178.935C101.621 177.092 102.135 175.552 102.601 174.315C102.951 174.128 103.395 173.977 103.931 173.86C104.491 173.72 105.11 173.65 105.786 173.65C106.93 173.65 107.863 173.825 108.586 174.175C109.31 174.502 109.73 174.98 109.846 175.61C109.94 176.077 110.033 176.8 110.126 177.78C110.243 178.737 110.36 179.822 110.476 181.035C110.593 182.248 110.71 183.532 110.826 184.885C110.943 186.238 111.048 187.545 111.141 188.805C111.258 190.042 111.351 191.185 111.421 192.235C111.491 193.262 111.538 194.055 111.561 194.615C111.165 194.848 110.745 195.012 110.301 195.105C109.881 195.222 109.333 195.28 108.656 195.28C107.77 195.28 107.023 195.128 106.416 194.825C105.81 194.522 105.483 193.927 105.436 193.04C105.296 190.497 105.203 188.21 105.156 186.18C105.133 184.15 105.086 182.447 105.016 181.07H104.841C104.608 181.98 104.27 183.123 103.826 184.5C103.383 185.877 102.846 187.638 102.216 189.785ZM117.134 190.66C116.878 190.077 116.598 189.423 116.294 188.7C116.014 187.977 115.711 187.148 115.384 186.215C115.081 185.282 114.754 184.22 114.404 183.03C114.078 181.817 113.728 180.428 113.354 178.865C113.681 178.538 114.113 178.258 114.649 178.025C115.209 177.768 115.816 177.64 116.469 177.64C117.286 177.64 117.963 177.815 118.499 178.165C119.036 178.492 119.433 179.122 119.689 180.055L122.454 189.68H122.594C122.874 188.887 123.143 188.023 123.399 187.09C123.679 186.157 123.948 185.2 124.204 184.22C124.461 183.217 124.694 182.225 124.904 181.245C125.138 180.242 125.336 179.262 125.499 178.305C126.339 177.862 127.261 177.64 128.264 177.64C129.081 177.64 129.758 177.815 130.294 178.165C130.831 178.515 131.099 179.122 131.099 179.985C131.099 180.615 131.018 181.35 130.854 182.19C130.691 183.007 130.469 183.882 130.189 184.815C129.933 185.748 129.618 186.717 129.244 187.72C128.894 188.7 128.521 189.668 128.124 190.625C127.728 191.582 127.319 192.492 126.899 193.355C126.479 194.195 126.071 194.953 125.674 195.63C125.021 196.773 124.414 197.707 123.854 198.43C123.294 199.153 122.758 199.713 122.244 200.11C121.731 200.53 121.218 200.81 120.704 200.95C120.191 201.113 119.654 201.195 119.094 201.195C118.114 201.195 117.321 200.903 116.714 200.32C116.108 199.737 115.746 198.978 115.629 198.045C116.376 197.462 117.123 196.808 117.869 196.085C118.616 195.385 119.293 194.662 119.899 193.915C119.503 193.798 119.071 193.53 118.604 193.11C118.161 192.667 117.671 191.85 117.134 190.66ZM148.102 189.925C148.102 191.698 147.437 193.087 146.107 194.09C144.777 195.093 142.817 195.595 140.227 195.595C139.247 195.595 138.337 195.525 137.497 195.385C136.657 195.245 135.933 195.035 135.327 194.755C134.743 194.452 134.277 194.078 133.927 193.635C133.6 193.192 133.437 192.667 133.437 192.06C133.437 191.5 133.553 191.033 133.787 190.66C134.02 190.263 134.3 189.937 134.627 189.68C135.303 190.053 136.073 190.392 136.937 190.695C137.823 190.975 138.838 191.115 139.982 191.115C140.705 191.115 141.253 191.01 141.627 190.8C142.023 190.59 142.222 190.31 142.222 189.96C142.222 189.633 142.082 189.377 141.802 189.19C141.522 189.003 141.055 188.852 140.402 188.735L139.352 188.525C137.322 188.128 135.805 187.51 134.802 186.67C133.822 185.807 133.332 184.582 133.332 182.995C133.332 182.132 133.518 181.35 133.892 180.65C134.265 179.95 134.79 179.367 135.467 178.9C136.143 178.433 136.948 178.072 137.882 177.815C138.838 177.558 139.888 177.43 141.032 177.43C141.895 177.43 142.7 177.5 143.447 177.64C144.217 177.757 144.882 177.943 145.442 178.2C146.002 178.457 146.445 178.795 146.772 179.215C147.098 179.612 147.262 180.09 147.262 180.65C147.262 181.187 147.157 181.653 146.947 182.05C146.76 182.423 146.515 182.738 146.212 182.995C146.025 182.878 145.745 182.762 145.372 182.645C144.998 182.505 144.59 182.388 144.147 182.295C143.703 182.178 143.248 182.085 142.782 182.015C142.338 181.945 141.93 181.91 141.557 181.91C140.787 181.91 140.192 182.003 139.772 182.19C139.352 182.353 139.142 182.622 139.142 182.995C139.142 183.252 139.258 183.462 139.492 183.625C139.725 183.788 140.168 183.94 140.822 184.08L141.907 184.325C144.147 184.838 145.733 185.55 146.667 186.46C147.623 187.347 148.102 188.502 148.102 189.925ZM156.928 189.155C156.928 189.762 157.115 190.193 157.488 190.45C157.885 190.707 158.433 190.835 159.133 190.835C159.483 190.835 159.845 190.812 160.218 190.765C160.592 190.695 160.918 190.613 161.198 190.52C161.408 190.777 161.583 191.068 161.723 191.395C161.887 191.698 161.968 192.072 161.968 192.515C161.968 193.402 161.63 194.125 160.953 194.685C160.3 195.245 159.133 195.525 157.453 195.525C155.4 195.525 153.813 195.058 152.693 194.125C151.597 193.192 151.048 191.675 151.048 189.575V174.595C151.305 174.525 151.667 174.455 152.133 174.385C152.623 174.292 153.137 174.245 153.673 174.245C154.7 174.245 155.493 174.432 156.053 174.805C156.637 175.155 156.928 175.913 156.928 177.08V179.32H161.513C161.653 179.577 161.782 179.903 161.898 180.3C162.038 180.673 162.108 181.093 162.108 181.56C162.108 182.377 161.922 182.972 161.548 183.345C161.198 183.695 160.72 183.87 160.113 183.87H156.928V189.155ZM173.782 195.56C172.405 195.56 171.122 195.373 169.932 195C168.765 194.603 167.738 194.02 166.852 193.25C165.988 192.48 165.3 191.512 164.787 190.345C164.297 189.178 164.052 187.813 164.052 186.25C164.052 184.71 164.297 183.392 164.787 182.295C165.3 181.175 165.965 180.265 166.782 179.565C167.598 178.842 168.532 178.317 169.582 177.99C170.632 177.64 171.705 177.465 172.802 177.465C174.038 177.465 175.158 177.652 176.162 178.025C177.188 178.398 178.063 178.912 178.787 179.565C179.533 180.218 180.105 181 180.502 181.91C180.922 182.82 181.132 183.812 181.132 184.885C181.132 185.678 180.91 186.285 180.467 186.705C180.023 187.125 179.405 187.393 178.612 187.51L169.967 188.805C170.223 189.575 170.748 190.158 171.542 190.555C172.335 190.928 173.245 191.115 174.272 191.115C175.228 191.115 176.127 190.998 176.967 190.765C177.83 190.508 178.53 190.217 179.067 189.89C179.44 190.123 179.755 190.45 180.012 190.87C180.268 191.29 180.397 191.733 180.397 192.2C180.397 193.25 179.907 194.032 178.927 194.545C178.18 194.942 177.34 195.21 176.407 195.35C175.473 195.49 174.598 195.56 173.782 195.56ZM172.802 181.805C172.242 181.805 171.752 181.898 171.332 182.085C170.935 182.272 170.608 182.517 170.352 182.82C170.095 183.1 169.897 183.427 169.757 183.8C169.64 184.15 169.57 184.512 169.547 184.885L175.532 183.905C175.462 183.438 175.205 182.972 174.762 182.505C174.318 182.038 173.665 181.805 172.802 181.805ZM189.946 194.965C189.712 195.035 189.339 195.105 188.826 195.175C188.336 195.245 187.822 195.28 187.286 195.28C186.772 195.28 186.306 195.245 185.886 195.175C185.489 195.105 185.151 194.965 184.871 194.755C184.591 194.545 184.369 194.265 184.206 193.915C184.066 193.542 183.996 193.063 183.996 192.48V181.98C183.996 181.443 184.089 180.988 184.276 180.615C184.486 180.218 184.777 179.868 185.151 179.565C185.524 179.262 185.979 178.993 186.516 178.76C187.076 178.503 187.671 178.282 188.301 178.095C188.931 177.908 189.584 177.768 190.261 177.675C190.937 177.558 191.614 177.5 192.291 177.5C193.411 177.5 194.297 177.722 194.951 178.165C195.604 178.585 195.931 179.285 195.931 180.265C195.931 180.592 195.884 180.918 195.791 181.245C195.697 181.548 195.581 181.828 195.441 182.085C194.951 182.085 194.449 182.108 193.936 182.155C193.422 182.202 192.921 182.272 192.431 182.365C191.941 182.458 191.474 182.563 191.031 182.68C190.611 182.773 190.249 182.89 189.946 183.03V194.965ZM201.592 190.66C201.336 190.077 201.056 189.423 200.752 188.7C200.472 187.977 200.169 187.148 199.842 186.215C199.539 185.282 199.212 184.22 198.862 183.03C198.536 181.817 198.186 180.428 197.812 178.865C198.139 178.538 198.571 178.258 199.107 178.025C199.667 177.768 200.274 177.64 200.927 177.64C201.744 177.64 202.421 177.815 202.957 178.165C203.494 178.492 203.891 179.122 204.147 180.055L206.912 189.68H207.052C207.332 188.887 207.601 188.023 207.857 187.09C208.137 186.157 208.406 185.2 208.662 184.22C208.919 183.217 209.152 182.225 209.362 181.245C209.596 180.242 209.794 179.262 209.957 178.305C210.797 177.862 211.719 177.64 212.722 177.64C213.539 177.64 214.216 177.815 214.752 178.165C215.289 178.515 215.557 179.122 215.557 179.985C215.557 180.615 215.476 181.35 215.312 182.19C215.149 183.007 214.927 183.882 214.647 184.815C214.391 185.748 214.076 186.717 213.702 187.72C213.352 188.7 212.979 189.668 212.582 190.625C212.186 191.582 211.777 192.492 211.357 193.355C210.937 194.195 210.529 194.953 210.132 195.63C209.479 196.773 208.872 197.707 208.312 198.43C207.752 199.153 207.216 199.713 206.702 200.11C206.189 200.53 205.676 200.81 205.162 200.95C204.649 201.113 204.112 201.195 203.552 201.195C202.572 201.195 201.779 200.903 201.172 200.32C200.566 199.737 200.204 198.978 200.087 198.045C200.834 197.462 201.581 196.808 202.327 196.085C203.074 195.385 203.751 194.662 204.357 193.915C203.961 193.798 203.529 193.53 203.062 193.11C202.619 192.667 202.129 191.85 201.592 190.66ZM231.621 190.625C231.948 190.718 232.368 190.788 232.881 190.835C233.395 190.858 233.885 190.87 234.351 190.87C235.285 190.87 236.055 190.683 236.661 190.31C237.291 189.913 237.606 189.307 237.606 188.49C237.606 187.72 237.35 187.172 236.836 186.845C236.323 186.518 235.541 186.355 234.491 186.355H231.621V190.625ZM231.621 182.085H234.176C235.18 182.085 235.903 181.898 236.346 181.525C236.813 181.152 237.046 180.603 237.046 179.88C237.046 179.25 236.778 178.748 236.241 178.375C235.728 178.002 234.946 177.815 233.896 177.815C233.546 177.815 233.138 177.827 232.671 177.85C232.228 177.873 231.878 177.908 231.621 177.955V182.085ZM233.896 195.56C233.5 195.56 233.033 195.548 232.496 195.525C231.96 195.502 231.4 195.455 230.816 195.385C230.256 195.315 229.696 195.222 229.136 195.105C228.576 195.012 228.063 194.872 227.596 194.685C226.313 194.195 225.671 193.343 225.671 192.13V175.785C225.671 175.295 225.8 174.922 226.056 174.665C226.336 174.385 226.71 174.163 227.176 174C227.97 173.72 228.961 173.522 230.151 173.405C231.341 173.265 232.566 173.195 233.826 173.195C236.813 173.195 239.111 173.697 240.721 174.7C242.331 175.703 243.136 177.255 243.136 179.355C243.136 180.405 242.833 181.315 242.226 182.085C241.62 182.832 240.803 183.38 239.776 183.73C240.943 184.057 241.911 184.652 242.681 185.515C243.475 186.378 243.871 187.463 243.871 188.77C243.871 191.08 243.008 192.795 241.281 193.915C239.578 195.012 237.116 195.56 233.896 195.56ZM254.166 191.22C254.563 191.22 254.995 191.185 255.461 191.115C255.951 191.022 256.313 190.905 256.546 190.765V187.965L254.026 188.175C253.373 188.222 252.836 188.362 252.416 188.595C251.996 188.828 251.786 189.178 251.786 189.645C251.786 190.112 251.961 190.497 252.311 190.8C252.685 191.08 253.303 191.22 254.166 191.22ZM253.886 177.465C255.146 177.465 256.29 177.593 257.316 177.85C258.366 178.107 259.253 178.503 259.976 179.04C260.723 179.553 261.295 180.218 261.691 181.035C262.088 181.828 262.286 182.773 262.286 183.87V191.71C262.286 192.317 262.111 192.818 261.761 193.215C261.435 193.588 261.038 193.915 260.571 194.195C259.055 195.105 256.92 195.56 254.166 195.56C252.93 195.56 251.81 195.443 250.806 195.21C249.826 194.977 248.975 194.627 248.251 194.16C247.551 193.693 247.003 193.098 246.606 192.375C246.233 191.652 246.046 190.812 246.046 189.855C246.046 188.245 246.525 187.008 247.481 186.145C248.438 185.282 249.92 184.745 251.926 184.535L256.511 184.045V183.8C256.511 183.123 256.208 182.645 255.601 182.365C255.018 182.062 254.166 181.91 253.046 181.91C252.16 181.91 251.296 182.003 250.456 182.19C249.616 182.377 248.858 182.61 248.181 182.89C247.878 182.68 247.621 182.365 247.411 181.945C247.201 181.502 247.096 181.047 247.096 180.58C247.096 179.973 247.236 179.495 247.516 179.145C247.82 178.772 248.275 178.457 248.881 178.2C249.558 177.943 250.351 177.757 251.261 177.64C252.195 177.523 253.07 177.465 253.886 177.465ZM271.979 194.965C271.723 195.012 271.338 195.07 270.824 195.14C270.334 195.233 269.833 195.28 269.319 195.28C268.806 195.28 268.339 195.245 267.919 195.175C267.523 195.105 267.184 194.965 266.904 194.755C266.624 194.545 266.403 194.265 266.239 193.915C266.099 193.542 266.029 193.063 266.029 192.48V172.18C266.286 172.133 266.659 172.075 267.149 172.005C267.663 171.912 268.176 171.865 268.689 171.865C269.203 171.865 269.658 171.9 270.054 171.97C270.474 172.04 270.824 172.18 271.104 172.39C271.384 172.6 271.594 172.892 271.734 173.265C271.898 173.615 271.979 174.082 271.979 174.665V194.965ZM281.789 194.965C281.532 195.012 281.147 195.07 280.634 195.14C280.144 195.233 279.642 195.28 279.129 195.28C278.616 195.28 278.149 195.245 277.729 195.175C277.332 195.105 276.994 194.965 276.714 194.755C276.434 194.545 276.212 194.265 276.049 193.915C275.909 193.542 275.839 193.063 275.839 192.48V172.18C276.096 172.133 276.469 172.075 276.959 172.005C277.472 171.912 277.986 171.865 278.499 171.865C279.012 171.865 279.467 171.9 279.864 171.97C280.284 172.04 280.634 172.18 280.914 172.39C281.194 172.6 281.404 172.892 281.544 173.265C281.707 173.615 281.789 174.082 281.789 174.665V194.965Z" fill="white"/>
<path d="M252.318 124.84C252.318 122.653 252.985 120.867 254.318 119.48C255.705 118.04 257.598 117.32 259.998 117.32C262.398 117.32 264.265 118.04 265.598 119.48C266.985 120.867 267.678 122.653 267.678 124.84C267.678 127.027 266.985 128.84 265.598 130.28C264.265 131.667 262.398 132.36 259.998 132.36C257.598 132.36 255.705 131.667 254.318 130.28C252.985 128.84 252.318 127.027 252.318 124.84ZM254.958 114.36C254.051 113.88 253.198 113.027 252.398 111.8C251.598 110.52 251.198 109.027 251.198 107.32C251.198 105.667 251.625 104.44 252.478 103.64C253.385 102.787 254.691 102.147 256.398 101.72L262.638 100.2C265.305 99.5067 266.638 98.2267 266.638 96.36C266.638 95.3467 266.131 94.4667 265.118 93.72C264.158 92.9733 262.478 92.6 260.078 92.6C257.891 92.6 255.838 92.8933 253.918 93.48C251.998 94.0133 250.451 94.6533 249.278 95.4C248.371 94.7067 247.598 93.88 246.958 92.92C246.318 91.9067 245.998 90.7067 245.998 89.32C245.998 87.9333 246.398 86.7333 247.198 85.72C247.998 84.6533 249.091 83.8 250.478 83.16C251.918 82.4667 253.598 81.96 255.518 81.64C257.491 81.32 259.651 81.16 261.998 81.16C268.291 81.16 273.038 82.5733 276.238 85.4C279.491 88.1733 281.118 91.8267 281.118 96.36C281.118 104.893 275.091 110.36 263.038 112.76L254.958 114.36Z" fill="white"/>
<path d="M201.889 44.305C201.889 43.3483 202.181 42.5667 202.764 41.96C203.371 41.33 204.199 41.015 205.249 41.015C206.299 41.015 207.116 41.33 207.699 41.96C208.306 42.5667 208.609 43.3483 208.609 44.305C208.609 45.2617 208.306 46.055 207.699 46.685C207.116 47.2917 206.299 47.595 205.249 47.595C204.199 47.595 203.371 47.2917 202.764 46.685C202.181 46.055 201.889 45.2617 201.889 44.305ZM203.044 39.72C202.648 39.51 202.274 39.1367 201.924 38.6C201.574 38.04 201.399 37.3867 201.399 36.64C201.399 35.9167 201.586 35.38 201.959 35.03C202.356 34.6567 202.928 34.3767 203.674 34.19L206.404 33.525C207.571 33.2217 208.154 32.6617 208.154 31.845C208.154 31.4017 207.933 31.0167 207.489 30.69C207.069 30.3633 206.334 30.2 205.284 30.2C204.328 30.2 203.429 30.3283 202.589 30.585C201.749 30.8183 201.073 31.0983 200.559 31.425C200.163 31.1217 199.824 30.76 199.544 30.34C199.264 29.8967 199.124 29.3717 199.124 28.765C199.124 28.1583 199.299 27.6333 199.649 27.19C199.999 26.7233 200.478 26.35 201.084 26.07C201.714 25.7667 202.449 25.545 203.289 25.405C204.153 25.265 205.098 25.195 206.124 25.195C208.878 25.195 210.954 25.8133 212.354 27.05C213.778 28.2633 214.489 29.8617 214.489 31.845C214.489 35.5783 211.853 37.97 206.579 39.02L203.044 39.72Z" fill="white"/>
<path d="M95.7888 155.22C95.0187 152.598 95.189 150.22 96.2998 148.087C97.4558 145.872 99.473 144.342 102.352 143.496C105.23 142.651 107.722 142.857 109.829 144.115C111.98 145.29 113.441 147.188 114.211 149.811C114.981 152.434 114.788 154.853 113.632 157.068C112.521 159.201 110.527 160.69 107.648 161.535C104.77 162.38 102.255 162.215 100.103 161.041C97.9971 159.783 96.5589 157.843 95.7888 155.22ZM95.2643 141.721C94.0078 141.465 92.6838 140.742 91.2923 139.553C89.882 138.299 88.8764 136.649 88.2753 134.602C87.6931 132.619 87.7728 130.998 88.5145 129.738C89.3014 128.395 90.6432 127.167 92.5398 126.054L99.4885 122.034C102.443 120.263 103.591 118.258 102.934 116.019C102.577 114.804 101.659 113.927 100.181 113.388C98.7665 112.831 96.6201 112.975 93.7416 113.82C91.119 114.59 88.7596 115.665 86.6634 117.045C84.5485 118.361 82.9189 119.673 81.7746 120.982C80.443 120.47 79.2243 119.75 78.1186 118.824C76.9942 117.834 76.1878 116.508 75.6994 114.845C75.2111 113.182 75.2682 111.602 75.8708 110.104C76.4546 108.543 77.4654 107.135 78.9031 105.879C80.386 104.54 82.2225 103.341 84.4126 102.281C86.6667 101.202 89.2009 100.25 92.0154 99.4231C99.5634 97.2068 105.754 97.2302 110.588 99.4934C115.466 101.674 118.704 105.483 120.3 110.92C123.306 121.154 118.003 129.833 104.392 136.957L95.2643 141.721Z" fill="white"/>
<path d="M176.849 147.607C152.21 147.607 132.129 127.786 132.078 103.422C132.035 79.0082 152.074 59.1091 176.749 59.0664H176.842C201.481 59.0664 221.555 78.8873 221.591 103.251C221.642 127.658 201.603 147.55 176.928 147.607H176.849Z" fill="#2F2F2F"/>
<path d="M102.216 189.785C101.913 190.042 101.516 190.252 101.026 190.415C100.56 190.555 100.011 190.625 99.3814 190.625C98.5414 190.625 97.8414 190.52 97.2814 190.31C96.7447 190.1 96.3947 189.738 96.2314 189.225C95.578 187.172 95.0414 185.515 94.6214 184.255C94.2014 182.972 93.8747 181.852 93.6414 180.895H93.4664C93.3964 182.272 93.338 183.532 93.2914 184.675C93.268 185.795 93.2447 186.892 93.2214 187.965C93.2214 189.038 93.198 190.123 93.1514 191.22C93.128 192.317 93.0814 193.53 93.0114 194.86C92.708 194.977 92.3114 195.07 91.8214 195.14C91.3314 195.233 90.8414 195.28 90.3514 195.28C89.3247 195.28 88.5197 195.117 87.9364 194.79C87.3764 194.463 87.0964 193.868 87.0964 193.005L88.1114 175.155C88.298 174.852 88.7064 174.525 89.3364 174.175C89.9664 173.825 90.853 173.65 91.9964 173.65C93.233 173.65 94.2014 173.848 94.9014 174.245C95.6014 174.618 96.1147 175.237 96.4414 176.1C96.6514 176.66 96.873 177.302 97.1064 178.025C97.363 178.748 97.608 179.495 97.8414 180.265C98.098 181.035 98.343 181.805 98.5764 182.575C98.8097 183.322 99.0197 183.998 99.2064 184.605H99.3814C99.9414 182.645 100.501 180.755 101.061 178.935C101.621 177.092 102.135 175.552 102.601 174.315C102.951 174.128 103.395 173.977 103.931 173.86C104.491 173.72 105.11 173.65 105.786 173.65C106.93 173.65 107.863 173.825 108.586 174.175C109.31 174.502 109.73 174.98 109.846 175.61C109.94 176.077 110.033 176.8 110.126 177.78C110.243 178.737 110.36 179.822 110.476 181.035C110.593 182.248 110.71 183.532 110.826 184.885C110.943 186.238 111.048 187.545 111.141 188.805C111.258 190.042 111.351 191.185 111.421 192.235C111.491 193.262 111.538 194.055 111.561 194.615C111.165 194.848 110.745 195.012 110.301 195.105C109.881 195.222 109.333 195.28 108.656 195.28C107.77 195.28 107.023 195.128 106.416 194.825C105.81 194.522 105.483 193.927 105.436 193.04C105.296 190.497 105.203 188.21 105.156 186.18C105.133 184.15 105.086 182.447 105.016 181.07H104.841C104.608 181.98 104.27 183.123 103.826 184.5C103.383 185.877 102.846 187.638 102.216 189.785ZM117.134 190.66C116.878 190.077 116.598 189.423 116.294 188.7C116.014 187.977 115.711 187.148 115.384 186.215C115.081 185.282 114.754 184.22 114.404 183.03C114.078 181.817 113.728 180.428 113.354 178.865C113.681 178.538 114.113 178.258 114.649 178.025C115.209 177.768 115.816 177.64 116.469 177.64C117.286 177.64 117.963 177.815 118.499 178.165C119.036 178.492 119.433 179.122 119.689 180.055L122.454 189.68H122.594C122.874 188.887 123.143 188.023 123.399 187.09C123.679 186.157 123.948 185.2 124.204 184.22C124.461 183.217 124.694 182.225 124.904 181.245C125.138 180.242 125.336 179.262 125.499 178.305C126.339 177.862 127.261 177.64 128.264 177.64C129.081 177.64 129.758 177.815 130.294 178.165C130.831 178.515 131.099 179.122 131.099 179.985C131.099 180.615 131.018 181.35 130.854 182.19C130.691 183.007 130.469 183.882 130.189 184.815C129.933 185.748 129.618 186.717 129.244 187.72C128.894 188.7 128.521 189.668 128.124 190.625C127.728 191.582 127.319 192.492 126.899 193.355C126.479 194.195 126.071 194.953 125.674 195.63C125.021 196.773 124.414 197.707 123.854 198.43C123.294 199.153 122.758 199.713 122.244 200.11C121.731 200.53 121.218 200.81 120.704 200.95C120.191 201.113 119.654 201.195 119.094 201.195C118.114 201.195 117.321 200.903 116.714 200.32C116.108 199.737 115.746 198.978 115.629 198.045C116.376 197.462 117.123 196.808 117.869 196.085C118.616 195.385 119.293 194.662 119.899 193.915C119.503 193.798 119.071 193.53 118.604 193.11C118.161 192.667 117.671 191.85 117.134 190.66ZM148.102 189.925C148.102 191.698 147.437 193.087 146.107 194.09C144.777 195.093 142.817 195.595 140.227 195.595C139.247 195.595 138.337 195.525 137.497 195.385C136.657 195.245 135.933 195.035 135.327 194.755C134.743 194.452 134.277 194.078 133.927 193.635C133.6 193.192 133.437 192.667 133.437 192.06C133.437 191.5 133.553 191.033 133.787 190.66C134.02 190.263 134.3 189.937 134.627 189.68C135.303 190.053 136.073 190.392 136.937 190.695C137.823 190.975 138.838 191.115 139.982 191.115C140.705 191.115 141.253 191.01 141.627 190.8C142.023 190.59 142.222 190.31 142.222 189.96C142.222 189.633 142.082 189.377 141.802 189.19C141.522 189.003 141.055 188.852 140.402 188.735L139.352 188.525C137.322 188.128 135.805 187.51 134.802 186.67C133.822 185.807 133.332 184.582 133.332 182.995C133.332 182.132 133.518 181.35 133.892 180.65C134.265 179.95 134.79 179.367 135.467 178.9C136.143 178.433 136.948 178.072 137.882 177.815C138.838 177.558 139.888 177.43 141.032 177.43C141.895 177.43 142.7 177.5 143.447 177.64C144.217 177.757 144.882 177.943 145.442 178.2C146.002 178.457 146.445 178.795 146.772 179.215C147.098 179.612 147.262 180.09 147.262 180.65C147.262 181.187 147.157 181.653 146.947 182.05C146.76 182.423 146.515 182.738 146.212 182.995C146.025 182.878 145.745 182.762 145.372 182.645C144.998 182.505 144.59 182.388 144.147 182.295C143.703 182.178 143.248 182.085 142.782 182.015C142.338 181.945 141.93 181.91 141.557 181.91C140.787 181.91 140.192 182.003 139.772 182.19C139.352 182.353 139.142 182.622 139.142 182.995C139.142 183.252 139.258 183.462 139.492 183.625C139.725 183.788 140.168 183.94 140.822 184.08L141.907 184.325C144.147 184.838 145.733 185.55 146.667 186.46C147.623 187.347 148.102 188.502 148.102 189.925ZM156.928 189.155C156.928 189.762 157.115 190.193 157.488 190.45C157.885 190.707 158.433 190.835 159.133 190.835C159.483 190.835 159.845 190.812 160.218 190.765C160.592 190.695 160.918 190.613 161.198 190.52C161.408 190.777 161.583 191.068 161.723 191.395C161.887 191.698 161.968 192.072 161.968 192.515C161.968 193.402 161.63 194.125 160.953 194.685C160.3 195.245 159.133 195.525 157.453 195.525C155.4 195.525 153.813 195.058 152.693 194.125C151.597 193.192 151.048 191.675 151.048 189.575V174.595C151.305 174.525 151.667 174.455 152.133 174.385C152.623 174.292 153.137 174.245 153.673 174.245C154.7 174.245 155.493 174.432 156.053 174.805C156.637 175.155 156.928 175.913 156.928 177.08V179.32H161.513C161.653 179.577 161.782 179.903 161.898 180.3C162.038 180.673 162.108 181.093 162.108 181.56C162.108 182.377 161.922 182.972 161.548 183.345C161.198 183.695 160.72 183.87 160.113 183.87H156.928V189.155ZM173.782 195.56C172.405 195.56 171.122 195.373 169.932 195C168.765 194.603 167.738 194.02 166.852 193.25C165.988 192.48 165.3 191.512 164.787 190.345C164.297 189.178 164.052 187.813 164.052 186.25C164.052 184.71 164.297 183.392 164.787 182.295C165.3 181.175 165.965 180.265 166.782 179.565C167.598 178.842 168.532 178.317 169.582 177.99C170.632 177.64 171.705 177.465 172.802 177.465C174.038 177.465 175.158 177.652 176.162 178.025C177.188 178.398 178.063 178.912 178.787 179.565C179.533 180.218 180.105 181 180.502 181.91C180.922 182.82 181.132 183.812 181.132 184.885C181.132 185.678 180.91 186.285 180.467 186.705C180.023 187.125 179.405 187.393 178.612 187.51L169.967 188.805C170.223 189.575 170.748 190.158 171.542 190.555C172.335 190.928 173.245 191.115 174.272 191.115C175.228 191.115 176.127 190.998 176.967 190.765C177.83 190.508 178.53 190.217 179.067 189.89C179.44 190.123 179.755 190.45 180.012 190.87C180.268 191.29 180.397 191.733 180.397 192.2C180.397 193.25 179.907 194.032 178.927 194.545C178.18 194.942 177.34 195.21 176.407 195.35C175.473 195.49 174.598 195.56 173.782 195.56ZM172.802 181.805C172.242 181.805 171.752 181.898 171.332 182.085C170.935 182.272 170.608 182.517 170.352 182.82C170.095 183.1 169.897 183.427 169.757 183.8C169.64 184.15 169.57 184.512 169.547 184.885L175.532 183.905C175.462 183.438 175.205 182.972 174.762 182.505C174.318 182.038 173.665 181.805 172.802 181.805ZM189.946 194.965C189.712 195.035 189.339 195.105 188.826 195.175C188.336 195.245 187.822 195.28 187.286 195.28C186.772 195.28 186.306 195.245 185.886 195.175C185.489 195.105 185.151 194.965 184.871 194.755C184.591 194.545 184.369 194.265 184.206 193.915C184.066 193.542 183.996 193.063 183.996 192.48V181.98C183.996 181.443 184.089 180.988 184.276 180.615C184.486 180.218 184.777 179.868 185.151 179.565C185.524 179.262 185.979 178.993 186.516 178.76C187.076 178.503 187.671 178.282 188.301 178.095C188.931 177.908 189.584 177.768 190.261 177.675C190.937 177.558 191.614 177.5 192.291 177.5C193.411 177.5 194.297 177.722 194.951 178.165C195.604 178.585 195.931 179.285 195.931 180.265C195.931 180.592 195.884 180.918 195.791 181.245C195.697 181.548 195.581 181.828 195.441 182.085C194.951 182.085 194.449 182.108 193.936 182.155C193.422 182.202 192.921 182.272 192.431 182.365C191.941 182.458 191.474 182.563 191.031 182.68C190.611 182.773 190.249 182.89 189.946 183.03V194.965ZM201.592 190.66C201.336 190.077 201.056 189.423 200.752 188.7C200.472 187.977 200.169 187.148 199.842 186.215C199.539 185.282 199.212 184.22 198.862 183.03C198.536 181.817 198.186 180.428 197.812 178.865C198.139 178.538 198.571 178.258 199.107 178.025C199.667 177.768 200.274 177.64 200.927 177.64C201.744 177.64 202.421 177.815 202.957 178.165C203.494 178.492 203.891 179.122 204.147 180.055L206.912 189.68H207.052C207.332 188.887 207.601 188.023 207.857 187.09C208.137 186.157 208.406 185.2 208.662 184.22C208.919 183.217 209.152 182.225 209.362 181.245C209.596 180.242 209.794 179.262 209.957 178.305C210.797 177.862 211.719 177.64 212.722 177.64C213.539 177.64 214.216 177.815 214.752 178.165C215.289 178.515 215.557 179.122 215.557 179.985C215.557 180.615 215.476 181.35 215.312 182.19C215.149 183.007 214.927 183.882 214.647 184.815C214.391 185.748 214.076 186.717 213.702 187.72C213.352 188.7 212.979 189.668 212.582 190.625C212.186 191.582 211.777 192.492 211.357 193.355C210.937 194.195 210.529 194.953 210.132 195.63C209.479 196.773 208.872 197.707 208.312 198.43C207.752 199.153 207.216 199.713 206.702 200.11C206.189 200.53 205.676 200.81 205.162 200.95C204.649 201.113 204.112 201.195 203.552 201.195C202.572 201.195 201.779 200.903 201.172 200.32C200.566 199.737 200.204 198.978 200.087 198.045C200.834 197.462 201.581 196.808 202.327 196.085C203.074 195.385 203.751 194.662 204.357 193.915C203.961 193.798 203.529 193.53 203.062 193.11C202.619 192.667 202.129 191.85 201.592 190.66ZM231.621 190.625C231.948 190.718 232.368 190.788 232.881 190.835C233.395 190.858 233.885 190.87 234.351 190.87C235.285 190.87 236.055 190.683 236.661 190.31C237.291 189.913 237.606 189.307 237.606 188.49C237.606 187.72 237.35 187.172 236.836 186.845C236.323 186.518 235.541 186.355 234.491 186.355H231.621V190.625ZM231.621 182.085H234.176C235.18 182.085 235.903 181.898 236.346 181.525C236.813 181.152 237.046 180.603 237.046 179.88C237.046 179.25 236.778 178.748 236.241 178.375C235.728 178.002 234.946 177.815 233.896 177.815C233.546 177.815 233.138 177.827 232.671 177.85C232.228 177.873 231.878 177.908 231.621 177.955V182.085ZM233.896 195.56C233.5 195.56 233.033 195.548 232.496 195.525C231.96 195.502 231.4 195.455 230.816 195.385C230.256 195.315 229.696 195.222 229.136 195.105C228.576 195.012 228.063 194.872 227.596 194.685C226.313 194.195 225.671 193.343 225.671 192.13V175.785C225.671 175.295 225.8 174.922 226.056 174.665C226.336 174.385 226.71 174.163 227.176 174C227.97 173.72 228.961 173.522 230.151 173.405C231.341 173.265 232.566 173.195 233.826 173.195C236.813 173.195 239.111 173.697 240.721 174.7C242.331 175.703 243.136 177.255 243.136 179.355C243.136 180.405 242.833 181.315 242.226 182.085C241.62 182.832 240.803 183.38 239.776 183.73C240.943 184.057 241.911 184.652 242.681 185.515C243.475 186.378 243.871 187.463 243.871 188.77C243.871 191.08 243.008 192.795 241.281 193.915C239.578 195.012 237.116 195.56 233.896 195.56ZM254.166 191.22C254.563 191.22 254.995 191.185 255.461 191.115C255.951 191.022 256.313 190.905 256.546 190.765V187.965L254.026 188.175C253.373 188.222 252.836 188.362 252.416 188.595C251.996 188.828 251.786 189.178 251.786 189.645C251.786 190.112 251.961 190.497 252.311 190.8C252.685 191.08 253.303 191.22 254.166 191.22ZM253.886 177.465C255.146 177.465 256.29 177.593 257.316 177.85C258.366 178.107 259.253 178.503 259.976 179.04C260.723 179.553 261.295 180.218 261.691 181.035C262.088 181.828 262.286 182.773 262.286 183.87V191.71C262.286 192.317 262.111 192.818 261.761 193.215C261.435 193.588 261.038 193.915 260.571 194.195C259.055 195.105 256.92 195.56 254.166 195.56C252.93 195.56 251.81 195.443 250.806 195.21C249.826 194.977 248.975 194.627 248.251 194.16C247.551 193.693 247.003 193.098 246.606 192.375C246.233 191.652 246.046 190.812 246.046 189.855C246.046 188.245 246.525 187.008 247.481 186.145C248.438 185.282 249.92 184.745 251.926 184.535L256.511 184.045V183.8C256.511 183.123 256.208 182.645 255.601 182.365C255.018 182.062 254.166 181.91 253.046 181.91C252.16 181.91 251.296 182.003 250.456 182.19C249.616 182.377 248.858 182.61 248.181 182.89C247.878 182.68 247.621 182.365 247.411 181.945C247.201 181.502 247.096 181.047 247.096 180.58C247.096 179.973 247.236 179.495 247.516 179.145C247.82 178.772 248.275 178.457 248.881 178.2C249.558 177.943 250.351 177.757 251.261 177.64C252.195 177.523 253.07 177.465 253.886 177.465ZM271.979 194.965C271.723 195.012 271.338 195.07 270.824 195.14C270.334 195.233 269.833 195.28 269.319 195.28C268.806 195.28 268.339 195.245 267.919 195.175C267.523 195.105 267.184 194.965 266.904 194.755C266.624 194.545 266.403 194.265 266.239 193.915C266.099 193.542 266.029 193.063 266.029 192.48V172.18C266.286 172.133 266.659 172.075 267.149 172.005C267.663 171.912 268.176 171.865 268.689 171.865C269.203 171.865 269.658 171.9 270.054 171.97C270.474 172.04 270.824 172.18 271.104 172.39C271.384 172.6 271.594 172.892 271.734 173.265C271.898 173.615 271.979 174.082 271.979 174.665V194.965ZM281.789 194.965C281.532 195.012 281.147 195.07 280.634 195.14C280.144 195.233 279.642 195.28 279.129 195.28C278.616 195.28 278.149 195.245 277.729 195.175C277.332 195.105 276.994 194.965 276.714 194.755C276.434 194.545 276.212 194.265 276.049 193.915C275.909 193.542 275.839 193.063 275.839 192.48V172.18C276.096 172.133 276.469 172.075 276.959 172.005C277.472 171.912 277.986 171.865 278.499 171.865C279.012 171.865 279.467 171.9 279.864 171.97C280.284 172.04 280.634 172.18 280.914 172.39C281.194 172.6 281.404 172.892 281.544 173.265C281.707 173.615 281.789 174.082 281.789 174.665V194.965Z" fill="white"/>
<path d="M252.318 124.84C252.318 122.653 252.985 120.867 254.318 119.48C255.705 118.04 257.598 117.32 259.998 117.32C262.398 117.32 264.265 118.04 265.598 119.48C266.985 120.867 267.678 122.653 267.678 124.84C267.678 127.027 266.985 128.84 265.598 130.28C264.265 131.667 262.398 132.36 259.998 132.36C257.598 132.36 255.705 131.667 254.318 130.28C252.985 128.84 252.318 127.027 252.318 124.84ZM254.958 114.36C254.051 113.88 253.198 113.027 252.398 111.8C251.598 110.52 251.198 109.027 251.198 107.32C251.198 105.667 251.625 104.44 252.478 103.64C253.385 102.787 254.691 102.147 256.398 101.72L262.638 100.2C265.305 99.5067 266.638 98.2267 266.638 96.36C266.638 95.3467 266.131 94.4667 265.118 93.72C264.158 92.9733 262.478 92.6 260.078 92.6C257.891 92.6 255.838 92.8933 253.918 93.48C251.998 94.0133 250.451 94.6533 249.278 95.4C248.371 94.7067 247.598 93.88 246.958 92.92C246.318 91.9067 245.998 90.7067 245.998 89.32C245.998 87.9333 246.398 86.7333 247.198 85.72C247.998 84.6533 249.091 83.8 250.478 83.16C251.918 82.4667 253.598 81.96 255.518 81.64C257.491 81.32 259.651 81.16 261.998 81.16C268.291 81.16 273.038 82.5733 276.238 85.4C279.491 88.1733 281.118 91.8267 281.118 96.36C281.118 104.893 275.091 110.36 263.038 112.76L254.958 114.36Z" fill="white"/>
<path d="M201.889 44.305C201.889 43.3483 202.181 42.5667 202.764 41.96C203.371 41.33 204.199 41.015 205.249 41.015C206.299 41.015 207.116 41.33 207.699 41.96C208.306 42.5667 208.609 43.3483 208.609 44.305C208.609 45.2617 208.306 46.055 207.699 46.685C207.116 47.2917 206.299 47.595 205.249 47.595C204.199 47.595 203.371 47.2917 202.764 46.685C202.181 46.055 201.889 45.2617 201.889 44.305ZM203.044 39.72C202.648 39.51 202.274 39.1367 201.924 38.6C201.574 38.04 201.399 37.3867 201.399 36.64C201.399 35.9167 201.586 35.38 201.959 35.03C202.356 34.6567 202.928 34.3767 203.674 34.19L206.404 33.525C207.571 33.2217 208.154 32.6617 208.154 31.845C208.154 31.4017 207.933 31.0167 207.489 30.69C207.069 30.3633 206.334 30.2 205.284 30.2C204.328 30.2 203.429 30.3283 202.589 30.585C201.749 30.8183 201.073 31.0983 200.559 31.425C200.163 31.1217 199.824 30.76 199.544 30.34C199.264 29.8967 199.124 29.3717 199.124 28.765C199.124 28.1583 199.299 27.6333 199.649 27.19C199.999 26.7233 200.478 26.35 201.084 26.07C201.714 25.7667 202.449 25.545 203.289 25.405C204.153 25.265 205.098 25.195 206.124 25.195C208.878 25.195 210.954 25.8133 212.354 27.05C213.778 28.2633 214.489 29.8617 214.489 31.845C214.489 35.5783 211.853 37.97 206.579 39.02L203.044 39.72Z" fill="white"/>
<path d="M95.7888 155.22C95.0187 152.598 95.189 150.22 96.2998 148.087C97.4558 145.872 99.473 144.342 102.352 143.496C105.23 142.651 107.722 142.857 109.829 144.115C111.98 145.29 113.441 147.188 114.211 149.811C114.981 152.434 114.788 154.853 113.632 157.068C112.521 159.201 110.527 160.69 107.648 161.535C104.77 162.38 102.255 162.215 100.103 161.041C97.9971 159.783 96.5589 157.843 95.7888 155.22ZM95.2643 141.721C94.0078 141.465 92.6838 140.742 91.2923 139.553C89.882 138.299 88.8764 136.649 88.2753 134.602C87.6931 132.619 87.7728 130.998 88.5145 129.738C89.3014 128.395 90.6432 127.167 92.5398 126.054L99.4885 122.034C102.443 120.263 103.591 118.258 102.934 116.019C102.577 114.804 101.659 113.927 100.181 113.388C98.7665 112.831 96.6201 112.975 93.7416 113.82C91.119 114.59 88.7596 115.665 86.6634 117.045C84.5485 118.361 82.9189 119.673 81.7746 120.982C80.443 120.47 79.2243 119.75 78.1186 118.824C76.9942 117.834 76.1878 116.508 75.6994 114.845C75.2111 113.182 75.2682 111.602 75.8708 110.104C76.4546 108.543 77.4654 107.135 78.9031 105.879C80.386 104.54 82.2225 103.341 84.4126 102.281C86.6667 101.202 89.2009 100.25 92.0154 99.4231C99.5634 97.2068 105.754 97.2302 110.588 99.4934C115.466 101.674 118.704 105.483 120.3 110.92C123.306 121.154 118.003 129.833 104.392 136.957L95.2643 141.721Z" fill="white"/>
<path d="M176.849 147.607C152.21 147.607 132.129 127.786 132.078 103.422C132.035 79.0082 152.074 59.1091 176.749 59.0664H176.842C201.481 59.0664 221.555 78.8873 221.591 103.251C221.642 127.658 201.603 147.55 176.928 147.607H176.849Z" fill="#2F2F2F"/>
<path d="M176.842 60.1328C200.884 60.1328 220.477 79.4774 220.506 103.258C220.556 127.075 200.999 146.49 176.921 146.54H176.842C152.8 146.54 133.199 127.196 133.149 103.422C133.113 79.5912 152.67 60.1755 176.749 60.1328H176.842ZM176.842 58H176.749C151.434 58.0427 130.957 78.3826 131 103.422C131.05 128.433 151.571 148.673 176.849 148.673H176.928C202.235 148.616 222.72 128.283 222.669 103.251C222.634 78.2404 202.113 58 176.842 58Z" fill="#464747"/>
<path d="M184.712 74.7497C187.702 81.5462 184.942 91.5065 175.174 96.6181C160.354 104.51 145.49 95.7507 148.789 81.1268C150.988 71.3443 161.087 65.6497 169.597 65.7208C176.296 65.8203 182.355 69.4176 184.712 74.7497Z" fill="white"/>
<path d="M170.028 76.0862C170.416 74.5222 170.1 73.0008 168.972 71.8633C166.729 69.6167 162.431 70.029 158.535 72.7804C154.554 75.5815 152.886 79.4561 154.697 82.1576C155.603 83.5155 157.141 84.1909 158.974 84.2336C157.975 86.537 157.996 89.0466 159.319 91.0515C162.014 95.118 168.152 95.1962 173.579 90.9448C178.819 86.8143 179.918 81.2974 176.583 78.0626C174.901 76.3848 172.544 75.7876 170.028 76.0862ZM163.337 78.9797C161.727 80.0675 159.98 80.0462 159.139 78.9513C158.305 77.828 158.859 76.2284 160.469 75.1051C162.043 73.9676 163.84 73.8752 164.753 74.9274C165.658 75.944 165.241 77.4939 163.775 78.6598C163.689 78.738 163.624 78.7594 163.545 78.8305C163.473 78.866 163.409 78.93 163.337 78.9797ZM166.133 81.9515C168.037 80.5438 170.273 80.4656 171.53 81.8946C172.824 83.288 172.35 85.4919 170.345 87.0205C168.318 88.5845 165.96 88.5276 164.753 86.9849C163.61 85.4706 164.214 83.3236 166.133 81.9515Z" fill="#2F2F2F"/>
<defs>
<linearGradient id="paint0_linear_106_411" x1="3.33585e-06" y1="71" x2="351" y2="142" gradientUnits="userSpaceOnUse">
<stop stop-color="#2962FF"/>
<stop offset="1" stop-color="#96A4FE"/>
</linearGradient>
</defs>
</svg>
