<svg width="351" height="222" viewBox="0 0 351 222" fill="none" xmlns="http://www.w3.org/2000/svg">
<rect width="351" height="222" fill="url(#paint0_linear_106_392)"/>
<path d="M53.0592 202.904C52.8832 202.952 52.6112 203 52.2432 203.048C51.8752 203.096 51.5152 203.12 51.1632 203.12C50.4272 203.12 49.8752 203 49.5072 202.76C49.1392 202.504 48.9552 201.976 48.9552 201.176V197.936C48.5552 197.344 48.1232 196.688 47.6592 195.968C47.1952 195.248 46.7392 194.512 46.2912 193.76C45.8432 193.008 45.4272 192.272 45.0432 191.552C44.6592 190.816 44.3472 190.144 44.1072 189.536C44.3152 189.248 44.5952 188.984 44.9472 188.744C45.3152 188.504 45.7632 188.384 46.2912 188.384C46.9152 188.384 47.4192 188.512 47.8032 188.768C48.2032 189.024 48.5792 189.504 48.9312 190.208L50.9232 194.216H51.0672C51.2912 193.72 51.4832 193.272 51.6432 192.872C51.8192 192.456 51.9872 192.048 52.1472 191.648C52.3072 191.232 52.4752 190.808 52.6512 190.376C52.8272 189.928 53.0272 189.416 53.2512 188.84C53.5392 188.696 53.8592 188.584 54.2112 188.504C54.5632 188.424 54.8992 188.384 55.2192 188.384C55.7792 188.384 56.2512 188.536 56.6352 188.84C57.0352 189.128 57.2352 189.568 57.2352 190.16C57.2352 190.352 57.1952 190.584 57.1152 190.856C57.0352 191.128 56.8512 191.544 56.5632 192.104C56.2752 192.648 55.8512 193.392 55.2912 194.336C54.7472 195.28 54.0032 196.512 53.0592 198.032V202.904ZM69.8903 197.168C69.8903 198.16 69.7383 199.048 69.4343 199.832C69.1303 200.6 68.6983 201.248 68.1383 201.776C67.5943 202.304 66.9383 202.704 66.1703 202.976C65.4023 203.248 64.5463 203.384 63.6023 203.384C62.6583 203.384 61.8023 203.24 61.0343 202.952C60.2663 202.664 59.6023 202.256 59.0423 201.728C58.4983 201.184 58.0743 200.528 57.7703 199.76C57.4663 198.992 57.3143 198.128 57.3143 197.168C57.3143 196.224 57.4663 195.368 57.7703 194.6C58.0743 193.832 58.4983 193.184 59.0423 192.656C59.6023 192.112 60.2663 191.696 61.0343 191.408C61.8023 191.12 62.6583 190.976 63.6023 190.976C64.5463 190.976 65.4023 191.128 66.1703 191.432C66.9383 191.72 67.5943 192.136 68.1383 192.68C68.6983 193.208 69.1303 193.856 69.4343 194.624C69.7383 195.392 69.8903 196.24 69.8903 197.168ZM61.4903 197.168C61.4903 198.144 61.6743 198.896 62.0423 199.424C62.4263 199.936 62.9543 200.192 63.6263 200.192C64.2983 200.192 64.8103 199.928 65.1623 199.4C65.5303 198.872 65.7143 198.128 65.7143 197.168C65.7143 196.208 65.5303 195.472 65.1623 194.96C64.7943 194.432 64.2743 194.168 63.6023 194.168C62.9303 194.168 62.4103 194.432 62.0423 194.96C61.6743 195.472 61.4903 196.208 61.4903 197.168ZM71.8808 191.504C72.0408 191.456 72.2888 191.408 72.6248 191.36C72.9768 191.312 73.3368 191.288 73.7048 191.288C74.0568 191.288 74.3688 191.312 74.6408 191.36C74.9288 191.408 75.1688 191.504 75.3608 191.648C75.5528 191.792 75.6968 191.992 75.7928 192.248C75.9048 192.488 75.9608 192.808 75.9608 193.208V198.368C75.9608 199.024 76.1208 199.496 76.4408 199.784C76.7608 200.056 77.2248 200.192 77.8328 200.192C78.2008 200.192 78.4968 200.16 78.7208 200.096C78.9608 200.032 79.1448 199.968 79.2728 199.904V191.504C79.4328 191.456 79.6808 191.408 80.0168 191.36C80.3688 191.312 80.7288 191.288 81.0968 191.288C81.4488 191.288 81.7608 191.312 82.0328 191.36C82.3208 191.408 82.5608 191.504 82.7528 191.648C82.9448 191.792 83.0888 191.992 83.1848 192.248C83.2968 192.488 83.3528 192.808 83.3528 193.208V200.504C83.3528 201.304 83.0168 201.904 82.3448 202.304C81.7848 202.656 81.1128 202.92 80.3288 203.096C79.5608 203.288 78.7208 203.384 77.8088 203.384C76.9448 203.384 76.1448 203.288 75.4088 203.096C74.6888 202.904 74.0648 202.608 73.5368 202.208C73.0088 201.808 72.6008 201.296 72.3128 200.672C72.0248 200.032 71.8808 199.264 71.8808 198.368V191.504ZM88.2496 192.872C88.0736 193.144 87.8656 193.344 87.6256 193.472C87.3856 193.6 87.0816 193.664 86.7136 193.664C86.4096 193.664 86.1296 193.632 85.8736 193.568C85.6176 193.504 85.3696 193.416 85.1296 193.304C85.2096 192.328 85.2896 191.352 85.3696 190.376C85.4496 189.4 85.5056 188.496 85.5376 187.664C85.7616 187.536 86.0496 187.416 86.4016 187.304C86.7696 187.192 87.1216 187.136 87.4576 187.136C87.7136 187.136 87.9616 187.16 88.2016 187.208C88.4576 187.256 88.6816 187.344 88.8736 187.472C89.0656 187.584 89.2176 187.744 89.3296 187.952C89.4416 188.144 89.4976 188.384 89.4976 188.672C89.4976 188.992 89.4656 189.344 89.4016 189.728C89.3376 190.112 89.2416 190.496 89.1136 190.88C89.0016 191.264 88.8656 191.632 88.7056 191.984C88.5616 192.336 88.4096 192.632 88.2496 192.872ZM95.3688 202.976C95.1928 203.008 94.9288 203.048 94.5768 203.096C94.2408 203.16 93.8968 203.192 93.5448 203.192C93.1928 203.192 92.8728 203.168 92.5848 203.12C92.3128 203.072 92.0808 202.976 91.8888 202.832C91.6968 202.688 91.5448 202.496 91.4328 202.256C91.3368 202 91.2888 201.672 91.2888 201.272V187.352C91.4648 187.32 91.7208 187.28 92.0568 187.232C92.4088 187.168 92.7608 187.136 93.1128 187.136C93.4648 187.136 93.7768 187.16 94.0488 187.208C94.3368 187.256 94.5768 187.352 94.7688 187.496C94.9608 187.64 95.1048 187.84 95.2008 188.096C95.3128 188.336 95.3688 188.656 95.3688 189.056V202.976ZM102.095 202.976C101.919 203.008 101.655 203.048 101.303 203.096C100.967 203.16 100.623 203.192 100.271 203.192C99.9193 203.192 99.5993 203.168 99.3113 203.12C99.0393 203.072 98.8073 202.976 98.6153 202.832C98.4233 202.688 98.2713 202.496 98.1593 202.256C98.0633 202 98.0153 201.672 98.0153 201.272V187.352C98.1913 187.32 98.4473 187.28 98.7833 187.232C99.1353 187.168 99.4873 187.136 99.8393 187.136C100.191 187.136 100.503 187.16 100.775 187.208C101.063 187.256 101.303 187.352 101.495 187.496C101.687 187.64 101.831 187.84 101.927 188.096C102.039 188.336 102.095 188.656 102.095 189.056V202.976ZM122.963 202.496C122.739 202.72 122.411 202.888 121.979 203C121.563 203.128 121.059 203.192 120.467 203.192C119.875 203.192 119.315 203.104 118.787 202.928C118.259 202.752 117.827 202.328 117.491 201.656L115.115 196.808C114.875 196.312 114.659 195.848 114.467 195.416C114.275 194.968 114.067 194.456 113.843 193.88L113.699 193.904C113.763 194.768 113.795 195.648 113.795 196.544C113.811 197.44 113.819 198.32 113.819 199.184V202.904C113.643 202.952 113.371 203 113.003 203.048C112.651 203.096 112.299 203.12 111.947 203.12C111.595 203.12 111.283 203.096 111.011 203.048C110.739 203 110.515 202.904 110.339 202.76C110.163 202.616 110.027 202.424 109.931 202.184C109.835 201.928 109.787 201.6 109.787 201.2V189.2C110.011 188.88 110.355 188.64 110.819 188.48C111.283 188.32 111.779 188.24 112.307 188.24C112.899 188.24 113.459 188.336 113.987 188.528C114.531 188.704 114.963 189.12 115.283 189.776L117.683 194.624C117.923 195.12 118.139 195.592 118.331 196.04C118.523 196.472 118.731 196.976 118.955 197.552L119.075 197.528C119.011 196.664 118.971 195.8 118.955 194.936C118.939 194.072 118.931 193.208 118.931 192.344V188.456C119.107 188.408 119.371 188.36 119.723 188.312C120.091 188.264 120.451 188.24 120.803 188.24C121.507 188.24 122.043 188.368 122.411 188.624C122.779 188.864 122.963 189.376 122.963 190.16V202.496ZM131.932 203.384C130.988 203.384 130.108 203.256 129.292 203C128.492 202.728 127.788 202.328 127.18 201.8C126.588 201.272 126.116 200.608 125.764 199.808C125.428 199.008 125.26 198.072 125.26 197C125.26 195.944 125.428 195.04 125.764 194.288C126.116 193.52 126.572 192.896 127.132 192.416C127.692 191.92 128.332 191.56 129.052 191.336C129.772 191.096 130.508 190.976 131.26 190.976C132.108 190.976 132.876 191.104 133.564 191.36C134.268 191.616 134.868 191.968 135.364 192.416C135.876 192.864 136.268 193.4 136.54 194.024C136.828 194.648 136.972 195.328 136.972 196.064C136.972 196.608 136.82 197.024 136.516 197.312C136.212 197.6 135.788 197.784 135.244 197.864L129.316 198.752C129.492 199.28 129.852 199.68 130.396 199.952C130.94 200.208 131.564 200.336 132.268 200.336C132.924 200.336 133.54 200.256 134.116 200.096C134.708 199.92 135.188 199.72 135.556 199.496C135.812 199.656 136.028 199.88 136.204 200.168C136.38 200.456 136.468 200.76 136.468 201.08C136.468 201.8 136.132 202.336 135.46 202.688C134.948 202.96 134.372 203.144 133.732 203.24C133.092 203.336 132.492 203.384 131.932 203.384ZM131.26 193.952C130.876 193.952 130.54 194.016 130.252 194.144C129.98 194.272 129.756 194.44 129.58 194.648C129.404 194.84 129.268 195.064 129.172 195.32C129.092 195.56 129.044 195.808 129.028 196.064L133.132 195.392C133.084 195.072 132.908 194.752 132.604 194.432C132.3 194.112 131.852 193.952 131.26 193.952ZM146.642 202.688C146.418 202.864 146.09 203.008 145.658 203.12C145.226 203.232 144.738 203.288 144.194 203.288C143.57 203.288 143.026 203.208 142.562 203.048C142.114 202.888 141.802 202.632 141.626 202.28C141.482 202.008 141.306 201.632 141.098 201.152C140.906 200.656 140.698 200.112 140.474 199.52C140.25 198.912 140.018 198.264 139.778 197.576C139.538 196.888 139.306 196.208 139.082 195.536C138.874 194.864 138.682 194.216 138.506 193.592C138.33 192.968 138.186 192.416 138.074 191.936C138.298 191.712 138.594 191.52 138.962 191.36C139.346 191.184 139.762 191.096 140.21 191.096C140.77 191.096 141.226 191.216 141.578 191.456C141.946 191.68 142.218 192.112 142.394 192.752L143.33 196.424C143.506 197.144 143.674 197.8 143.834 198.392C143.994 198.968 144.114 199.416 144.194 199.736H144.314C144.618 198.552 144.938 197.24 145.274 195.8C145.61 194.36 145.914 192.944 146.186 191.552C146.458 191.408 146.762 191.296 147.098 191.216C147.45 191.136 147.786 191.096 148.106 191.096C148.666 191.096 149.138 191.216 149.522 191.456C149.906 191.696 150.098 192.112 150.098 192.704C150.098 192.96 150.034 193.336 149.906 193.832C149.794 194.312 149.642 194.864 149.45 195.488C149.274 196.096 149.058 196.744 148.802 197.432C148.562 198.12 148.314 198.792 148.058 199.448C147.802 200.104 147.546 200.72 147.29 201.296C147.05 201.856 146.834 202.32 146.642 202.688ZM157.971 203.384C157.027 203.384 156.147 203.256 155.331 203C154.531 202.728 153.827 202.328 153.219 201.8C152.627 201.272 152.155 200.608 151.803 199.808C151.467 199.008 151.299 198.072 151.299 197C151.299 195.944 151.467 195.04 151.803 194.288C152.155 193.52 152.611 192.896 153.171 192.416C153.731 191.92 154.371 191.56 155.091 191.336C155.811 191.096 156.547 190.976 157.299 190.976C158.147 190.976 158.915 191.104 159.603 191.36C160.307 191.616 160.907 191.968 161.403 192.416C161.915 192.864 162.307 193.4 162.579 194.024C162.867 194.648 163.011 195.328 163.011 196.064C163.011 196.608 162.859 197.024 162.555 197.312C162.251 197.6 161.827 197.784 161.283 197.864L155.355 198.752C155.531 199.28 155.891 199.68 156.435 199.952C156.979 200.208 157.603 200.336 158.307 200.336C158.963 200.336 159.579 200.256 160.155 200.096C160.747 199.92 161.227 199.72 161.595 199.496C161.851 199.656 162.067 199.88 162.243 200.168C162.419 200.456 162.507 200.76 162.507 201.08C162.507 201.8 162.171 202.336 161.499 202.688C160.987 202.96 160.411 203.144 159.771 203.24C159.131 203.336 158.531 203.384 157.971 203.384ZM157.299 193.952C156.915 193.952 156.579 194.016 156.291 194.144C156.019 194.272 155.795 194.44 155.619 194.648C155.443 194.84 155.307 195.064 155.211 195.32C155.131 195.56 155.083 195.808 155.067 196.064L159.171 195.392C159.123 195.072 158.947 194.752 158.643 194.432C158.339 194.112 157.891 193.952 157.299 193.952ZM169.055 202.976C168.895 203.024 168.639 203.072 168.287 203.12C167.951 203.168 167.599 203.192 167.231 203.192C166.879 203.192 166.559 203.168 166.271 203.12C165.999 203.072 165.767 202.976 165.575 202.832C165.383 202.688 165.231 202.496 165.119 202.256C165.023 202 164.975 201.672 164.975 201.272V194.072C164.975 193.704 165.039 193.392 165.167 193.136C165.311 192.864 165.511 192.624 165.767 192.416C166.023 192.208 166.335 192.024 166.703 191.864C167.087 191.688 167.495 191.536 167.927 191.408C168.359 191.28 168.807 191.184 169.271 191.12C169.735 191.04 170.199 191 170.663 191C171.431 191 172.039 191.152 172.487 191.456C172.935 191.744 173.159 192.224 173.159 192.896C173.159 193.12 173.127 193.344 173.063 193.568C172.999 193.776 172.919 193.968 172.823 194.144C172.487 194.144 172.143 194.16 171.791 194.192C171.439 194.224 171.095 194.272 170.759 194.336C170.423 194.4 170.103 194.472 169.799 194.552C169.511 194.616 169.263 194.696 169.055 194.792V202.976ZM184.134 199.88C184.31 199.912 184.526 199.944 184.782 199.976C185.038 199.992 185.278 200 185.502 200C186.046 200 186.542 199.92 186.99 199.76C187.454 199.6 187.846 199.352 188.166 199.016C188.502 198.68 188.758 198.248 188.934 197.72C189.126 197.176 189.222 196.528 189.222 195.776C189.222 194.336 188.886 193.256 188.214 192.536C187.542 191.8 186.646 191.432 185.526 191.432C185.302 191.432 185.07 191.44 184.83 191.456C184.606 191.472 184.374 191.496 184.134 191.528V199.88ZM185.478 203.384C185.206 203.384 184.894 203.376 184.542 203.36C184.19 203.344 183.822 203.312 183.438 203.264C183.07 203.216 182.694 203.152 182.31 203.072C181.942 203.008 181.598 202.912 181.278 202.784C180.398 202.448 179.958 201.864 179.958 201.032V189.824C179.958 189.488 180.046 189.232 180.222 189.056C180.414 188.864 180.67 188.712 180.99 188.6C181.678 188.376 182.406 188.232 183.174 188.168C183.942 188.088 184.63 188.048 185.238 188.048C186.486 188.048 187.614 188.2 188.622 188.504C189.646 188.808 190.518 189.28 191.238 189.92C191.974 190.544 192.542 191.336 192.942 192.296C193.342 193.256 193.542 194.392 193.542 195.704C193.542 196.984 193.35 198.104 192.966 199.064C192.582 200.008 192.03 200.808 191.31 201.464C190.606 202.104 189.758 202.584 188.766 202.904C187.774 203.224 186.678 203.384 185.478 203.384ZM199.711 202.976C199.551 203.024 199.295 203.072 198.943 203.12C198.607 203.168 198.255 203.192 197.887 203.192C197.535 203.192 197.215 203.168 196.927 203.12C196.655 203.072 196.423 202.976 196.231 202.832C196.039 202.688 195.887 202.496 195.775 202.256C195.679 202 195.631 201.672 195.631 201.272V194.072C195.631 193.704 195.695 193.392 195.823 193.136C195.967 192.864 196.167 192.624 196.423 192.416C196.679 192.208 196.991 192.024 197.359 191.864C197.743 191.688 198.151 191.536 198.583 191.408C199.015 191.28 199.463 191.184 199.927 191.12C200.391 191.04 200.855 191 201.319 191C202.087 191 202.695 191.152 203.143 191.456C203.591 191.744 203.815 192.224 203.815 192.896C203.815 193.12 203.783 193.344 203.719 193.568C203.655 193.776 203.575 193.968 203.479 194.144C203.143 194.144 202.799 194.16 202.447 194.192C202.095 194.224 201.751 194.272 201.415 194.336C201.079 194.4 200.759 194.472 200.455 194.552C200.167 194.616 199.919 194.696 199.711 194.792V202.976ZM205.402 188.096C205.402 187.488 205.602 186.976 206.002 186.56C206.418 186.144 206.962 185.936 207.634 185.936C208.306 185.936 208.842 186.144 209.242 186.56C209.658 186.976 209.866 187.488 209.866 188.096C209.866 188.704 209.658 189.216 209.242 189.632C208.842 190.048 208.306 190.256 207.634 190.256C206.962 190.256 206.418 190.048 206.002 189.632C205.602 189.216 205.402 188.704 205.402 188.096ZM209.674 202.976C209.498 203.008 209.234 203.048 208.882 203.096C208.546 203.16 208.202 203.192 207.85 203.192C207.498 203.192 207.178 203.168 206.89 203.12C206.618 203.072 206.386 202.976 206.194 202.832C206.002 202.688 205.85 202.496 205.738 202.256C205.642 202 205.594 201.672 205.594 201.272V191.504C205.77 191.472 206.026 191.432 206.362 191.384C206.714 191.32 207.066 191.288 207.418 191.288C207.77 191.288 208.082 191.312 208.354 191.36C208.642 191.408 208.882 191.504 209.074 191.648C209.266 191.792 209.41 191.992 209.506 192.248C209.618 192.488 209.674 192.808 209.674 193.208V202.976ZM219.663 195.608C219.663 195.112 219.519 194.752 219.231 194.528C218.959 194.288 218.583 194.168 218.103 194.168C217.783 194.168 217.463 194.208 217.143 194.288C216.839 194.368 216.575 194.488 216.351 194.648V202.976C216.191 203.024 215.935 203.072 215.583 203.12C215.247 203.168 214.895 203.192 214.527 203.192C214.175 203.192 213.855 203.168 213.567 203.12C213.295 203.072 213.063 202.976 212.871 202.832C212.679 202.688 212.527 202.496 212.415 202.256C212.319 202 212.271 201.672 212.271 201.272V194.072C212.271 193.64 212.359 193.288 212.535 193.016C212.727 192.744 212.983 192.496 213.303 192.272C213.847 191.888 214.527 191.576 215.343 191.336C216.175 191.096 217.095 190.976 218.103 190.976C219.911 190.976 221.303 191.376 222.279 192.176C223.255 192.96 223.743 194.056 223.743 195.464V202.976C223.583 203.024 223.327 203.072 222.975 203.12C222.639 203.168 222.287 203.192 221.919 203.192C221.567 203.192 221.247 203.168 220.959 203.12C220.687 203.072 220.455 202.976 220.263 202.832C220.071 202.688 219.919 202.496 219.807 202.256C219.711 202 219.663 201.672 219.663 201.272V195.608ZM237.664 200.888C237.584 201.64 237.36 202.216 236.992 202.616C236.64 203.016 236.12 203.216 235.432 203.216C234.92 203.216 234.464 203.096 234.064 202.856C233.664 202.6 233.232 202.176 232.768 201.584L230.392 198.608V202.976C230.216 203.008 229.952 203.048 229.6 203.096C229.264 203.16 228.92 203.192 228.568 203.192C228.216 203.192 227.896 203.168 227.608 203.12C227.336 203.072 227.104 202.976 226.912 202.832C226.72 202.688 226.568 202.496 226.456 202.256C226.36 202 226.312 201.672 226.312 201.272V187.376C226.488 187.328 226.744 187.28 227.08 187.232C227.432 187.168 227.784 187.136 228.136 187.136C228.488 187.136 228.8 187.16 229.072 187.208C229.36 187.256 229.6 187.352 229.792 187.496C229.984 187.64 230.128 187.84 230.224 188.096C230.336 188.336 230.392 188.656 230.392 189.056V195.392L234.52 191.168C235.352 191.168 236.016 191.352 236.512 191.72C237.024 192.088 237.28 192.552 237.28 193.112C237.28 193.352 237.24 193.576 237.16 193.784C237.08 193.976 236.952 194.176 236.776 194.384C236.616 194.592 236.4 194.816 236.128 195.056C235.872 195.28 235.568 195.544 235.216 195.848L233.824 197.048L237.664 200.888ZM247.789 188.888C248.061 188.728 248.469 188.576 249.013 188.432C249.573 188.288 250.133 188.216 250.693 188.216C251.493 188.216 252.197 188.336 252.805 188.576C253.429 188.8 253.829 189.16 254.005 189.656C254.293 190.488 254.605 191.456 254.941 192.56C255.277 193.664 255.613 194.808 255.949 195.992C256.285 197.16 256.613 198.32 256.933 199.472C257.253 200.608 257.533 201.616 257.773 202.496C257.581 202.72 257.293 202.896 256.909 203.024C256.525 203.168 256.069 203.24 255.541 203.24C255.157 203.24 254.829 203.208 254.557 203.144C254.301 203.08 254.085 202.984 253.909 202.856C253.749 202.728 253.613 202.56 253.501 202.352C253.405 202.144 253.317 201.904 253.237 201.632L252.805 199.976H248.461C248.333 200.456 248.205 200.952 248.077 201.464C247.949 201.976 247.821 202.472 247.693 202.952C247.469 203.032 247.229 203.096 246.973 203.144C246.733 203.208 246.437 203.24 246.085 203.24C245.269 203.24 244.661 203.104 244.261 202.832C243.877 202.544 243.685 202.152 243.685 201.656C243.685 201.432 243.717 201.208 243.781 200.984C243.845 200.76 243.917 200.496 243.997 200.192C244.109 199.76 244.261 199.224 244.453 198.584C244.661 197.944 244.885 197.256 245.125 196.52C245.365 195.768 245.621 195 245.893 194.216C246.165 193.432 246.421 192.696 246.661 192.008C246.901 191.304 247.117 190.68 247.309 190.136C247.517 189.592 247.677 189.176 247.789 188.888ZM250.669 191.984C250.445 192.656 250.189 193.408 249.901 194.24C249.629 195.056 249.381 195.888 249.157 196.736H252.133C251.909 195.872 251.677 195.032 251.437 194.216C251.213 193.384 251.005 192.64 250.813 191.984H250.669ZM263.58 202.976C263.404 203.008 263.14 203.048 262.788 203.096C262.452 203.16 262.108 203.192 261.756 203.192C261.404 203.192 261.084 203.168 260.796 203.12C260.524 203.072 260.292 202.976 260.1 202.832C259.908 202.688 259.756 202.496 259.644 202.256C259.548 202 259.5 201.672 259.5 201.272V187.352C259.676 187.32 259.932 187.28 260.268 187.232C260.62 187.168 260.972 187.136 261.324 187.136C261.676 187.136 261.988 187.16 262.26 187.208C262.548 187.256 262.788 187.352 262.98 187.496C263.172 187.64 263.316 187.84 263.412 188.096C263.524 188.336 263.58 188.656 263.58 189.056V202.976ZM278.226 197.168C278.226 198.16 278.074 199.048 277.77 199.832C277.466 200.6 277.034 201.248 276.474 201.776C275.93 202.304 275.274 202.704 274.506 202.976C273.738 203.248 272.882 203.384 271.938 203.384C270.994 203.384 270.138 203.24 269.37 202.952C268.602 202.664 267.938 202.256 267.378 201.728C266.834 201.184 266.41 200.528 266.106 199.76C265.802 198.992 265.65 198.128 265.65 197.168C265.65 196.224 265.802 195.368 266.106 194.6C266.41 193.832 266.834 193.184 267.378 192.656C267.938 192.112 268.602 191.696 269.37 191.408C270.138 191.12 270.994 190.976 271.938 190.976C272.882 190.976 273.738 191.128 274.506 191.432C275.274 191.72 275.93 192.136 276.474 192.68C277.034 193.208 277.466 193.856 277.77 194.624C278.074 195.392 278.226 196.24 278.226 197.168ZM269.826 197.168C269.826 198.144 270.01 198.896 270.378 199.424C270.762 199.936 271.29 200.192 271.962 200.192C272.634 200.192 273.146 199.928 273.498 199.4C273.866 198.872 274.05 198.128 274.05 197.168C274.05 196.208 273.866 195.472 273.498 194.96C273.13 194.432 272.61 194.168 271.938 194.168C271.266 194.168 270.746 194.432 270.378 194.96C270.01 195.472 269.826 196.208 269.826 197.168ZM287.609 195.608C287.609 195.112 287.465 194.752 287.177 194.528C286.905 194.288 286.529 194.168 286.049 194.168C285.729 194.168 285.409 194.208 285.089 194.288C284.785 194.368 284.521 194.488 284.297 194.648V202.976C284.137 203.024 283.881 203.072 283.529 203.12C283.193 203.168 282.841 203.192 282.473 203.192C282.121 203.192 281.801 203.168 281.513 203.12C281.241 203.072 281.009 202.976 280.817 202.832C280.625 202.688 280.473 202.496 280.361 202.256C280.265 202 280.217 201.672 280.217 201.272V194.072C280.217 193.64 280.305 193.288 280.481 193.016C280.673 192.744 280.929 192.496 281.249 192.272C281.793 191.888 282.473 191.576 283.289 191.336C284.121 191.096 285.041 190.976 286.049 190.976C287.857 190.976 289.249 191.376 290.225 192.176C291.201 192.96 291.689 194.056 291.689 195.464V202.976C291.529 203.024 291.273 203.072 290.921 203.12C290.585 203.168 290.233 203.192 289.865 203.192C289.513 203.192 289.193 203.168 288.905 203.12C288.633 203.072 288.401 202.976 288.209 202.832C288.017 202.688 287.865 202.496 287.753 202.256C287.657 202 287.609 201.672 287.609 201.272V195.608ZM300.377 203.384C299.433 203.384 298.553 203.256 297.737 203C296.937 202.728 296.233 202.328 295.625 201.8C295.033 201.272 294.561 200.608 294.209 199.808C293.873 199.008 293.705 198.072 293.705 197C293.705 195.944 293.873 195.04 294.209 194.288C294.561 193.52 295.017 192.896 295.577 192.416C296.137 191.92 296.777 191.56 297.497 191.336C298.217 191.096 298.953 190.976 299.705 190.976C300.553 190.976 301.321 191.104 302.009 191.36C302.713 191.616 303.313 191.968 303.809 192.416C304.321 192.864 304.713 193.4 304.985 194.024C305.273 194.648 305.417 195.328 305.417 196.064C305.417 196.608 305.265 197.024 304.961 197.312C304.657 197.6 304.233 197.784 303.689 197.864L297.761 198.752C297.937 199.28 298.297 199.68 298.841 199.952C299.385 200.208 300.009 200.336 300.713 200.336C301.369 200.336 301.985 200.256 302.561 200.096C303.153 199.92 303.633 199.72 304.001 199.496C304.257 199.656 304.473 199.88 304.649 200.168C304.825 200.456 304.913 200.76 304.913 201.08C304.913 201.8 304.577 202.336 303.905 202.688C303.393 202.96 302.817 203.144 302.177 203.24C301.537 203.336 300.937 203.384 300.377 203.384ZM299.705 193.952C299.321 193.952 298.985 194.016 298.697 194.144C298.425 194.272 298.201 194.44 298.025 194.648C297.849 194.84 297.713 195.064 297.617 195.32C297.537 195.56 297.489 195.808 297.473 196.064L301.577 195.392C301.529 195.072 301.353 194.752 301.049 194.432C300.745 194.112 300.297 193.952 299.705 193.952Z" fill="white"/>
<path d="M108.315 89.2721L120.405 84.7371L123.324 92.4257L117.207 94.7202C111.09 97.0147 112.063 99.5776 113.036 102.14L121.083 123.341C122.564 127.241 127.178 126.11 127.178 126.11L134.997 123.177L137.915 130.866L125.826 135.401C123.355 136.328 120.675 136.394 118.372 135.586C116.07 134.778 114.335 133.161 113.548 131.092L101.962 100.57C101.177 98.4997 101.406 96.1466 102.597 94.0279C103.789 91.9093 105.845 90.1986 108.315 89.2721Z" fill="#FFAC33"/>
<path d="M117.347 85.8843L169.332 66.3838L189.525 119.581C190.723 122.738 188.621 126.478 184.854 127.891L146.568 142.252C142.801 143.666 138.738 142.239 137.54 139.082L117.347 85.8843Z" fill="#FFAC33"/>
<path d="M147.503 133.119C148.314 132.814 148.989 132.252 149.38 131.557C149.771 130.861 149.846 130.088 149.588 129.408L138.889 101.222C138.631 100.543 138.061 100.012 137.305 99.7463C136.549 99.4808 135.669 99.5026 134.858 99.8069C134.047 100.111 133.371 100.673 132.98 101.369C132.589 102.065 132.514 102.837 132.772 103.517L143.472 131.703C144.01 133.121 145.814 133.752 147.503 133.119ZM162.791 127.384C163.602 127.079 164.278 126.518 164.669 125.822C165.06 125.126 165.135 124.353 164.877 123.673L154.177 95.4876C153.919 94.8079 153.35 94.2769 152.594 94.0114C151.838 93.7459 150.957 93.7677 150.146 94.072C149.335 94.3762 148.66 94.938 148.269 95.6338C147.878 96.3296 147.803 97.1024 148.061 97.7821L158.76 125.968C159.301 127.384 161.103 128.017 162.791 127.384ZM120.736 94.8127L117.347 85.8843L169.332 66.3838L174.646 80.3835C173.747 81.0907 172.73 81.6665 171.641 82.0844C169.791 82.7774 167.807 82.9926 165.943 82.7024C164.08 82.4121 162.421 81.6297 161.179 80.4549C160.827 80.9975 160.355 81.4813 159.795 81.8747C159.235 82.268 158.599 82.562 157.929 82.7373C157.258 82.9125 156.569 82.9651 155.906 82.8916C155.243 82.8181 154.621 82.6201 154.082 82.3106C153.665 83.7317 152.854 85.0778 151.725 86.2238C150.595 87.3699 149.182 88.2788 147.619 88.8662C146.182 89.4021 144.66 89.6509 143.172 89.5929C141.684 89.5348 140.271 89.1715 139.045 88.5317C138.968 89.6049 138.523 90.6695 137.768 91.5862C137.013 92.5029 135.983 93.229 134.813 93.6697C133.766 94.0591 132.649 94.2041 131.581 94.0895C130.513 93.9748 129.533 93.6048 128.744 93.0184C127.963 93.7441 127.024 94.362 125.921 94.7757C122.901 95.9088 120.736 94.8127 120.736 94.8127Z" fill="#F4900C"/>
<path d="M121.658 69.6309L161.41 54.7194C167.527 52.4249 171.558 53.8406 173.504 58.9663L176.51 66.8874C177.188 68.6953 177.097 70.725 176.253 72.6311C175.41 74.5371 173.866 76.2019 171.884 77.3419C169.902 78.4819 167.605 79.0267 165.383 78.8837C163.162 78.7407 161.153 77.9186 159.699 76.5574C159.095 77.4857 158.15 78.2288 157.039 78.6504C155.464 79.2413 153.826 79.1015 152.602 78.4131C152.185 79.8336 151.373 81.1789 150.243 82.3244C149.113 83.4698 147.701 84.3784 146.138 84.9658C144.701 85.5017 143.179 85.7505 141.691 85.6924C140.203 85.6344 138.79 85.2711 137.564 84.6313C137.487 85.7045 137.042 86.7691 136.287 87.6858C135.532 88.6025 134.502 89.3286 133.333 89.7693C131.209 90.5658 129.024 90.2709 127.465 89.2261C127.012 89.9875 126.328 90.6406 125.496 91.1048C124.664 91.5689 123.722 91.8237 122.786 91.8376C121.85 91.8515 120.96 91.6239 120.228 91.183C119.495 90.7421 118.952 90.1072 118.665 89.3568L115.402 80.7613C113.456 75.6355 115.542 71.9254 121.658 69.6309Z" fill="#E1E8ED"/>
<path d="M204.583 56.6028C203.905 56.8576 203.179 56.938 202.495 56.834C201.812 56.73 201.202 56.4462 200.743 56.0185C200.285 55.5909 199.998 55.0386 199.919 54.4317C199.841 53.8247 199.973 53.1905 200.301 52.6092L208.599 37.8576C209.037 37.0784 209.794 36.4493 210.702 36.1088C211.611 35.7683 212.597 35.7442 213.444 36.0418C214.29 36.3394 214.928 36.9344 215.217 37.6958C215.505 38.4573 215.421 39.3228 214.983 40.102L206.685 54.8536C206.47 55.24 206.173 55.5936 205.812 55.8938C205.451 56.1941 205.033 56.4351 204.583 56.6028ZM188.474 57.082C187.926 57.2874 187.345 57.38 186.779 57.352C186.213 57.3239 185.678 57.176 185.22 56.9207C184.761 56.6654 184.392 56.31 184.143 55.8845C183.895 55.4589 183.774 54.9755 183.791 54.4748L184.092 45.2702C184.119 44.4393 184.523 43.6143 185.216 42.9769C185.909 42.3395 186.833 41.9418 187.786 41.8714C188.739 41.8009 189.642 42.0634 190.296 42.6012C190.951 43.139 191.304 43.9079 191.277 44.7389L190.976 53.9435C190.955 54.5936 190.704 55.245 190.255 55.8074C189.807 56.3697 189.184 56.8152 188.474 57.082ZM215.802 65.7612C214.995 66.0597 214.126 66.1103 213.345 65.9042C212.565 65.6981 211.925 65.2484 211.536 64.6341C211.147 64.0198 211.036 63.2801 211.22 62.5447C211.405 61.8094 211.874 61.1254 212.545 60.6127L220.127 54.8802C220.887 54.3055 221.845 53.9943 222.789 54.0152C223.733 54.0361 224.587 54.3873 225.161 54.9916C225.736 55.5959 225.986 56.4038 225.855 57.2376C225.724 58.0713 225.223 58.8626 224.462 59.4374L216.881 65.1698C216.555 65.4155 216.191 65.6155 215.802 65.7612Z" fill="#FA743E"/>
<path d="M223.871 78.7112L211.782 83.2462L214.7 90.9348L220.817 88.6404C226.934 86.3459 227.906 88.9088 228.879 91.4717L236.927 112.672C238.407 116.572 234.192 118.754 234.192 118.754L226.373 121.687L229.292 129.375L241.381 124.84C243.851 123.914 245.908 122.203 247.1 120.084C248.291 117.966 248.519 115.613 247.735 113.542L236.149 83.0203C235.362 80.9508 233.627 79.3342 231.325 78.5262C229.022 77.7181 226.341 77.7847 223.871 78.7112Z" fill="#FFAC33"/>
<path d="M214.84 82.0989L162.855 101.599L183.048 154.797C184.247 157.954 188.309 159.381 192.077 157.968L230.362 143.606C234.13 142.193 236.232 138.453 235.033 135.297L214.84 82.0989Z" fill="#FFCC4D"/>
<path d="M193.011 148.834C192.2 149.138 191.32 149.16 190.564 148.894C189.808 148.629 189.238 148.098 188.98 147.418L178.281 119.232C178.023 118.552 178.098 117.78 178.489 117.084C178.88 116.388 179.555 115.826 180.366 115.522C181.178 115.218 182.058 115.196 182.814 115.461C183.57 115.727 184.14 116.258 184.398 116.938L195.097 145.123C195.635 146.541 194.7 148.2 193.011 148.834ZM223.591 137.363C222.78 137.667 221.9 137.689 221.144 137.423C220.388 137.158 219.818 136.627 219.56 135.947L208.861 107.761C208.603 107.081 208.678 106.309 209.069 105.613C209.46 104.917 210.135 104.355 210.946 104.051C211.758 103.747 212.638 103.725 213.394 103.99C214.15 104.256 214.72 104.787 214.978 105.467L225.677 133.652C226.215 135.07 225.28 136.729 223.591 137.363ZM208.303 143.097C207.492 143.402 206.611 143.423 205.855 143.158C205.099 142.893 204.53 142.362 204.272 141.682L193.573 113.496C193.315 112.816 193.389 112.043 193.781 111.348C194.172 110.652 194.847 110.09 195.658 109.786C196.469 109.481 197.35 109.46 198.106 109.725C198.862 109.991 199.431 110.522 199.689 111.201L210.388 139.387C210.646 140.067 210.572 140.84 210.181 141.536C209.789 142.231 209.114 142.793 208.303 143.097Z" fill="#F4900C"/>
<path d="M218.229 91.0274L214.84 82.0989L162.855 101.599L168.169 115.599C169.286 115.531 170.428 115.325 171.555 114.903C173.405 114.208 175.037 113.066 176.243 111.625C177.449 110.183 178.175 108.506 178.326 106.809C178.951 106.985 179.627 107.038 180.309 106.966C180.991 106.893 181.663 106.696 182.283 106.387C182.903 106.079 183.455 105.666 183.904 105.175C184.353 104.684 184.688 104.128 184.887 103.541C186.145 104.334 187.648 104.812 189.258 104.931C190.868 105.049 192.532 104.804 194.096 104.218C197.124 103.082 199.324 100.85 200.31 98.3359C201.849 99.8339 204.436 100.339 206.901 99.4142C209.11 98.5856 210.611 96.8292 211.025 94.9397C212.093 94.9717 213.209 94.8187 214.312 94.405C217.332 93.2719 218.229 91.0274 218.229 91.0274Z" fill="#FFAC33"/>
<path d="M200.802 72.7292L161.05 87.6407C154.934 89.9352 152.848 93.6453 154.794 98.771L157.801 106.692C158.493 108.494 159.911 109.958 161.811 110.835C163.71 111.712 165.976 111.948 168.221 111.502C170.467 111.056 172.553 109.957 174.126 108.39C175.699 106.824 176.66 104.888 176.847 102.911C177.886 103.194 179.077 103.17 180.235 102.735C181.81 102.145 182.947 100.964 183.408 99.6436C184.666 100.436 186.169 100.913 187.778 101.03C189.388 101.148 191.052 100.903 192.616 100.317C195.643 99.1818 197.844 96.9498 198.83 94.4357C200.369 95.9337 202.955 96.439 205.421 95.514C207.544 94.7175 208.989 93.0608 209.465 91.2529C210.536 91.6018 211.802 91.5959 213.028 91.136C215.562 90.1853 216.96 87.6938 216.155 85.5729L212.892 76.9774C210.95 71.8503 206.919 70.4347 200.802 72.7292Z" fill="#EEEEEE"/>
<defs>
<linearGradient id="paint0_linear_106_392" x1="175.5" y1="0" x2="175.5" y2="222" gradientUnits="userSpaceOnUse">
<stop stop-color="#2962FF"/>
<stop offset="1" stop-color="#0001C0"/>
</linearGradient>
</defs>
</svg>
